<?xml version="1.0" encoding="utf-8"?>
<!-- Generator: Adobe Illustrator 23.0.2, SVG Export Plug-In . SVG Version: 6.00 Build 0)  -->
<svg version="1.1" id="Capa_1" xmlns="http://www.w3.org/2000/svg" xmlns:xlink="http://www.w3.org/1999/xlink" x="0px" y="0px"
	 viewBox="0 0 512 512" style="enable-background:new 0 0 512 512;" xml:space="preserve">
<style type="text/css">
	.Sombra_x0020_paralela{fill:none;}
	.Resplandor_x0020_externo_x0020_5_x0020_pt_x002E_{fill:none;}
	.Neón_x0020_azul{fill:none;stroke:#8AACDA;stroke-width:7;stroke-linecap:round;stroke-linejoin:round;}
	.Resalte_x0020_cromado{fill:url(#SVGID_1_);stroke:#FFFFFF;stroke-width:0.3629;stroke-miterlimit:1;}
	.A_x0020_todo_x0020_ritmo_GS{fill:#FFDD00;}
	.Alyssa_GS{fill:#A6D0E4;}
	.st0{fill:#CCCCCC;}
	.st1{clip-path:url(#SVGID_3_);}
	.st2{fill:#FFC1C1;}
	.st3{clip-path:url(#SVGID_5_);}
	.st4{fill:#8EA8DD;}
	.st5{fill:#425AC2;}
	.st6{clip-path:url(#SVGID_7_);}
	.st7{fill:#0E24A5;}
	.st8{fill:#A4B8EA;}
	.st9{fill:#FE958E;}
	.st10{fill:#E98896;}
	.st11{fill:#FFB3B6;}
	.st12{clip-path:url(#SVGID_9_);}
	.st13{fill:#03053F;}
	.st14{clip-path:url(#SVGID_11_);}
</style>
<linearGradient id="SVGID_1_" gradientUnits="userSpaceOnUse" x1="0" y1="0" x2="6.123234e-17" y2="-1">
	<stop  offset="0" style="stop-color:#656565"/>
	<stop  offset="0.618" style="stop-color:#1B1B1B"/>
	<stop  offset="0.6292" style="stop-color:#545454"/>
	<stop  offset="0.9831" style="stop-color:#3E3E3E"/>
</linearGradient>
<g>
	<g>
		<g>
			<rect x="168.71" y="300.44" class="st0" width="5.33" height="129.36"/>
		</g>
	</g>
	<g>
		<g>
			<rect x="144.7" y="313.78" class="st0" width="5.33" height="129.36"/>
		</g>
	</g>
	<g>
		<g>
			<rect x="194.05" y="323.11" class="st0" width="5.33" height="129.36"/>
		</g>
	</g>
	<g>
		<defs>
			<path id="SVGID_2_" d="M206.28,405.8h-81.82c3.65,6.68,8.91,12.35,15.23,16.54v88.82h51.35v-88.82
				C197.37,418.15,202.63,412.48,206.28,405.8z"/>
		</defs>
		<use xlink:href="#SVGID_2_"  style="overflow:visible;fill:#FE958E;"/>
		<clipPath id="SVGID_3_">
			<use xlink:href="#SVGID_2_"  style="overflow:visible;"/>
		</clipPath>
		<g class="st1">
			<rect x="131.37" y="422.62" class="st2" width="99.35" height="1.02"/>
		</g>
	</g>
	<g>
		<g>
			<defs>
				<path id="SVGID_4_" d="M412.76,452.47l0.83-116.02c0,0-20.21,12.35-16.45,29.06c1.8,8.02,4.77,13.39-0.8,20.06
					c-5.56,6.68-8.16,11.01-7.61,18.8c0.56,7.79,9.52,10.36,8.4,19.26c-1.11,8.9-6.82,15.5-5.8,20.92
					c2.31,12.36,12.8,17.25,12.8,17.25L412.76,452.47z"/>
			</defs>
			<use xlink:href="#SVGID_4_"  style="overflow:visible;fill:#425AC2;"/>
			<clipPath id="SVGID_5_">
				<use xlink:href="#SVGID_4_"  style="overflow:visible;"/>
			</clipPath>
			<g class="st3">
				<rect x="405.64" y="360.83" class="st4" width="27.56" height="1.02"/>
			</g>
			<g class="st3">
				<rect x="401.2" y="399.95" class="st4" width="27.56" height="1.02"/>
			</g>
			<g class="st3">
				<rect x="402.98" y="442.63" class="st4" width="27.56" height="1.02"/>
			</g>
		</g>
	</g>
	<g>
		<path class="st5" d="M197.16,252.88c-9.34-20-38.96-22.84-52.01,2.22c-11.11,21.34-37.51,13.84-44.9,33.78
			c-13.34,36.01,33.81,49.81,53.79,31.12c13.78-12.89,31.33-5.22,46.68,7.11c24.89,20,63.57-22.67,39.12-42.67
			C220.86,268.92,208.66,277.53,197.16,252.88z"/>
	</g>
	<g>
		<g>
			<defs>
				<path id="SVGID_6_" d="M336.66,451.58l0.91-127.13c0,0-22.14,13.53-18.03,31.85c1.97,8.78,5.22,14.67-0.87,21.99
					c-6.1,7.32-8.94,12.07-8.33,20.6c0.61,8.54,10.43,11.35,9.21,21.1c-1.22,9.75-7.47,16.99-6.36,22.92
					c2.53,13.54,14.02,18.9,14.02,18.9L336.66,451.58z"/>
			</defs>
			<use xlink:href="#SVGID_6_"  style="overflow:visible;fill:#425AC2;"/>
			<clipPath id="SVGID_7_">
				<use xlink:href="#SVGID_6_"  style="overflow:visible;"/>
			</clipPath>
			<g class="st6">
				<rect x="328.87" y="351.21" class="st4" width="30.2" height="1.02"/>
			</g>
			<g class="st6">
				<rect x="325.95" y="440.84" class="st4" width="30.2" height="1.02"/>
			</g>
		</g>
	</g>
	<g>
		<path class="st5" d="M379.41,454.74V302.67c0,0-25.65,15.67-20.89,36.9c2.29,10.18,6.05,17-1.01,25.47
			c-7.06,8.48-10.36,13.98-9.66,23.87c0.71,9.89,12.08,13.15,10.67,24.45c-1.41,11.3-12.31,21.61-7.37,26.56
			c4.94,4.94,16.25,21.9,16.25,21.9L379.41,454.74z"/>
	</g>
	<g>
		<polygon class="st7" points="358.84,451.19 414.09,451.19 403.57,511.69 369.36,511.69 		"/>
	</g>
	<g>
		<g>
			<path class="st8" d="M281.24,348.46c0-25.38,58.1-15.62,76.13-87.84c14.57-58.34-1.95-64.42-1.95-64.42h-68.79h-34.67h-68.79
				c0,0-17.64,6.37-1.95,64.42c19.52,72.23,76.13,62.47,76.13,87.84c0,33.18-54.66,15.62-76.13,87.84
				c-17.14,57.64,1.95,64.42,1.95,64.42h68.79h34.67h68.79c0,0,16.52-6.07,1.95-64.42C341.29,371.88,281.24,381.64,281.24,348.46z"
				/>
		</g>
	</g>
	<g>
		<path class="st4" d="M361.42,229.22H176.04c-10.12,0-18.32-6.96-18.32-15.54v-12.79c0-8.58,8.2-15.54,18.32-15.54h185.39
			c10.12,0,18.32,6.96,18.32,15.54v12.79C379.74,222.26,371.54,229.22,361.42,229.22z"/>
	</g>
	<g>
		<path class="st5" d="M318.45,154.12h-73.78v17.71c0,9.59,6.02,13.9,15.6,13.9h56.43c9.59,0,19.11-4.31,19.11-13.9v-0.35
			C335.8,161.89,328.03,154.12,318.45,154.12z"/>
	</g>
	<g>
		<g>
			<path class="st5" d="M335.03,169.15l8.79,99.79h-13.36c0,0-18.72-59.91-20.86-81.29c-2.14-21.38,10.71-23.59,10.71-23.59
				L335.03,169.15z"/>
		</g>
	</g>
	<g>
		<path class="st5" d="M292.51,167.8l9.09,101.14h-13.36c0,0-19.66-64.92-21.8-86.3c-2.14-21.38,11.64-18.58,11.64-18.58
			L292.51,167.8z"/>
	</g>
	<g>
		<path class="st9" d="M343.55,268.94h-13.1v10.05h26.56c1.75,0,2.36-3.94,0.82-4.79L343.55,268.94z"/>
	</g>
	<g>
		<path class="st9" d="M301.59,268.94h-13.1v10.05h26.56c1.75,0,2.36-3.94,0.82-4.79L301.59,268.94z"/>
	</g>
	<g>
		<path class="st7" d="M244.68,154.8h55.06l6.87-81.57c0.62-7.31-5.15-13.58-12.48-13.58h-43.84c-7.33,0-13.1,6.27-12.48,13.58
			L244.68,154.8z"/>
	</g>
	<g>
		<path class="st10" d="M268.74,64.73h8.55c2.66,0,4.81-2.43,4.81-5.42V48.77c0-2.99-2.15-5.42-4.81-5.42h-8.55
			c-2.66,0-4.81,2.43-4.81,5.42v10.54C263.93,62.3,266.08,64.73,268.74,64.73z"/>
	</g>
	<g>
		<path class="st11" d="M293.53,43.33c-3.44,11.63-13.16,9.84-24.78,6.41c-11.62-3.44-18.26-15.64-14.83-27.27
			c3.44-11.62,15.64-18.26,27.27-14.83C292.82,11.08,296.97,31.71,293.53,43.33z"/>
	</g>
	<g>
		<polygon class="st7" points="305.35,67.13 331.49,112.07 311.16,120.69 294.98,94.1 		"/>
	</g>
	<g>
		<path class="st7" d="M238.06,61.73c-25.62,22.28-31.46,51.77-31.46,51.77c-1.59,3.41-0.37,8.84,3.21,10.02l49.91,24.91l6.95-11.76
			l-34.94-26.61l25.67-27.67l-1.33-22.67C256.06,59.73,241.89,58.4,238.06,61.73z"/>
	</g>
	<g>
		<defs>
			<path id="SVGID_8_" d="M244.68,154.8h55.06l6.87-81.57c0.62-7.31-5.15-13.58-12.48-13.58h-43.84c-7.33,0-13.1,6.27-12.48,13.58
				L244.68,154.8z"/>
		</defs>
		<clipPath id="SVGID_9_">
			<use xlink:href="#SVGID_8_"  style="overflow:visible;"/>
		</clipPath>
		<g class="st12">
			
				<rect x="252.07" y="106.21" transform="matrix(0.6977 -0.7164 0.7164 0.6977 -14.3819 219.2419)" class="st4" width="1.03" height="40.89"/>
		</g>
		<g class="st12">
			
				<rect x="245.33" y="123" transform="matrix(0.4654 -0.8851 0.8851 0.4654 5.7919 293.466)" class="st4" width="1.02" height="37.88"/>
		</g>
	</g>
	<g>
		<rect x="258" y="148.09" class="st0" width="85.94" height="7.28"/>
	</g>
	<g>
		<path class="st11" d="M258.8,148.3h21.92l1.6-9.62h-16.54c-3.1,0-5.74,2.24-6.25,5.3L258.8,148.3z"/>
	</g>
	<g>
		<polygon class="st0" points="274.88,148.39 343.89,148.39 353.35,105.67 284.34,105.67 		"/>
	</g>
	<g>
		<path class="st4" d="M310.92,128.18c0,2.51,2.03,4.54,4.54,4.54c2.51,0,4.54-2.03,4.54-4.54c0-2.51-2.03-4.54-4.54-4.54
			C312.96,123.64,310.92,125.67,310.92,128.18z"/>
	</g>
	<g>
		<path class="st2" d="M188.27,471.14c-2.22-6.22,6.45-37.9,9.11-43.67c2.67-5.78,66.01-44.34,70.9-43.9
			c4.89,0.44,65.23,32.23,72.79,45.56c7.56,13.34,9,42.01,9,42.01H188.27z"/>
	</g>
	<g>
		<path class="st4" d="M361.42,512.47H176.04c-10.12,0-18.32-6.96-18.32-15.54v-12.79c0-8.58,8.2-15.54,18.32-15.54h185.39
			c10.12,0,18.32,6.96,18.32,15.54v12.79C379.74,505.52,371.54,512.47,361.42,512.47z"/>
	</g>
	<g>
		<path class="st2" d="M269.39,330.45c-3,0-26-12.67-39.01-22c-13-9.34-10-13.34-5-15s93.68-1,97.35,2.67
			c3.67,3.67-17,16-26.01,22.34C290.14,323.08,275.06,330.45,269.39,330.45z"/>
	</g>
	<g>
		<path class="st13" d="M259.56,44.9c1.25,1.15,6.17-0.46,3.17-4c-3.67-4.33-7-11.84-1-13.17c6-1.33,4.33,5.83,7,5.83
			c2.67,0,0.33-9.5,1.33-14.84c1-5.33,14.67-4.67,21.34-5.67c6.67-1,7.5-15.34-9.67-13.34c-11.57,1.35-20,4.83-27.34,15.84
			C248.84,23.88,251.56,37.56,259.56,44.9z"/>
	</g>
	<g>
		<defs>
			<path id="SVGID_10_" d="M379.41,454.74V302.67c0,0-25.65,15.67-20.89,36.9c2.29,10.18,6.05,17-1.01,25.47
				c-7.06,8.48-10.36,13.98-9.66,23.87c0.71,9.89,12.08,13.15,10.67,24.45c-1.41,11.3-12.31,21.61-7.37,26.56
				c4.94,4.94,16.25,21.9,16.25,21.9L379.41,454.74z"/>
		</defs>
		<clipPath id="SVGID_11_">
			<use xlink:href="#SVGID_10_"  style="overflow:visible;"/>
		</clipPath>
		<g class="st14">
			<rect x="367.86" y="337.27" class="st4" width="27.56" height="1.03"/>
		</g>
		<g class="st14">
			<rect x="360.75" y="384.84" class="st4" width="27.56" height="1.02"/>
		</g>
		<g class="st14">
			<rect x="367.86" y="432.85" class="st4" width="27.56" height="1.02"/>
		</g>
	</g>
	<g>
		<path class="st5" d="M129.43,362.24c-4.36,3.65,1.12,13.38,12.04,11.38c10.93-2.01,16.51-7.14,10.48-12.71
			C145.94,355.32,137.69,355.32,129.43,362.24z"/>
	</g>
	<g>
		<path class="st5" d="M160.69,342.2c7.45-13.65,18.86-2.21,25.98,1.27c14.26,6.97,16.58-2.17,24.08,1.58
			c7.6,3.8,4.44,13.62-11.72,16.48C184.98,364.01,153.08,356.14,160.69,342.2z"/>
	</g>
</g>
</svg>
