<?xml version="1.0" encoding="utf-8"?>
<!-- Generator: Adobe Illustrator 23.0.2, SVG Export Plug-In . SVG Version: 6.00 Build 0)  -->
<svg version="1.1" id="Capa_1" xmlns="http://www.w3.org/2000/svg" xmlns:xlink="http://www.w3.org/1999/xlink" x="0px" y="0px"
	 viewBox="0 0 512 512" style="enable-background:new 0 0 512 512;" xml:space="preserve">
<style type="text/css">
	.Sombra_x0020_paralela{fill:none;}
	.Resplandor_x0020_externo_x0020_5_x0020_pt_x002E_{fill:none;}
	.Neón_x0020_azul{fill:none;stroke:#8AACDA;stroke-width:7;stroke-linecap:round;stroke-linejoin:round;}
	.Resalte_x0020_cromado{fill:url(#SVGID_1_);stroke:#FFFFFF;stroke-width:0.3629;stroke-miterlimit:1;}
	.A_x0020_todo_x0020_ritmo_GS{fill:#FFDD00;}
	.Alyssa_GS{fill:#A6D0E4;}
	.st0{clip-path:url(#SVGID_3_);}
	.st1{fill:#8EA8DD;}
	.st2{clip-path:url(#SVGID_5_);}
	.st3{fill:#FFC1C1;}
	.st4{clip-path:url(#SVGID_7_);}
	.st5{clip-path:url(#SVGID_9_);}
	.st6{fill:#425AC2;}
	.st7{fill:#231F20;}
	.st8{fill:#FFFFFF;}
	.st9{fill:#03053F;}
	.st10{clip-path:url(#SVGID_11_);}
	.st11{fill:#CCCCCC;}
	.st12{fill:#FE958E;}
	.st13{fill:#0E24A5;}
	.st14{fill:#A4B8EA;}
	.st15{fill:#E98896;}
	.st16{fill:#FFB3B6;}
	.st17{clip-path:url(#SVGID_13_);}
</style>
<linearGradient id="SVGID_1_" gradientUnits="userSpaceOnUse" x1="0" y1="0" x2="6.123234e-17" y2="-1">
	<stop  offset="0" style="stop-color:#656565"/>
	<stop  offset="0.618" style="stop-color:#1B1B1B"/>
	<stop  offset="0.6292" style="stop-color:#545454"/>
	<stop  offset="0.9831" style="stop-color:#3E3E3E"/>
</linearGradient>
<g>
	<g>
		<g>
			<defs>
				<path id="SVGID_2_" d="M95.71,382.89l-0.83-115.51c0,0,20.12,12.29,16.38,28.93c-1.79,7.98-4.75,13.33,0.79,19.98
					c5.54,6.65,8.13,10.96,7.57,18.72c-0.55,7.76-9.47,10.31-8.37,19.17c1.11,8.86,6.79,15.44,5.78,20.83
					c-2.3,12.3-12.74,17.17-12.74,17.17L95.71,382.89z"/>
			</defs>
			<use xlink:href="#SVGID_2_"  style="overflow:visible;fill:#FFC1C1;"/>
			<clipPath id="SVGID_3_">
				<use xlink:href="#SVGID_2_"  style="overflow:visible;"/>
			</clipPath>
			<g class="st0">
				<rect x="75.36" y="291.4" class="st1" width="27.44" height="1.53"/>
			</g>
			<g class="st0">
				<rect x="79.78" y="330.35" class="st1" width="27.44" height="1.53"/>
			</g>
			<g class="st0">
				<rect x="78.01" y="372.83" class="st1" width="27.44" height="1.53"/>
			</g>
		</g>
	</g>
	<g>
		<g>
			<defs>
				<path id="SVGID_4_" d="M60.03,384.56l-1.75-145.95c0,0,24.75,15.13,20.15,35.6c-2.21,9.82-5.84,16.4,0.98,24.58
					c6.82,8.18,10,13.49,9.32,23.04c-0.68,9.54-11.66,12.69-10.3,23.59c1.36,10.91,8.35,18.99,7.11,25.63
					c-2.83,15.14-15.68,21.13-15.68,21.13L60.03,384.56z"/>
			</defs>
			<use xlink:href="#SVGID_4_"  style="overflow:visible;fill:#FFC1C1;"/>
			<clipPath id="SVGID_5_">
				<use xlink:href="#SVGID_4_"  style="overflow:visible;"/>
			</clipPath>
			<g class="st2">
				<rect x="34.25" y="268.34" class="st1" width="33.76" height="1.53"/>
			</g>
			<g class="st2">
				<rect x="39.69" y="316.27" class="st1" width="33.76" height="1.53"/>
			</g>
			<g class="st2">
				<rect x="37.52" y="368.55" class="st1" width="33.76" height="1.53"/>
			</g>
		</g>
	</g>
	<g>
		<g>
			<path class="st3" d="M125.79,397.06V226.98c0,0,28.69,17.53,23.36,41.26c-2.56,11.38-6.77,19.01,1.13,28.49
				c7.9,9.48,12.02,15.68,10.8,26.7c-1.61,14.52-13.51,14.7-11.93,27.34c1.58,12.64,10.65,22.26,8.24,29.7
				c-5.69,17.56-18.17,24.49-18.17,24.49L125.79,397.06z"/>
		</g>
		<g>
			<defs>
				<path id="SVGID_6_" d="M125.79,397.06V226.98c0,0,28.69,17.53,23.36,41.26c-2.56,11.38-6.77,19.01,1.13,28.49
					c7.9,9.48,11.59,15.64,10.8,26.7c-0.79,11.06-13.51,14.7-11.93,27.34c1.58,12.64,13.77,24.17,8.24,29.7
					c-5.53,5.53-18.17,24.49-18.17,24.49L125.79,397.06z"/>
			</defs>
			<clipPath id="SVGID_7_">
				<use xlink:href="#SVGID_6_"  style="overflow:visible;"/>
			</clipPath>
			<g class="st4">
				<rect x="107.88" y="265.49" class="st1" width="30.82" height="1.53"/>
			</g>
			<g class="st4">
				<rect x="115.84" y="318.69" class="st1" width="30.82" height="1.53"/>
			</g>
			<g class="st4">
				<rect x="107.88" y="372.38" class="st1" width="30.82" height="1.53"/>
			</g>
		</g>
	</g>
	<g>
		<defs>
			<polygon id="SVGID_8_" points="108.31,382.49 108.16,382.49 59.77,382.49 81.08,510.33 104.61,510.33 111.86,510.33 
				135.38,510.33 156.69,382.49 			"/>
		</defs>
		<use xlink:href="#SVGID_8_"  style="overflow:visible;fill:#FE958E;"/>
		<clipPath id="SVGID_9_">
			<use xlink:href="#SVGID_8_"  style="overflow:visible;"/>
		</clipPath>
		<g class="st5">
			<rect x="46.68" y="396.45" class="st1" width="131.39" height="1.53"/>
		</g>
	</g>
	<g>
		<g>
			<path class="st6" d="M436.14,389.07c4.1-0.82,15.17-9.43,24.18-33.2c5.15-13.58,19.67-83.62,0-88.54
				c-19.67-4.92-15.99,30.33-15.99,62.71C444.34,349.79,436.14,389.07,436.14,389.07z"/>
		</g>
		<g>
			<path class="st6" d="M427.12,392.35c10.35-0.69,8.2-105.34,9.02-129.93c0.82-24.59,5.74-116.41-8.2-131.16
				c-13.94-14.76-28.28-1.64-29.51,17.42c-0.58,9.04,2.46,74.8,4.1,93.66c1.64,18.85,3.69,61.48,5.33,88.54
				C409.5,357.92,414.83,393.17,427.12,392.35z"/>
		</g>
		<g>
			<path class="st6" d="M407.86,393.58c0,0-22.97-45.31-28.69-80.34c-10.25-62.71-12.3-123.79,1.64-122.97
				c13.94,0.82,14.94,62.31,15.58,88.54c1.64,68.04,17.63,110.67,17.63,110.67L407.86,393.58z"/>
		</g>
		<g>
			<path class="st7" d="M425.02,385.39h-1.53c0-13.96-2.43-54.88-2.46-55.29l1.53-0.09C422.59,330.42,425.02,371.38,425.02,385.39z"
				/>
		</g>
		<g>
			<path class="st7" d="M440.33,388.75l-1.41-0.58c0.09-0.21,8.64-21.07,13.49-39.86c4.83-18.72,3.68-36.47,3.67-36.65l1.53-0.1
				c0.01,0.18,1.18,18.17-3.71,37.13C449.02,367.58,440.42,388.54,440.33,388.75z"/>
		</g>
		<g>
			<path class="st8" d="M418.11,330.87c0,1.7,1.38,3.07,3.07,3.07c1.7,0,3.07-1.38,3.07-3.07c0-1.7-1.38-3.07-3.07-3.07
				C419.48,327.8,418.11,329.17,418.11,330.87z"/>
		</g>
		<g>
			<path class="st8" d="M453.77,312.02c0,1.7,1.38,3.07,3.07,3.07c1.7,0,3.07-1.38,3.07-3.07c0-1.7-1.38-3.07-3.07-3.07
				C455.14,308.94,453.77,310.32,453.77,312.02z"/>
		</g>
		<g>
			<path class="st8" d="M381.42,284.55c0,1.7,1.38,3.07,3.07,3.07c1.7,0,3.07-1.38,3.07-3.07c0-1.7-1.38-3.07-3.07-3.07
				C382.8,281.48,381.42,282.86,381.42,284.55z"/>
		</g>
	</g>
	<g>
		<path class="st9" d="M383.23,301.69V81.05c0-8.58-6.96-15.54-15.54-15.54h-121.2c-8.58,0-15.54,6.96-15.54,15.54v218.16
			L383.23,301.69z"/>
	</g>
	<g>
		<path class="st3" d="M377.84,380.42c-0.08,1.05-0.13,2.1-0.13,3.17c0,23.36,18.94,42.3,42.3,42.3c23.36,0,42.3-18.94,42.3-42.3
			c0-1.07-0.05-2.12-0.13-3.17H377.84z"/>
	</g>
	<g>
		<path class="st3" d="M377.84,423.32c-0.08,1.05-0.13,2.1-0.13,3.17c0,23.36,18.94,42.3,42.3,42.3c23.36,0,42.3-18.94,42.3-42.3
			c0-1.07-0.05-2.12-0.13-3.17H377.84z"/>
	</g>
	<g>
		<path class="st3" d="M377.84,466.67c-0.08,1.05-0.13,2.1-0.13,3.17c0,23.36,18.94,42.3,42.3,42.3c23.36,0,42.3-18.94,42.3-42.3
			c0-1.07-0.05-2.12-0.13-3.17H377.84z"/>
	</g>
	<g>
		<g>
			
				<ellipse transform="matrix(0.1614 -0.9869 0.9869 0.1614 -14.198 219.3276)" class="st3" cx="121.95" cy="118.02" rx="80.29" ry="80.29"/>
		</g>
		<g>
			<defs>
				
					<ellipse id="SVGID_10_" transform="matrix(0.1607 -0.987 0.987 0.1607 -14.1254 219.4249)" cx="121.95" cy="118.02" rx="66.74" ry="66.74"/>
			</defs>
			<use xlink:href="#SVGID_10_"  style="overflow:visible;fill:#FFFFFF;"/>
			<clipPath id="SVGID_11_">
				<use xlink:href="#SVGID_10_"  style="overflow:visible;"/>
			</clipPath>
			<g class="st10">
				<rect x="111.53" y="21.71" class="st11" width="20.76" height="58.13"/>
			</g>
			<g class="st10">
				
					<rect x="77.92" y="30.74" transform="matrix(0.866 -0.5 0.5 0.866 -18.0725 52.1621)" class="st11" width="20.76" height="58.13"/>
			</g>
			<g class="st10">
				
					<rect x="53.32" y="55.36" transform="matrix(0.5 -0.866 0.866 0.5 -41.2679 97.3859)" class="st11" width="20.76" height="58.13"/>
			</g>
			<g class="st10">
				<rect x="25.65" y="107.68" class="st11" width="58.13" height="20.76"/>
			</g>
			<g class="st10">
				
					<rect x="34.68" y="141.29" transform="matrix(0.866 -0.5 0.5 0.866 -67.2965 52.192)" class="st11" width="58.13" height="20.76"/>
			</g>
			<g class="st10">
				
					<rect x="59.3" y="165.89" transform="matrix(0.5 -0.866 0.866 0.5 -108.4697 164.6654)" class="st11" width="58.13" height="20.76"/>
			</g>
			<g class="st10">
				<rect x="111.61" y="156.19" class="st11" width="20.76" height="58.13"/>
			</g>
			<g class="st10">
				
					<rect x="145.23" y="147.16" transform="matrix(0.866 -0.5 0.5 0.866 -67.268 101.4164)" class="st11" width="20.76" height="58.13"/>
			</g>
			<g class="st10">
				
					<rect x="169.83" y="122.54" transform="matrix(0.5 -0.866 0.866 0.5 -41.1884 231.87)" class="st11" width="20.76" height="58.13"/>
			</g>
			<g class="st10">
				<rect x="160.13" y="107.6" class="st11" width="58.13" height="20.76"/>
			</g>
			<g class="st10">
				
					<rect x="151.1" y="73.98" transform="matrix(0.866 -0.5 0.5 0.866 -18.0441 101.3865)" class="st11" width="58.13" height="20.76"/>
			</g>
			<g class="st10">
				
					<rect x="126.47" y="49.39" transform="matrix(0.5 -0.866 0.866 0.5 26.0121 164.5867)" class="st11" width="58.13" height="20.76"/>
			</g>
		</g>
		<g>
			<path class="st6" d="M124.42,59.93c0,1.36-1.1,2.46-2.46,2.46s-2.46-1.1-2.46-2.46s1.1-2.46,2.46-2.46S124.42,58.57,124.42,59.93
				z"/>
		</g>
		<g>
			<path class="st6" d="M95.05,66.49c0.68,1.18,0.28,2.68-0.9,3.36c-1.18,0.68-2.68,0.28-3.36-0.9c-0.68-1.18-0.28-2.68,0.9-3.36
				C92.86,64.9,94.37,65.31,95.05,66.49z"/>
		</g>
		<g>
			<path class="st6" d="M72.88,86.84c1.18,0.68,1.58,2.19,0.9,3.36c-0.68,1.18-2.19,1.58-3.36,0.9c-1.18-0.68-1.58-2.19-0.9-3.36
				C70.2,86.57,71.71,86.16,72.88,86.84z"/>
		</g>
		<g>
			<path class="st6" d="M63.87,115.56c1.36,0,2.46,1.1,2.46,2.46s-1.1,2.46-2.46,2.46c-1.36,0-2.46-1.1-2.46-2.46
				S62.51,115.56,63.87,115.56z"/>
		</g>
		<g>
			<path class="st6" d="M70.42,144.93c1.18-0.68,2.68-0.28,3.36,0.9c0.68,1.18,0.28,2.68-0.9,3.36c-1.18,0.68-2.68,0.28-3.36-0.9
				C68.84,147.11,69.24,145.61,70.42,144.93z"/>
		</g>
		<g>
			<path class="st6" d="M90.78,167.09c0.68-1.18,2.19-1.58,3.36-0.9c1.18,0.68,1.58,2.19,0.9,3.36c-0.68,1.18-2.19,1.58-3.36,0.9
				C90.5,169.77,90.1,168.27,90.78,167.09z"/>
		</g>
		<g>
			<path class="st6" d="M119.49,176.1c0-1.36,1.1-2.46,2.46-2.46s2.46,1.1,2.46,2.46c0,1.36-1.1,2.46-2.46,2.46
				S119.49,177.46,119.49,176.1z"/>
		</g>
		<g>
			<path class="st6" d="M148.86,169.55c-0.68-1.18-0.28-2.68,0.9-3.36c1.18-0.68,2.68-0.28,3.36,0.9s0.28,2.68-0.9,3.36
				C151.05,171.13,149.54,170.73,148.86,169.55z"/>
		</g>
		<g>
			<path class="st6" d="M171.03,149.19c-1.18-0.68-1.58-2.19-0.9-3.36c0.68-1.18,2.19-1.58,3.36-0.9c1.18,0.68,1.58,2.19,0.9,3.36
				C173.71,149.47,172.2,149.87,171.03,149.19z"/>
		</g>
		<g>
			<path class="st6" d="M180.04,120.48c-1.36,0-2.46-1.1-2.46-2.46s1.1-2.46,2.46-2.46c1.36,0,2.46,1.1,2.46,2.46
				S181.4,120.48,180.04,120.48z"/>
		</g>
		<g>
			<path class="st6" d="M173.49,91.11c-1.18,0.68-2.68,0.28-3.36-0.9c-0.68-1.18-0.28-2.68,0.9-3.36c1.18-0.68,2.68-0.28,3.36,0.9
				C175.07,88.92,174.67,90.43,173.49,91.11z"/>
		</g>
		<g>
			
				<ellipse transform="matrix(0.1608 -0.987 0.987 0.1608 -14.1375 219.4088)" class="st8" cx="121.95" cy="118.02" rx="41.18" ry="41.18"/>
		</g>
		<g>
			<path class="st6" d="M153.13,68.95c-0.68,1.18-2.19,1.58-3.36,0.9c-1.18-0.68-1.58-2.19-0.9-3.36c0.68-1.18,2.19-1.58,3.36-0.9
				C153.4,66.26,153.81,67.77,153.13,68.95z"/>
		</g>
		<g>
			
				<rect x="104.98" y="93.32" transform="matrix(0.4686 -0.8834 0.8834 0.4686 -38.8687 152.7538)" class="st6" width="5.13" height="30.73"/>
		</g>
		<g>
			
				<rect x="119.93" y="103.78" transform="matrix(0.8757 -0.4829 0.4829 0.8757 -33.2508 82.1995)" class="st6" width="46.2" height="3.8"/>
		</g>
		<g>
			<path class="st12" d="M133.65,118.02c0,6.46-5.24,11.7-11.7,11.7c-6.46,0-11.7-5.24-11.7-11.7c0-6.46,5.24-11.7,11.7-11.7
				C128.42,106.32,133.65,111.56,133.65,118.02z"/>
		</g>
	</g>
	<g>
		<rect x="303.24" y="351.27" class="st11" width="22.27" height="85.25"/>
	</g>
	<g>
		<rect x="307.84" y="411.94" class="st11" width="13.06" height="85.25"/>
	</g>
	<g>
		<path class="st9" d="M234.46,362.02h142.3c7.45,0,13.49-5.04,13.49-11.26v-10.24c0-6.22-6.04-11.26-13.49-11.26h-142.3
			c-7.45,0-13.49,5.04-13.49,11.26v10.24C220.96,356.97,227,362.02,234.46,362.02z"/>
	</g>
	<g>
		<path class="st13" d="M234.46,331.98h142.3c7.45,0,13.49-5.04,13.49-11.26v-10.24c0-6.22-6.04-11.26-13.49-11.26h-142.3
			c-7.45,0-13.49,5.04-13.49,11.26v10.24C220.96,326.93,227,331.98,234.46,331.98z"/>
	</g>
	<g>
		<g>
			<path class="st11" d="M378.27,498.75c4.1-6.32,6.18-13.1,6.18-20.13c0-26.8-31.44-48.6-70.08-48.6
				c-38.64,0-70.08,21.8-70.08,48.6c0,6.51,1.79,12.82,5.33,18.76l10.3-6.14c-2.42-4.05-3.64-8.3-3.64-12.62
				c0-19.85,26.6-36.62,58.09-36.62c31.49,0,58.09,16.77,58.09,36.62c0,4.68-1.43,9.26-4.25,13.61L378.27,498.75z"/>
		</g>
	</g>
	<g>
		<path class="st13" d="M389.22,497.57c0-7.85-6.36-14.21-14.21-14.21c-7.85,0-14.21,6.36-14.21,14.21
			c0,7.85,6.36,14.21,14.21,14.21C382.86,511.78,389.22,505.42,389.22,497.57z"/>
	</g>
	<g>
		<path class="st13" d="M329.32,497.57c0-7.85-6.36-14.21-14.21-14.21c-7.85,0-14.21,6.36-14.21,14.21
			c0,7.85,6.36,14.21,14.21,14.21C322.96,511.78,329.32,505.42,329.32,497.57z"/>
	</g>
	<g>
		<path class="st6" d="M209.62,262.92h146.41v35.13c0,19.02-15.42,34.44-34.44,34.44H209.62c-19.02,0-34.44-15.42-34.44-34.44v-0.7
			C175.18,278.34,190.6,262.92,209.62,262.92z"/>
	</g>
	<g>
		<path class="st6" d="M177.31,290.07l-18.03,200.69h26.52c0,0,42.43-130.68,46.67-173.11c4.24-42.43-26.52-35-26.52-35
			L177.31,290.07z"/>
	</g>
	<g>
		<path class="st6" d="M261.1,290.07l-18.03,200.69h26.52c0,0,42.43-130.68,46.67-173.11c4.24-42.43-26.52-35-26.52-35L261.1,290.07
			z"/>
	</g>
	<g>
		<path class="st13" d="M159.8,490.76h25.99v19.93h-52.71c-3.48,0-4.67-7.82-1.63-9.5L159.8,490.76z"/>
	</g>
	<g>
		<path class="st13" d="M243.07,490.76h25.99v19.93h-52.71c-3.48,0-4.67-7.82-1.63-9.5L243.07,490.76z"/>
	</g>
	<g>
		<path class="st14" d="M355.75,262.26h-95.82l-11.96-141.95c-1.07-12.72,8.96-23.63,21.72-23.63h76.29
			c12.76,0,22.8,10.91,21.72,23.63L355.75,262.26z"/>
	</g>
	<g>
		<path class="st15" d="M313.89,105.52h-14.88c-4.62,0-8.37-4.22-8.37-9.43V77.74c0-5.21,3.75-9.43,8.37-9.43h14.88
			c4.62,0,8.37,4.22,8.37,9.43v18.34C322.26,101.29,318.51,105.52,313.89,105.52z"/>
	</g>
	<g>
		<path class="st16" d="M278.11,81.49c13.45,16.25,27.79,6.74,44.04-6.71c16.25-13.45,18.51-37.53,5.06-53.78
			c-13.46-16.25-37.53-18.51-53.78-5.06C257.17,29.4,264.66,65.25,278.11,81.49z"/>
	</g>
	<g>
		<polygon class="st14" points="250.17,109.7 204.68,187.9 240.06,202.91 268.23,156.63 		"/>
	</g>
	<g>
		<path class="st14" d="M367.29,100.3c44.58,38.77,54.75,90.1,54.75,90.1c2.77,5.93,0.64,15.39-5.58,17.44L329.6,251.2l-12.09-20.47
			l60.81-46.3l-44.68-48.16l2.32-39.45C335.96,96.82,360.61,94.5,367.29,100.3z"/>
	</g>
	<g>
		<defs>
			<path id="SVGID_12_" d="M355.75,262.26h-95.82l-11.96-141.95c-1.07-12.72,8.96-23.63,21.72-23.63h76.29
				c12.76,0,22.8,10.91,21.72,23.63L355.75,262.26z"/>
		</defs>
		<clipPath id="SVGID_13_">
			<use xlink:href="#SVGID_12_"  style="overflow:visible;"/>
		</clipPath>
		<g class="st17">
			
				<rect x="306.43" y="212.53" transform="matrix(0.7168 -0.6973 0.6973 0.7168 -51.8649 298.899)" class="st1" width="71.16" height="1.53"/>
		</g>
		<g class="st17">
			
				<rect x="320.78" y="239.12" transform="matrix(0.8852 -0.4652 0.4652 0.8852 -70.9851 192.0939)" class="st1" width="65.92" height="1.53"/>
		</g>
	</g>
	<g>
		<rect x="183.01" y="250.59" class="st9" width="149.56" height="12.67"/>
	</g>
	<g>
		<path class="st16" d="M331.19,250.95h-38.14l-2.79-16.74h28.79c5.39,0,10,3.9,10.89,9.22L331.19,250.95z"/>
	</g>
	<g>
		<g>
			<polygon class="st9" points="303.21,251.12 183.11,251.12 166.64,176.76 286.73,176.76 			"/>
		</g>
	</g>
	<g>
		<path class="st6" d="M240.48,215.94c0,4.37-3.54,7.91-7.91,7.91c-4.37,0-7.91-3.54-7.91-7.91c0-4.37,3.54-7.91,7.91-7.91
			C236.94,208.03,240.48,211.57,240.48,215.94z"/>
	</g>
	<g>
		<path class="st12" d="M333.54,60.74c-1.22,2.7-10.18,3.49-7.81-4.23c2.9-9.45,3.1-23.73-7.42-21.76
			c-10.52,1.97-2.94,12.3-7.21,14.13c-4.27,1.83-7.04-14.97-12.29-22.82c-5.25-7.85-26.67,2.57-38.02,5.54
			c-11.35,2.96-22.5-19.4,6.34-27.96c19.43-5.76,35.31-5.96,54.58,6.62C336.3,19.78,341.32,43.52,333.54,60.74z"/>
	</g>
</g>
</svg>
