<?xml version="1.0" encoding="utf-8"?>
<!-- Generator: Adobe Illustrator 23.0.2, SVG Export Plug-In . SVG Version: 6.00 Build 0)  -->
<svg version="1.1" id="Capa_1" xmlns="http://www.w3.org/2000/svg" xmlns:xlink="http://www.w3.org/1999/xlink" x="0px" y="0px"
	 viewBox="0 0 512 512" style="enable-background:new 0 0 512 512;" xml:space="preserve">
<style type="text/css">
	.Sombra_x0020_paralela{fill:none;}
	.Resplandor_x0020_externo_x0020_5_x0020_pt_x002E_{fill:none;}
	.Neón_x0020_azul{fill:none;stroke:#8AACDA;stroke-width:7;stroke-linecap:round;stroke-linejoin:round;}
	.Resalte_x0020_cromado{fill:url(#SVGID_1_);stroke:#FFFFFF;stroke-width:0.3629;stroke-miterlimit:1;}
	.A_x0020_todo_x0020_ritmo_GS{fill:#FFDD00;}
	.Alyssa_GS{fill:#A6D0E4;}
	.st0{fill:#FFC1C1;}
	.st1{fill:#03053F;}
	.st2{fill:#A4B8EA;}
	.st3{fill:#BBBBBB;}
	.st4{fill:#425AC2;}
	.st5{fill:#FE958E;}
	.st6{fill:#F97B78;}
	.st7{fill:#112256;}
	.st8{fill:#FFB3B6;}
	.st9{clip-path:url(#SVGID_3_);}
	.st10{fill:#E98896;}
	.st11{clip-path:url(#SVGID_5_);}
</style>
<linearGradient id="SVGID_1_" gradientUnits="userSpaceOnUse" x1="0" y1="0" x2="6.123234e-17" y2="-1">
	<stop  offset="0" style="stop-color:#656565"/>
	<stop  offset="0.618" style="stop-color:#1B1B1B"/>
	<stop  offset="0.6292" style="stop-color:#545454"/>
	<stop  offset="0.9831" style="stop-color:#3E3E3E"/>
</linearGradient>
<g>
	<g>
		<path class="st0" d="M170.66,122.32c-0.23,9.87-12.86,35.13-12.86,35.13s-14.02-25.89-13.79-35.76
			c0.23-9.87,15.52-37.67,15.52-37.67S170.9,112.45,170.66,122.32z"/>
	</g>
	<g>
		<path class="st0" d="M99.59,140.69c6.66,7.29,15.02,34.26,15.02,34.26s-28.03-9-34.69-16.29c-6.66-7.29-14.85-37.94-14.85-37.94
			S92.94,133.4,99.59,140.69z"/>
	</g>
	<g>
		<path class="st0" d="M213.25,140.69c-6.66,7.29-15.02,34.26-15.02,34.26s28.03-9,34.69-16.29c6.66-7.29,14.85-37.94,14.85-37.94
			S219.91,133.4,213.25,140.69z"/>
	</g>
	<g>
		<rect x="157.26" y="117.89" class="st1" width="0.98" height="230.85"/>
	</g>
	<g>
		<path class="st1" d="M140.28,346.73c-0.04-0.98-3.95-98.35-9.5-131.66c-6.68-40.07-44.92-69.33-45.3-69.62l0.59-0.78
			c0.39,0.29,38.93,29.78,45.68,70.24c5.56,33.37,9.47,130.8,9.51,131.78L140.28,346.73z"/>
	</g>
	<g>
		<path class="st1" d="M174.19,346.73l-0.98-0.04c0.04-0.98,3.95-98.41,9.51-131.78c6.74-40.46,45.29-69.95,45.68-70.24l0.59,0.78
			c-0.38,0.29-38.62,29.55-45.3,69.62C178.14,248.37,174.23,345.75,174.19,346.73z"/>
	</g>
	<g>
		<path class="st2" d="M172.88,336.04h-35.62c0,0-7.87,3.69-8.8,15.66c-1.7,21.81,11.96,60.18,11.96,60.18h33.61
			c0,0,11.17-45.79,8.7-60.18C180.75,340.15,172.88,336.04,172.88,336.04z"/>
	</g>
	<g>
		<path class="st1" d="M88.96,145.98c0,1.2-0.97,2.16-2.16,2.16s-2.16-0.97-2.16-2.16c0-1.2,0.97-2.16,2.16-2.16
			S88.96,144.79,88.96,145.98z"/>
	</g>
	<g>
		<circle class="st1" cx="157.83" cy="117.47" r="2.16"/>
	</g>
	<g>
		<path class="st1" d="M229.89,145.47c0,1.2-0.97,2.16-2.16,2.16c-1.2,0-2.16-0.97-2.16-2.16c0-1.2,0.97-2.16,2.16-2.16
			C228.92,143.31,229.89,144.28,229.89,145.47z"/>
	</g>
	<g>
		<path class="st3" d="M29.51,419.63c0-4.53,3.68-8.21,8.21-8.21h229.84c4.53,0,8.21,3.68,8.21,8.21l0,0c0,4.53-3.68,8.21-8.21,8.21
			H37.72C33.18,427.84,29.51,424.16,29.51,419.63L29.51,419.63z"/>
	</g>
	<g>
		<path class="st3" d="M256.45,160.29c0-4.53,3.01-8.21,6.72-8.21H451.2c3.71,0,6.72,3.67,6.72,8.21l0,0c0,4.53-3.01,8.21-6.72,8.21
			H263.16C259.45,168.5,256.45,164.82,256.45,160.29L256.45,160.29z"/>
	</g>
	<g>
		<path class="st3" d="M265.69,251.37c0-4.53,3.68-8.21,8.21-8.21h229.84c4.53,0,8.21,3.67,8.21,8.21l0,0
			c0,4.53-3.68,8.21-8.21,8.21H273.9C269.37,259.57,265.69,255.9,265.69,251.37L265.69,251.37z"/>
	</g>
	<g>
		<path class="st3" d="M214.75,296.13c0-4.53,3.68-8.21,8.21-8.21H452.8c4.53,0,8.21,3.68,8.21,8.21l0,0c0,4.53-3.68,8.21-8.21,8.21
			H222.96C218.43,304.34,214.75,300.67,214.75,296.13L214.75,296.13z"/>
	</g>
	<g>
		<path class="st2" d="M29.86,254.78c3.81,3.07,10.52,46.48,9.16,51.56c-1.36,5.08-19.05,35.48-19.38,37.09
			c-0.32,1.61-7.39-3.17-7.78-3.75c-0.38-0.58,14.87-33.82,13.71-35.56c-1.15-1.74-10.1-37.45-10.67-39.98
			C13.95,259.83,19.07,246.07,29.86,254.78z"/>
	</g>
	<g>
		<g>
			
				<ellipse transform="matrix(0.7071 -0.7071 0.7071 0.7071 -116.8952 289.276)" class="st4" cx="290.74" cy="285.74" rx="142.23" ry="142.23"/>
		</g>
		<g>
			
				<ellipse transform="matrix(0.9952 -0.0982 0.0982 0.9952 -26.6449 29.9195)" class="st0" cx="290.74" cy="285.74" rx="118.23" ry="118.23"/>
		</g>
		<g>
			<path class="st5" d="M230.09,202.5c1.5,1.89,1.19,4.63-0.7,6.13c-1.89,1.5-4.63,1.19-6.13-0.7c-1.5-1.89-1.19-4.63,0.7-6.13
				C225.85,200.3,228.59,200.62,230.09,202.5z"/>
		</g>
		<g>
			<path class="st5" d="M196.6,243.98c2.24,0.88,3.34,3.42,2.46,5.66c-0.88,2.24-3.42,3.34-5.66,2.46
				c-2.24-0.88-3.34-3.42-2.46-5.66C191.82,244.2,194.36,243.09,196.6,243.98z"/>
		</g>
		<g>
			<path class="st5" d="M188.33,296.64c2.38-0.36,4.6,1.29,4.96,3.67c0.36,2.38-1.29,4.6-3.67,4.96c-2.38,0.36-4.6-1.29-4.96-3.67
				C184.3,299.22,185.95,297,188.33,296.64z"/>
		</g>
		<g>
			<path class="st5" d="M207.5,346.39c1.89-1.5,4.63-1.19,6.13,0.7c1.5,1.89,1.19,4.63-0.7,6.13c-1.89,1.5-4.63,1.19-6.13-0.7
				C205.3,350.63,205.61,347.89,207.5,346.39z"/>
		</g>
		<g>
			<path class="st5" d="M248.97,379.88c0.88-2.24,3.42-3.34,5.66-2.46c2.24,0.88,3.34,3.42,2.46,5.66
				c-0.88,2.24-3.42,3.34-5.66,2.46C249.19,384.66,248.09,382.13,248.97,379.88z"/>
		</g>
		<g>
			<path class="st5" d="M301.64,388.15c-0.36-2.38,1.29-4.6,3.67-4.96c2.38-0.36,4.6,1.29,4.96,3.67c0.36,2.38-1.29,4.6-3.67,4.96
				C304.22,392.18,302,390.54,301.64,388.15z"/>
		</g>
		<g>
			<path class="st5" d="M351.39,368.98c-1.5-1.89-1.19-4.63,0.7-6.13c1.88-1.5,4.63-1.19,6.13,0.7s1.19,4.63-0.7,6.13
				C355.63,371.18,352.89,370.87,351.39,368.98z"/>
		</g>
		<g>
			<path class="st5" d="M384.88,327.51c-2.24-0.88-3.34-3.42-2.46-5.66c0.88-2.24,3.42-3.34,5.66-2.46
				c2.24,0.88,3.34,3.42,2.46,5.66C389.65,327.29,387.12,328.39,384.88,327.51z"/>
		</g>
		<g>
			<path class="st5" d="M393.15,274.84c-2.38,0.36-4.6-1.29-4.96-3.67c-0.36-2.38,1.29-4.6,3.67-4.96c2.38-0.36,4.6,1.29,4.96,3.67
				C397.18,272.27,395.53,274.49,393.15,274.84z"/>
		</g>
		<g>
			<path class="st5" d="M373.98,225.1c-1.89,1.5-4.63,1.19-6.13-0.7c-1.5-1.89-1.19-4.63,0.7-6.13c1.89-1.5,4.63-1.19,6.13,0.7
				C376.18,220.85,375.87,223.6,373.98,225.1z"/>
		</g>
		<g>
			<path class="st5" d="M332.5,191.6c-0.88,2.24-3.42,3.34-5.66,2.46c-2.24-0.88-3.34-3.42-2.46-5.66c0.88-2.24,3.42-3.34,5.66-2.46
				C332.29,186.83,333.39,189.36,332.5,191.6z"/>
		</g>
		<g>
			<path class="st5" d="M279.84,183.33c0.36,2.38-1.29,4.6-3.67,4.96c-2.38,0.36-4.6-1.29-4.96-3.67c-0.36-2.38,1.29-4.6,3.67-4.96
				C277.26,179.31,279.48,180.95,279.84,183.33z"/>
		</g>
		<g>
			
				<rect x="233.24" y="284.16" transform="matrix(0.9893 -0.1461 0.1461 0.9893 -39.3739 41.1394)" class="st1" width="54.45" height="9.09"/>
		</g>
		<g>
			
				<rect x="265.43" y="242.03" transform="matrix(0.3847 -0.923 0.923 0.3847 -38.0165 433.7675)" class="st1" width="81.85" height="6.74"/>
		</g>
		<g>
			<path class="st5" d="M306.96,272.84c7.13,8.96,5.64,21.99-3.32,29.12c-8.96,7.13-21.99,5.64-29.12-3.32
				c-7.13-8.96-5.64-21.99,3.32-29.12C286.79,262.4,299.83,263.88,306.96,272.84z"/>
		</g>
	</g>
	<g>
		<path class="st6" d="M76.2,306.77l-44.9,45.39c-2.74,2.85-3.19,7.19-1.1,10.55l34.95,48.33l8.68-1.12l-19.39-47.92l30.79-24.37
			L76.2,306.77z"/>
	</g>
	<g>
		<path class="st7" d="M139.08,384.87l3.19-8.88l6.81,2.45l-6.48,18.01c-0.43,1.19-3.25,0.64-3.45-0.61L139.08,384.87z"/>
	</g>
	<g>
		<path class="st7" d="M64.4,409.98l9.44-0.07l0.06,7.24l-19.14,0.15c-1.26,0.01-1.72-2.83-0.62-3.45L64.4,409.98z"/>
	</g>
	<g>
		<path class="st5" d="M101.08,281.87l-35.09,33.26l20.75,52.38l52.38,17.74l3.51-8.87l-38.66-20.08c0,0,8.03-27.45,3.35-55.23
			C106.4,295.6,101.08,281.87,101.08,281.87z"/>
	</g>
	<g>
		<path class="st2" d="M66.33,316.47l-36.2-32.64c-8.85-2.67-19.21-20.55-13.83-27.54c6.3-8.19,16.82-12.79,27.27-24.58
			c7.78-8.79,18.04-0.65,24.43,8.95l33.09,41.21L66.33,316.47z"/>
	</g>
	<g>
		<path class="st8" d="M19.64,343.44l-7.78-3.75c0,0-5.65,4.4-3.94,7.91C10.93,353.79,19.64,343.44,19.64,343.44z"/>
	</g>
	<g>
		<defs>
			<path id="SVGID_2_" d="M66.33,316.47l-36.2-32.64c-8.85-2.67-19.21-20.55-13.83-27.54c6.3-8.19,16.82-12.79,27.27-24.58
				c7.78-8.79,18.04-0.65,24.43,8.95l33.09,41.21L66.33,316.47z"/>
		</defs>
		<clipPath id="SVGID_3_">
			<use xlink:href="#SVGID_2_"  style="overflow:visible;"/>
		</clipPath>
		<g class="st9">
			<g>
				<g>
					
						<rect x="47.47" y="213.14" transform="matrix(0.0322 -0.9995 0.9995 0.0322 -158.105 266.2837)" class="st1" width="21.95" height="3.27"/>
				</g>
				<g>
					
						<rect x="47.09" y="212.82" transform="matrix(0.0322 -0.9995 0.9995 0.0322 -176.5293 265.2974)" class="st1" width="3.27" height="21.95"/>
				</g>
				<g>
					
						<rect x="28.09" y="231.32" transform="matrix(0.0322 -0.9995 0.9995 0.0322 -195.0312 264.5042)" class="st1" width="21.95" height="3.27"/>
				</g>
				<g>
					
						<rect x="27.7" y="231" transform="matrix(0.0322 -0.9995 0.9995 0.0322 -213.4565 263.5136)" class="st1" width="3.27" height="21.95"/>
				</g>
				<g>
					
						<rect x="8.67" y="249.53" transform="matrix(0.0322 -0.9995 0.9995 0.0322 -232.0255 262.7172)" class="st1" width="21.95" height="3.27"/>
				</g>
				<g>
					
						<rect x="8.28" y="249.21" transform="matrix(0.0322 -0.9995 0.9995 0.0322 -250.4508 261.7263)" class="st1" width="3.27" height="21.95"/>
				</g>
				<g>
					
						<rect x="-10.72" y="267.7" transform="matrix(0.0322 -0.9995 0.9995 0.0322 -268.9526 260.9305)" class="st1" width="21.95" height="3.27"/>
				</g>
				<g>
					
						<rect x="-11.1" y="267.38" transform="matrix(0.0322 -0.9995 0.9995 0.0322 -287.3781 259.9424)" class="st1" width="3.27" height="21.95"/>
				</g>
			</g>
			<g>
				<g>
					
						<rect x="55.21" y="221.39" transform="matrix(0.0322 -0.9995 0.9995 0.0322 -158.8636 282.0009)" class="st1" width="21.95" height="3.27"/>
				</g>
				<g>
					
						<rect x="54.82" y="221.07" transform="matrix(0.0322 -0.9995 0.9995 0.0322 -177.2889 281.0102)" class="st1" width="3.27" height="21.95"/>
				</g>
				<g>
					
						<rect x="35.82" y="239.57" transform="matrix(0.0322 -0.9995 0.9995 0.0322 -195.7908 280.2169)" class="st1" width="21.95" height="3.27"/>
				</g>
				<g>
					
						<rect x="35.44" y="239.25" transform="matrix(0.0322 -0.9995 0.9995 0.0322 -214.2163 279.2236)" class="st1" width="3.27" height="21.95"/>
				</g>
				<g>
					
						<rect x="16.4" y="257.78" transform="matrix(0.0322 -0.9995 0.9995 0.0322 -232.7845 278.4319)" class="st1" width="21.95" height="3.27"/>
				</g>
				<g>
					
						<rect x="16.02" y="257.46" transform="matrix(0.0322 -0.9995 0.9995 0.0322 -251.21 277.4388)" class="st1" width="3.27" height="21.95"/>
				</g>
				<g>
					
						<rect x="-2.98" y="275.95" transform="matrix(0.0322 -0.9995 0.9995 0.0322 -269.712 276.6481)" class="st1" width="21.95" height="3.27"/>
				</g>
				<g>
					
						<rect x="-3.37" y="275.63" transform="matrix(0.0322 -0.9995 0.9995 0.0322 -288.1372 275.6547)" class="st1" width="3.27" height="21.95"/>
				</g>
			</g>
			<g>
				<g>
					
						<rect x="62.94" y="229.64" transform="matrix(0.0322 -0.9995 0.9995 0.0322 -159.6222 297.7184)" class="st1" width="21.95" height="3.27"/>
				</g>
				<g>
					
						<rect x="62.56" y="229.32" transform="matrix(0.0322 -0.9995 0.9995 0.0322 -178.0476 296.7276)" class="st1" width="3.27" height="21.95"/>
				</g>
				<g>
					
						<rect x="43.56" y="247.82" transform="matrix(0.0322 -0.9995 0.9995 0.0322 -196.5496 295.9343)" class="st1" width="21.95" height="3.27"/>
				</g>
				<g>
					
						<rect x="43.17" y="247.5" transform="matrix(0.0322 -0.9995 0.9995 0.0322 -214.9748 294.9435)" class="st1" width="3.27" height="21.95"/>
				</g>
				<g>
					
						<rect x="24.14" y="266.03" transform="matrix(0.0322 -0.9995 0.9995 0.0322 -233.5437 294.1473)" class="st1" width="21.95" height="3.27"/>
				</g>
				<g>
					
						<rect x="23.75" y="265.71" transform="matrix(0.0322 -0.9995 0.9995 0.0322 -251.9691 293.1566)" class="st1" width="3.27" height="21.95"/>
				</g>
				<g>
					
						<rect x="4.75" y="284.2" transform="matrix(0.0322 -0.9995 0.9995 0.0322 -270.471 292.3633)" class="st1" width="21.95" height="3.27"/>
				</g>
				<g>
					
						<rect x="4.37" y="283.88" transform="matrix(0.0322 -0.9995 0.9995 0.0322 -288.8963 291.3727)" class="st1" width="3.27" height="21.95"/>
				</g>
			</g>
			<g>
				<g>
					
						<rect x="70.68" y="237.89" transform="matrix(0.0322 -0.9995 0.9995 0.0322 -160.3828 313.4284)" class="st1" width="21.95" height="3.27"/>
				</g>
				<g>
					
						<rect x="70.29" y="237.57" transform="matrix(0.0322 -0.9995 0.9995 0.0322 -178.8067 312.4425)" class="st1" width="3.27" height="21.95"/>
				</g>
				<g>
					
						<rect x="51.29" y="256.07" transform="matrix(0.0322 -0.9995 0.9995 0.0322 -197.3087 311.6492)" class="st1" width="21.95" height="3.27"/>
				</g>
				<g>
					
						<rect x="50.91" y="255.75" transform="matrix(0.0322 -0.9995 0.9995 0.0322 -215.7344 310.656)" class="st1" width="3.27" height="21.95"/>
				</g>
				<g>
					
						<rect x="31.87" y="274.28" transform="matrix(0.0322 -0.9995 0.9995 0.0322 -234.3032 309.8595)" class="st1" width="21.95" height="3.27"/>
				</g>
				<g>
					
						<rect x="31.49" y="273.96" transform="matrix(0.0322 -0.9995 0.9995 0.0322 -252.7283 308.8716)" class="st1" width="3.27" height="21.95"/>
				</g>
				<g>
					
						<rect x="12.49" y="292.45" transform="matrix(0.0322 -0.9995 0.9995 0.0322 -271.2302 308.0757)" class="st1" width="21.95" height="3.27"/>
				</g>
				<g>
					
						<rect x="12.1" y="292.13" transform="matrix(0.0322 -0.9995 0.9995 0.0322 -289.6556 307.0817)" class="st1" width="3.27" height="21.95"/>
				</g>
			</g>
			<g>
				<g>
					
						<rect x="78.41" y="246.14" transform="matrix(0.0322 -0.9995 0.9995 0.0322 -161.1406 329.1482)" class="st1" width="21.95" height="3.27"/>
				</g>
				<g>
					
						<rect x="78.03" y="245.82" transform="matrix(0.0322 -0.9995 0.9995 0.0322 -179.566 328.1576)" class="st1" width="3.27" height="21.95"/>
				</g>
				<g>
					
						<rect x="59.03" y="264.32" transform="matrix(0.0322 -0.9995 0.9995 0.0322 -198.0685 327.3618)" class="st1" width="21.95" height="3.27"/>
				</g>
				<g>
					
						<rect x="58.64" y="264" transform="matrix(0.0322 -0.9995 0.9995 0.0322 -216.4932 326.3736)" class="st1" width="3.27" height="21.95"/>
				</g>
				<g>
					
						<rect x="39.61" y="282.53" transform="matrix(0.0322 -0.9995 0.9995 0.0322 -235.0621 325.5771)" class="st1" width="21.95" height="3.27"/>
				</g>
				<g>
					
						<rect x="39.22" y="282.21" transform="matrix(0.0322 -0.9995 0.9995 0.0322 -253.4874 324.5866)" class="st1" width="3.27" height="21.95"/>
				</g>
				<g>
					
						<rect x="20.22" y="300.7" transform="matrix(0.0322 -0.9995 0.9995 0.0322 -271.9898 323.7876)" class="st1" width="21.95" height="3.27"/>
				</g>
				<g>
					
						<rect x="19.84" y="300.38" transform="matrix(0.0322 -0.9995 0.9995 0.0322 -290.4147 322.8026)" class="st1" width="3.27" height="21.95"/>
				</g>
			</g>
			<g>
				<g>
					
						<rect x="86.15" y="254.39" transform="matrix(0.0322 -0.9995 0.9995 0.0322 -161.8996 344.8633)" class="st1" width="21.95" height="3.27"/>
				</g>
				<g>
					
						<rect x="85.76" y="254.07" transform="matrix(0.0322 -0.9995 0.9995 0.0322 -180.3251 343.8727)" class="st1" width="3.27" height="21.95"/>
				</g>
				<g>
					
						<rect x="66.76" y="272.57" transform="matrix(0.0322 -0.9995 0.9995 0.0322 -198.8271 343.0793)" class="st1" width="21.95" height="3.27"/>
				</g>
				<g>
					
						<rect x="66.38" y="272.25" transform="matrix(0.0322 -0.9995 0.9995 0.0322 -217.2531 342.086)" class="st1" width="3.27" height="21.95"/>
				</g>
				<g>
					
						<rect x="47.34" y="290.78" transform="matrix(0.0322 -0.9995 0.9995 0.0322 -235.8212 341.2922)" class="st1" width="21.95" height="3.27"/>
				</g>
				<g>
					
						<rect x="46.96" y="290.46" transform="matrix(0.0322 -0.9995 0.9995 0.0322 -254.2465 340.3017)" class="st1" width="3.27" height="21.95"/>
				</g>
				<g>
					
						<rect x="27.96" y="308.95" transform="matrix(0.0322 -0.9995 0.9995 0.0322 -272.7485 339.5084)" class="st1" width="21.95" height="3.27"/>
				</g>
				<g>
					
						<rect x="27.57" y="308.63" transform="matrix(0.0322 -0.9995 0.9995 0.0322 -291.1741 338.5131)" class="st1" width="3.27" height="21.95"/>
				</g>
			</g>
			<g>
				<g>
					
						<rect x="93.88" y="262.64" transform="matrix(0.0322 -0.9995 0.9995 0.0322 -162.6588 360.5784)" class="st1" width="21.95" height="3.27"/>
				</g>
				<g>
					
						<rect x="93.5" y="262.32" transform="matrix(0.0322 -0.9995 0.9995 0.0322 -181.0858 359.5825)" class="st1" width="3.27" height="21.95"/>
				</g>
				<g>
					
						<rect x="74.5" y="280.82" transform="matrix(0.0322 -0.9995 0.9995 0.0322 -199.5861 358.7948)" class="st1" width="21.95" height="3.27"/>
				</g>
				<g>
					
						<rect x="74.11" y="280.5" transform="matrix(0.0322 -0.9995 0.9995 0.0322 -218.0115 357.8037)" class="st1" width="3.27" height="21.95"/>
				</g>
				<g>
					
						<rect x="55.08" y="299.03" transform="matrix(0.0322 -0.9995 0.9995 0.0322 -236.581 357.0043)" class="st1" width="21.95" height="3.27"/>
				</g>
				<g>
					
						<rect x="54.69" y="298.71" transform="matrix(0.0322 -0.9995 0.9995 0.0322 -255.0062 356.0135)" class="st1" width="3.27" height="21.95"/>
				</g>
				<g>
					
						<rect x="35.69" y="317.2" transform="matrix(0.0322 -0.9995 0.9995 0.0322 -273.5075 355.2237)" class="st1" width="21.95" height="3.27"/>
				</g>
				<g>
					
						<rect x="35.31" y="316.88" transform="matrix(0.0322 -0.9995 0.9995 0.0322 -291.933 354.233)" class="st1" width="3.27" height="21.95"/>
				</g>
			</g>
			<g>
				<g>
					
						<rect x="101.62" y="270.89" transform="matrix(0.0322 -0.9995 0.9995 0.0322 -163.4191 376.2907)" class="st1" width="21.95" height="3.27"/>
				</g>
				<g>
					
						<rect x="101.23" y="270.57" transform="matrix(0.0322 -0.9995 0.9995 0.0322 -181.8442 375.2999)" class="st1" width="3.27" height="21.95"/>
				</g>
				<g>
					
						<rect x="82.23" y="289.07" transform="matrix(0.0322 -0.9995 0.9995 0.0322 -200.3453 374.5093)" class="st1" width="21.95" height="3.27"/>
				</g>
				<g>
					
						<rect x="81.85" y="288.75" transform="matrix(0.0322 -0.9995 0.9995 0.0322 -218.772 373.5131)" class="st1" width="3.27" height="21.95"/>
				</g>
				<g>
					
						<rect x="62.81" y="307.28" transform="matrix(0.0322 -0.9995 0.9995 0.0322 -237.3397 372.7223)" class="st1" width="21.95" height="3.27"/>
				</g>
				<g>
					
						<rect x="62.43" y="306.96" transform="matrix(0.0322 -0.9995 0.9995 0.0322 -255.765 371.7313)" class="st1" width="3.27" height="21.95"/>
				</g>
				<g>
					
						<rect x="43.43" y="325.45" transform="matrix(0.0322 -0.9995 0.9995 0.0322 -274.2676 370.9323)" class="st1" width="21.95" height="3.27"/>
				</g>
				<g>
					
						<rect x="43.04" y="325.13" transform="matrix(0.0322 -0.9995 0.9995 0.0322 -292.6927 369.9431)" class="st1" width="3.27" height="21.95"/>
				</g>
			</g>
			<g>
				<g>
					
						<rect x="109.35" y="279.14" transform="matrix(0.0322 -0.9995 0.9995 0.0322 -164.1772 392.0083)" class="st1" width="21.95" height="3.27"/>
				</g>
				<g>
					
						<rect x="108.97" y="278.82" transform="matrix(0.0322 -0.9995 0.9995 0.0322 -182.6045 391.0121)" class="st1" width="3.27" height="21.95"/>
				</g>
				<g>
					
						<rect x="89.97" y="297.32" transform="matrix(0.0322 -0.9995 0.9995 0.0322 -201.1062 390.2188)" class="st1" width="21.95" height="3.27"/>
				</g>
				<g>
					
						<rect x="89.58" y="297" transform="matrix(0.0322 -0.9995 0.9995 0.0322 -219.5299 389.2338)" class="st1" width="3.27" height="21.95"/>
				</g>
				<g>
					
						<rect x="70.55" y="315.52" transform="matrix(0.0322 -0.9995 0.9995 0.0322 -238.0986 388.4377)" class="st1" width="21.95" height="3.27"/>
				</g>
				<g>
					
						<rect x="70.16" y="315.2" transform="matrix(0.0322 -0.9995 0.9995 0.0322 -256.5248 387.4424)" class="st1" width="3.27" height="21.95"/>
				</g>
				<g>
					
						<rect x="51.16" y="333.7" transform="matrix(0.0322 -0.9995 0.9995 0.0322 -275.026 386.6537)" class="st1" width="21.95" height="3.27"/>
				</g>
				<g>
					
						<rect x="50.78" y="333.38" transform="matrix(0.0322 -0.9995 0.9995 0.0322 -293.4514 385.6626)" class="st1" width="3.27" height="21.95"/>
				</g>
			</g>
		</g>
	</g>
	<g>
		<path class="st5" d="M32.02,235.98c1.51-1.51,10.04-0.75,11.05,4.52c1,5.27-3.77,16.32-11.55,16.07
			c-7.78-0.25-9.54-5.77-7.78-10.29C25.49,241.75,32.02,235.98,32.02,235.98z"/>
	</g>
	<g>
		<path class="st10" d="M35.04,247.5c5.51-6.62,2.12-9.43,1.16-10.45l-6.52-6.95c-1.48-1.57-3.7,0.76-5.1,2.07l-4.5,4.22
			c-1.4,1.31-2.55,4.79-1.07,6.36l7.45,8.22C27.42,251.98,29.57,254.08,35.04,247.5z"/>
	</g>
	<g>
		<defs>
			<path id="SVGID_4_" d="M12.43,243.56c7.54,4.42,11.77-1.31,16.19-8.85c4.42-7.54,1.89-17.23-5.65-21.65
				c-7.54-4.42-17.23-1.89-21.65,5.65C-3.1,226.25,4.89,239.14,12.43,243.56z"/>
		</defs>
		<use xlink:href="#SVGID_4_"  style="overflow:visible;fill:#FFB3B6;"/>
		<clipPath id="SVGID_5_">
			<use xlink:href="#SVGID_4_"  style="overflow:visible;"/>
		</clipPath>
		<g class="st11">
			<path class="st1" d="M12.89,218.58c0,0,3.82,4.07,4.38,3.55c0.56-0.53,1.88-3.35,5.27-2.83c3.39,0.52,3.55,4.07,2.12,6.2
				c-1.43,2.13,4.31,5.73,7.88,0.8c3.56-4.93-4.51-16.63-10.45-18.46c-5.94-1.83-17.19,0.54-19.45,3.19
				C0.37,213.68-7.88,238.3-7.88,238.3L12.89,218.58z"/>
		</g>
	</g>
	<g>
		<path class="st2" d="M50.93,227.44c5.05-1.59,48.62,16.57,52.38,20.84c3.77,4.27,19.16,36.32,20.42,37.57
			c1.26,1.26-7.28,4.77-8.03,4.77c-0.75,0-20.17-31.55-22.43-31.55c-2.26,0-39.91-13.05-42.42-14.31
			C48.34,243.51,36.62,231.96,50.93,227.44z"/>
	</g>
	<g>
		
			<rect x="109.5" y="297.37" transform="matrix(0.7107 -0.7035 0.7035 0.7107 -182.742 186.1684)" class="st1" width="51" height="35.84"/>
	</g>
	<g>
		<path class="st1" d="M112.83,302.72c0,5.53,4.48,10,10,10c5.53,0,10-4.48,10-10c0-5.53-4.48-10-10-10
			C117.3,292.71,112.83,297.19,112.83,302.72z M116.4,302.72c0-3.55,2.88-6.43,6.43-6.43c3.55,0,6.43,2.88,6.43,6.43
			c0,3.55-2.88,6.43-6.43,6.43C119.28,309.15,116.4,306.27,116.4,302.72z"/>
	</g>
	<g>
		<path class="st8" d="M116.53,290.37c0,0,6.78-5.1,7.7-4.02c0.92,1.09,4.18,11.21-2.51,13.89c-4.15,1.66-3.18-4.02-4.85-4.52
			c-1.67-0.5-1.67,3.18-3.35,2.34C111.85,297.23,113.77,291.2,116.53,290.37z"/>
	</g>
	<g>
		<polygon class="st5" points="41.09,230.61 87.67,216.98 103.03,227.32 59.43,240.43 		"/>
	</g>
	<g>
		<path class="st5" d="M46.58,233.8c0,2.7-2.19,4.89-4.89,4.89c-2.7,0-4.89-2.19-4.89-4.89c0-2.7,2.19-4.9,4.89-4.9
			C44.39,228.91,46.58,231.1,46.58,233.8z"/>
	</g>
	<g>
		
			<rect x="129.05" y="311.33" transform="matrix(0.7071 -0.7071 0.7071 0.7071 -181.977 185.9183)" class="st0" width="8.78" height="2.58"/>
	</g>
</g>
</svg>
