<?xml version="1.0" encoding="utf-8"?>
<!-- Generator: Adobe Illustrator 23.0.2, SVG Export Plug-In . SVG Version: 6.00 Build 0)  -->
<svg version="1.1" id="Capa_1" xmlns="http://www.w3.org/2000/svg" xmlns:xlink="http://www.w3.org/1999/xlink" x="0px" y="0px"
	 viewBox="0 0 512 512" style="enable-background:new 0 0 512 512;" xml:space="preserve">
<style type="text/css">
	.Sombra_x0020_paralela{fill:none;}
	.Resplandor_x0020_externo_x0020_5_x0020_pt_x002E_{fill:none;}
	.Neón_x0020_azul{fill:none;stroke:#8AACDA;stroke-width:7;stroke-linecap:round;stroke-linejoin:round;}
	.Resalte_x0020_cromado{fill:url(#SVGID_1_);stroke:#FFFFFF;stroke-width:0.3629;stroke-miterlimit:1;}
	.A_x0020_todo_x0020_ritmo_GS{fill:#FFDD00;}
	.Alyssa_GS{fill:#A6D0E4;}
	.st0{fill:#FFC1C1;}
	.st1{fill:#FFB3B6;}
	.st2{fill:#425AC2;}
	.st3{fill:#FFFFFF;}
	.st4{fill:#BBBBBB;}
	.st5{fill:#03053F;}
	.st6{fill:#FE958E;}
	.st7{fill:#E98896;}
	.st8{clip-path:url(#SVGID_3_);}
	.st9{fill:#0E24A5;}
</style>
<linearGradient id="SVGID_1_" gradientUnits="userSpaceOnUse" x1="0" y1="0" x2="6.123234e-17" y2="-1">
	<stop  offset="0" style="stop-color:#656565"/>
	<stop  offset="0.618" style="stop-color:#1B1B1B"/>
	<stop  offset="0.6292" style="stop-color:#545454"/>
	<stop  offset="0.9831" style="stop-color:#3E3E3E"/>
</linearGradient>
<g>
	<g>
		<path class="st0" d="M263.04,34.87c0,5.24-6.35,18.81-6.35,18.81s-7.73-13.57-7.73-18.81c0-5.24,7.73-20.19,7.73-20.19
			S263.04,29.63,263.04,34.87z"/>
	</g>
	<g>
		<path class="st0" d="M205.83,42.51c1.78,4.92,0.43,19.86,0.43,19.86s-11.88-10.09-13.66-15.02c-1.78-4.93,0.39-21.63,0.39-21.63
			S204.05,37.59,205.83,42.51z"/>
	</g>
	<g>
		<path class="st0" d="M319.4,47.35c-1.78,4.92-12.37,15.49-12.37,15.49s-2.64-15.4-0.86-20.33c1.78-4.92,14.13-16.31,14.13-16.31
			S321.18,42.43,319.4,47.35z"/>
	</g>
	<g>
		<path class="st1" d="M203.23,34.31l1.02,8.22c0,0-12.96-2.57-13.98-4.8c-1.02-2.23,0.68-3.25,0.68-3.25L203.23,34.31z"/>
	</g>
	<g>
		<g>
			<path class="st2" d="M288.23,511.96h-58.79c-8.44,0-15.29-6.88-15.29-15.36v-59.07c0-8.48,6.84-15.36,15.29-15.36h58.79
				c8.44,0,15.29,6.88,15.29,15.36v59.07C303.52,505.08,296.68,511.96,288.23,511.96z"/>
		</g>
		<g>
			<g>
				<polygon class="st3" points="265.54,485.65 258.23,493 223.66,458.27 230.98,450.92 				"/>
			</g>
			<g>
				<polygon class="st3" points="251.24,485.65 258.55,493 293.11,458.27 285.8,450.92 				"/>
			</g>
		</g>
	</g>
	<g>
		<g>
			<g>
				<path class="st2" d="M185.21,511.96h-58.79c-8.44,0-15.29-6.88-15.29-15.36v-59.07c0-8.48,6.84-15.36,15.29-15.36h58.79
					c8.44,0,15.29,6.88,15.29,15.36v59.07C200.49,505.08,193.65,511.96,185.21,511.96z"/>
			</g>
			<g>
				<g>
					<polygon class="st3" points="162.52,485.65 155.21,493 120.64,458.27 127.95,450.92 					"/>
				</g>
				<g>
					<polygon class="st3" points="148.21,485.65 155.53,493 190.09,458.27 182.78,450.92 					"/>
				</g>
			</g>
		</g>
		<g>
			<g>
				<path class="st4" d="M391.26,511.96h-58.79c-8.44,0-15.29-6.88-15.29-15.36v-59.07c0-8.48,6.84-15.36,15.29-15.36h58.79
					c8.44,0,15.28,6.88,15.28,15.36v59.07C406.54,505.08,399.7,511.96,391.26,511.96z"/>
			</g>
		</g>
	</g>
	<g>
		<polygon class="st5" points="273.34,344.53 258.94,346.43 258.94,345.83 244.34,343.92 258.94,458.85 		"/>
	</g>
	<g>
		<rect x="198.86" y="191.32" class="st0" width="119.96" height="166.61"/>
	</g>
	<g>
		<g>
			<path class="st6" d="M331.36,209.27H186.32c-7.92,0-14.33-5.47-14.33-12.21V187c0-6.74,6.42-12.21,14.33-12.21h145.03
				c7.92,0,14.33,5.47,14.33,12.21v10.06C345.69,203.8,339.27,209.27,331.36,209.27z"/>
		</g>
	</g>
	<g>
		<g>
			<path class="st6" d="M331.36,377.41H186.32c-7.92,0-14.33-5.47-14.33-12.21v-10.06c0-6.74,6.42-12.21,14.33-12.21h145.03
				c7.92,0,14.33,5.47,14.33,12.21v10.06C345.69,371.95,339.27,377.41,331.36,377.41z"/>
		</g>
	</g>
	<g>
		<path class="st5" d="M265.53,25.42c-9,0-30.42,14.67-30.42,14.67l-31.93-6.01l-2.14,7.64l36.48,10.35c0,0,22.51-7.19,27.66-13.55
			C270.33,32.16,270.76,25.42,265.53,25.42z"/>
	</g>
	<g>
		<path class="st1" d="M353.28,42.26l-1.02,8.22c0,0,12.96-2.57,13.98-4.8c1.02-2.23-0.68-3.25-0.68-3.25L353.28,42.26z"/>
	</g>
	<g>
		<path class="st5" d="M289.46,32.55c7.5,0,30.01,15.49,30.01,15.49l33.84-6.01l2.14,7.64l-36.48,10.35c0,0-22.51-7.19-27.66-13.55
			C286.17,40.11,284.24,32.55,289.46,32.55z"/>
	</g>
	<g>
		<path class="st5" d="M281.16,85.97l-36.71-0.06l11.1-51.17c0.86-4.07,7.57-10.39,11.54-9.19l26.54,7.8
			c3.97,1.2,6.06,5.55,4.54,9.42L281.16,85.97z"/>
	</g>
	<g>
		<path class="st7" d="M282.82,33.09l-4.63-1.4c-1.44-0.44-2.21-2.11-1.72-3.73l1.72-5.73c0.49-1.63,2.05-2.59,3.48-2.16l4.62,1.4
			c1.44,0.43,2.21,2.11,1.72,3.73l-1.72,5.73C285.82,32.56,284.26,33.53,282.82,33.09z"/>
	</g>
	<g>
		<defs>
			<path id="SVGID_2_" d="M272.9,17.41c-0.04,6.88,5.51,7.5,12.36,7.54s12.42-5.51,12.46-12.39c0.04-6.88-5.48-12.48-12.33-12.52
				C278.54,0,272.94,10.53,272.9,17.41z"/>
		</defs>
		<use xlink:href="#SVGID_2_"  style="overflow:visible;fill:#FFB3B6;"/>
		<clipPath id="SVGID_3_">
			<use xlink:href="#SVGID_2_"  style="overflow:visible;"/>
		</clipPath>
		<g class="st8">
			<path class="st6" d="M290.02,7.87c0,0-1.26,4.21-0.68,4.39c0.58,0.17,3.01-0.04,3.99,2.47c0.98,2.51-1.36,4.02-3.37,3.89
				s-2.19,5.2,2.55,5.68c4.74,0.48,9.51-9.64,8.42-14.4c-1.09-4.77-7.12-11.5-9.8-12c-2.69-0.5-30.25,1.09-30.25,1.09L290.02,7.87z"
				/>
		</g>
	</g>
	<g>
		<path class="st6" d="M281.16,85.97l-36.71-0.06l0,83.38h7.27c0,0,5.51-41.14,7.58-63.87h5.04l12.34,29.83l36.5,13.45l3.95-6.68
			l-29.51-14.52c0,0-6.04-29.01-6.14-34.71C281.69,91.88,281.16,85.97,281.16,85.97z"/>
	</g>
	<g>
		<path class="st9" d="M244.35,169.19h7.4v5.7h-15c-0.99,0-1.33-2.24-0.46-2.72L244.35,169.19z"/>
	</g>
	<g>
		<path class="st9" d="M312.1,147.82l4.09-6.19l4.72,3.16l-8.3,12.55c-0.55,0.83-2.59-0.12-2.51-1.12L312.1,147.82z"/>
	</g>
	<g>
		<path class="st0" d="M154.68,69.35c3.35,4.01,7.16,18.51,7.16,18.51s-14.6-5.4-17.95-9.42c-3.35-4.01-6.99-20.46-6.99-20.46
			S151.33,65.34,154.68,69.35z"/>
	</g>
	<g>
		<path class="st0" d="M115.75,112.15c4.52,2.62,13.03,14.93,13.03,14.93s-15.56-0.06-20.07-2.68
			c-4.52-2.62-13.54-16.82-13.54-16.82S111.23,109.53,115.75,112.15z"/>
	</g>
	<g>
		<path class="st0" d="M93.73,165.75c5.14,0.91,17.33,9.55,17.33,9.55s-14.64,5.29-19.77,4.38c-5.14-0.91-18.44-11.15-18.44-11.15
			S88.59,164.84,93.73,165.75z"/>
	</g>
	<g>
		<path class="st0" d="M91.28,223.69c5.14-0.91,19.54,3.02,19.54,3.02s-11.95,10-17.09,10.91c-5.14,0.91-21.13-4.14-21.13-4.14
			S86.15,224.6,91.28,223.69z"/>
	</g>
	<g>
		<path class="st0" d="M108.7,278.97c4.52-2.62,19.39-3.88,19.39-3.88s-7.83,13.51-12.35,16.13c-4.52,2.62-21.26,3.37-21.26,3.37
			S104.19,281.59,108.7,278.97z"/>
	</g>
	<g>
		<path class="st0" d="M143.89,324.93c3.35-4.01,16.9-10.3,16.9-10.3s-2.76,15.38-6.11,19.4c-3.35,4.01-18.83,10.47-18.83,10.47
			S140.54,328.94,143.89,324.93z"/>
	</g>
	<g>
		<path class="st0" d="M357.32,334.02c-3.35-4.01-7.16-18.51-7.16-18.51s14.6,5.4,17.95,9.42c3.35,4.01,6.99,20.46,6.99,20.46
			S360.67,338.03,357.32,334.02z"/>
	</g>
	<g>
		<path class="st0" d="M396.25,291.22c-4.52-2.62-13.03-14.93-13.03-14.93s15.56,0.06,20.07,2.68c4.52,2.62,13.54,16.82,13.54,16.82
			S400.77,293.84,396.25,291.22z"/>
	</g>
	<g>
		<path class="st0" d="M418.27,237.62c-5.14-0.91-17.33-9.55-17.33-9.55s14.64-5.29,19.77-4.38c5.14,0.91,18.44,11.15,18.44,11.15
			S423.41,238.53,418.27,237.62z"/>
	</g>
	<g>
		<path class="st0" d="M420.72,179.69c-5.14,0.91-19.54-3.02-19.54-3.02s11.95-10,17.09-10.91c5.14-0.91,21.13,4.14,21.13,4.14
			S425.85,178.78,420.72,179.69z"/>
	</g>
	<g>
		<path class="st0" d="M403.3,124.41c-4.52,2.62-19.39,3.87-19.39,3.87s7.83-13.51,12.35-16.13c4.52-2.62,21.26-3.37,21.26-3.37
			S407.81,121.79,403.3,124.41z"/>
	</g>
	<g>
		<path class="st0" d="M368.11,78.45c-3.35,4.01-16.9,10.3-16.9,10.3s2.76-15.38,6.11-19.4c3.35-4.01,18.83-10.47,18.83-10.47
			S371.46,74.43,368.11,78.45z"/>
	</g>
</g>
</svg>
