<?xml version="1.0" encoding="utf-8"?>
<!-- Generator: Adobe Illustrator 23.0.2, SVG Export Plug-In . SVG Version: 6.00 Build 0)  -->
<svg version="1.1" id="Capa_1" xmlns="http://www.w3.org/2000/svg" xmlns:xlink="http://www.w3.org/1999/xlink" x="0px" y="0px"
	 viewBox="0 0 512 512" style="enable-background:new 0 0 512 512;" xml:space="preserve">
<style type="text/css">
	.Sombra_x0020_paralela{fill:none;}
	.Resplandor_x0020_externo_x0020_5_x0020_pt_x002E_{fill:none;}
	.Neón_x0020_azul{fill:none;stroke:#8AACDA;stroke-width:7;stroke-linecap:round;stroke-linejoin:round;}
	.Resalte_x0020_cromado{fill:url(#SVGID_1_);stroke:#FFFFFF;stroke-width:0.3629;stroke-miterlimit:1;}
	.A_x0020_todo_x0020_ritmo_GS{fill:#FFDD00;}
	.Alyssa_GS{fill:#A6D0E4;}
	.st0{fill:#231F20;}
	.st1{fill:#CCCCCC;}
	.st2{clip-path:url(#SVGID_3_);}
	.st3{fill:#425AC2;}
	.st4{fill:#FFC1C1;}
	.st5{fill:#FFFFFF;}
	.st6{clip-path:url(#SVGID_5_);}
	.st7{fill:#A4B8EA;}
	.st8{fill:#FE958E;}
	.st9{fill:#FFB3B6;}
	.st10{fill:#E98896;}
	.st11{clip-path:url(#SVGID_7_);}
	.st12{fill:#FC6262;}
	.st13{fill:#FEE2E3;}
	.st14{fill:#0E24A5;}
	.st15{clip-path:url(#SVGID_9_);}
	.st16{fill:#03053F;}
</style>
<linearGradient id="SVGID_1_" gradientUnits="userSpaceOnUse" x1="0" y1="0" x2="6.123234e-17" y2="-1">
	<stop  offset="0" style="stop-color:#656565"/>
	<stop  offset="0.618" style="stop-color:#1B1B1B"/>
	<stop  offset="0.6292" style="stop-color:#545454"/>
	<stop  offset="0.9831" style="stop-color:#3E3E3E"/>
</linearGradient>
<g>
	<g>
		<rect x="411.46" y="357.97" class="st0" width="1.3" height="118.54"/>
	</g>
	<g>
		<rect x="438.69" y="159.45" class="st0" width="1.3" height="299.34"/>
	</g>
	<g>
		<rect x="425.08" y="256.01" class="st0" width="1.3" height="220.5"/>
	</g>
	<g>
		<rect x="465.92" y="214.1" class="st0" width="1.3" height="227.59"/>
	</g>
	<g>
		<rect x="452.31" y="154.94" class="st0" width="1.3" height="307.33"/>
	</g>
	<g>
		
			<ellipse transform="matrix(0.7071 -0.7071 0.7071 0.7071 -191.725 443.0934)" class="st1" cx="439" cy="452.98" rx="43.67" ry="43.67"/>
	</g>
	<g>
		<defs>
			<path id="SVGID_2_" d="M411.16,405.52h55.68c2.97,0,5.38,3.22,5.38,7.19v11.25c0,3.97-2.41,7.19-5.38,7.19h-55.68
				c-2.97,0-5.38-3.22-5.38-7.19v-11.25C405.78,408.74,408.19,405.52,411.16,405.52z"/>
		</defs>
		<use xlink:href="#SVGID_2_"  style="overflow:visible;fill:#CCCCCC;"/>
		<clipPath id="SVGID_3_">
			<use xlink:href="#SVGID_2_"  style="overflow:visible;"/>
		</clipPath>
		<g class="st2">
			<rect x="394.44" y="421.21" class="st3" width="81.54" height="1.3"/>
		</g>
	</g>
	<g>
		<g>
			<path class="st4" d="M426.08,151.8c-1.42,5.57-2.9,11.1-5.05,16.43c0.7-1.66,1.41-3.33,2.11-4.99c-0.18,0.41-0.35,0.81-0.52,1.22
				c-2.33,5.42-3.74,10.17-2.11,16.11c1.44,5.23,4.93,9.76,9.61,12.49c4.83,2.83,10.71,3.59,16.11,2.11
				c4.69-1.29,10.48-4.93,12.49-9.61c3.21-7.46,5.68-14.8,7.68-22.65c2.81-11.04-3.46-22.65-14.6-25.72
				C440.98,134.22,428.89,140.76,426.08,151.8L426.08,151.8z"/>
		</g>
	</g>
	<g>
		<g>
			<path class="st4" d="M360.12,348.32c4.01,11.91,11.98,21.92,21.41,29.99c8.67,7.43,23.13,3.26,29.07-5.38
				c6.97-10.13,3.27-21.67-5.38-29.07c4.58,3.92-0.2-0.51-1.07-1.53c-0.77-0.9-4.5-6.52-1.47-1.71c-2.08-3.3-3.7-6.87-4.94-10.56
				c-3.64-10.82-18.69-14.17-27.94-9.68C358.59,325.81,356.49,337.53,360.12,348.32L360.12,348.32z"/>
		</g>
	</g>
	<g>
		<g>
			<path class="st4" d="M406.4,268.03c-0.07,7.49-1.54,14.75-2.9,22.09c-1.75,9.41-2.01,18.51-0.57,28.01
				c1.71,11.28,14.12,18.39,24.78,16.13c11.64-2.46,17.84-13.51,16.13-24.78c-0.36-2.64-0.44-3.04-0.23-1.21
				c-0.02-1.5,0.02-3,0.12-4.49c0.18-3.73,0.87-7.45,1.52-11.12c1.3-7.36,2.84-14.58,2.9-22.09c0.1-11.39-7.8-21.43-19.6-22.14
				C417.61,247.77,406.5,256.64,406.4,268.03L406.4,268.03z"/>
		</g>
	</g>
	<g>
		<g>
			<path class="st4" d="M462.34,226.22c1.42,2.82,2.79,5.66,4.11,8.53c0.58,1.25,1.13,2.51,1.68,3.77c-2.51-5.76,0,0.1,0.47,1.29
				c2.07,5.29,4.54,9.52,9.61,12.49c4.83,2.83,10.71,3.59,16.11,2.11c10.13-2.79,18.75-15.09,14.6-25.72
				c-3.13-8.01-6.61-15.89-10.47-23.58c-5.12-10.18-19.25-12.98-28.6-7.5C459.55,203.64,457.22,216.04,462.34,226.22L462.34,226.22z
				"/>
		</g>
	</g>
	<g>
		<g>
			<path class="st4" d="M472.79,284.33c-1.48,2.31-3.06,4.53-4.73,6.7c1.09-1.41,2.18-2.82,3.27-4.23
				c-1.18,1.51-2.39,2.99-3.63,4.45c-3.7,4.37-6.12,8.88-6.12,14.78c0,5.52,2.22,10.88,6.12,14.78c3.9,3.9,9.26,6.12,14.78,6.12
				c5.14,0,11.35-2.08,14.78-6.12c4.15-4.89,8.17-9.97,11.63-15.38c6.14-9.61,2.03-23.02-7.5-28.6
				C491.27,270.9,478.91,274.75,472.79,284.33L472.79,284.33z"/>
		</g>
	</g>
	<g>
		<g>
			<path class="st4" d="M456.29,384.46c4.89,0.37,9.77-0.65,14.59-1.31c-1.85,0.25-3.71,0.5-5.56,0.75
				c2.26-0.29,4.48-0.48,6.76-0.37c11.39,0.58,20.91-9.95,20.91-20.91c0-11.83-9.53-20.33-20.91-20.91
				c-4.87-0.25-9.74,0.77-14.55,1.42c1.85-0.25,3.71-0.5,5.56-0.75c-2.28,0.28-4.51,0.43-6.8,0.26
				c-11.38-0.85-20.91,10.15-20.91,20.91C435.39,375.6,444.93,383.61,456.29,384.46L456.29,384.46z"/>
		</g>
	</g>
	<g>
		<path class="st5" d="M379.57,202.89c0,1.28-1.04,2.32-2.32,2.32c-1.28,0-2.32-1.04-2.32-2.32c0-1.28,1.04-2.32,2.32-2.32
			C378.53,200.57,379.57,201.61,379.57,202.89z"/>
	</g>
	<g>
		<path class="st5" d="M441.36,176.18c0,1.28-1.04,2.32-2.32,2.32c-1.28,0-2.32-1.04-2.32-2.32c0-1.28,1.04-2.32,2.32-2.32
			C440.32,173.85,441.36,174.89,441.36,176.18z"/>
	</g>
	<g>
		<path class="st5" d="M471.33,217.99c0,1.28-1.04,2.32-2.32,2.32c-1.28,0-2.32-1.04-2.32-2.32c0-1.28,1.04-2.32,2.32-2.32
			C470.29,215.67,471.33,216.71,471.33,217.99z"/>
	</g>
	<g>
		<path class="st5" d="M440.98,280.66c0,1.28-1.04,2.32-2.32,2.32c-1.28,0-2.32-1.04-2.32-2.32s1.04-2.32,2.32-2.32
			C439.94,278.34,440.98,279.38,440.98,280.66z"/>
	</g>
	<g>
		<path class="st5" d="M495.02,300.92c0,1.28-1.04,2.32-2.32,2.32s-2.32-1.04-2.32-2.32s1.04-2.32,2.32-2.32
			S495.02,299.64,495.02,300.92z"/>
	</g>
	<g>
		<path class="st5" d="M480.68,363.79c0,1.28-1.04,2.32-2.32,2.32s-2.32-1.04-2.32-2.32s1.04-2.32,2.32-2.32
			S480.68,362.51,480.68,363.79z"/>
	</g>
	<g>
		<path class="st5" d="M385.74,351.61c0.23,1.26-0.6,2.47-1.86,2.71c-1.26,0.23-2.47-0.6-2.71-1.86c-0.23-1.26,0.6-2.47,1.86-2.71
			C384.29,349.52,385.51,350.35,385.74,351.61z"/>
	</g>
	<g>
		<g>
			<rect x="80.23" y="225.4" class="st1" width="6.75" height="147.06"/>
		</g>
	</g>
	<g>
		<g>
			<rect x="49.87" y="238.78" class="st1" width="6.75" height="129.78"/>
		</g>
	</g>
	<g>
		<g>
			<rect x="112.28" y="248.14" class="st1" width="6.75" height="129.78"/>
		</g>
	</g>
	<g>
		<defs>
			<path id="SVGID_4_" d="M137.26,363.82H33.78c4.62,8.45,11.27,15.62,19.26,20.91v112.33h64.95V384.74
				C125.99,379.44,132.64,372.27,137.26,363.82z"/>
		</defs>
		<use xlink:href="#SVGID_4_"  style="overflow:visible;fill:#C4C4C4;"/>
		<clipPath id="SVGID_5_">
			<use xlink:href="#SVGID_4_"  style="overflow:visible;"/>
		</clipPath>
		<g class="st6">
			<rect x="42.51" y="385.1" class="st4" width="125.65" height="1.3"/>
		</g>
	</g>
	<g>
		<path class="st4" d="M125.72,170.42c-11.81-25.3-49.27-28.89-65.78,2.81c-14.05,26.99-47.44,17.5-56.78,42.73
			c-16.87,45.54,42.75,63,68.03,39.35c17.43-16.3,39.62-6.6,59.03,9c31.48,25.3,80.4-28.67,49.47-53.97
			C155.69,190.71,140.26,201.6,125.72,170.42z"/>
	</g>
	<g>
		<path class="st4" d="M40.06,332.93c-5.51,4.62,1.41,16.93,15.23,14.39c13.82-2.54,20.88-9.03,13.26-16.08
			C60.94,324.18,50.5,324.18,40.06,332.93z"/>
	</g>
	<g>
		<path class="st4" d="M78.73,302.4c9.42-17.27,23.86-2.8,32.86,1.6c18.03,8.82,20.96-2.74,30.45,2
			c9.62,4.81,5.61,17.23-14.83,20.84C109.45,329.98,69.11,320.03,78.73,302.4z"/>
	</g>
	<g>
		<path class="st7" d="M429.21,311.58H112.16c-15.61,0-28.27-12.66-28.27-28.27V60.16c0-15.61,12.66-28.27,28.27-28.27h317.04
			c15.61,0,28.27,12.66,28.27,28.27v223.16C457.47,298.93,444.82,311.58,429.21,311.58z"/>
	</g>
	<g>
		<rect x="112.93" y="75.88" class="st5" width="236.75" height="7.72"/>
	</g>
	<g>
		<rect x="112.93" y="137.23" class="st5" width="236.75" height="7.72"/>
	</g>
	<g>
		<rect x="112.93" y="198.58" class="st5" width="236.75" height="7.72"/>
	</g>
	<g>
		<rect x="112.93" y="259.92" class="st5" width="236.75" height="7.72"/>
	</g>
	<g>
		<path class="st5" d="M399.94,97.82h-24.29c-3.49,0-6.32-2.83-6.32-6.32V67.22c0-3.49,2.83-6.32,6.32-6.32h24.29
			c3.49,0,6.32,2.83,6.32,6.32v24.29C406.26,95,403.43,97.82,399.94,97.82z"/>
	</g>
	<g>
		<path class="st5" d="M399.94,158.74h-24.29c-3.49,0-6.32-2.83-6.32-6.32v-24.29c0-3.49,2.83-6.32,6.32-6.32h24.29
			c3.49,0,6.32,2.83,6.32,6.32v24.29C406.26,155.91,403.43,158.74,399.94,158.74z"/>
	</g>
	<g>
		<path class="st5" d="M399.94,219.66h-24.29c-3.49,0-6.32-2.83-6.32-6.32v-24.29c0-3.49,2.83-6.32,6.32-6.32h24.29
			c3.49,0,6.32,2.83,6.32,6.32v24.29C406.26,216.83,403.43,219.66,399.94,219.66z"/>
	</g>
	<g>
		<path class="st5" d="M399.94,280.57h-24.29c-3.49,0-6.32-2.83-6.32-6.32v-24.29c0-3.49,2.83-6.32,6.32-6.32h24.29
			c3.49,0,6.32,2.83,6.32,6.32v24.29C406.26,277.75,403.43,280.57,399.94,280.57z"/>
	</g>
	<g>
		
			<rect x="367.44" y="199.88" transform="matrix(0.7071 -0.7071 0.7071 0.7071 -33.3453 328.2297)" class="st8" width="24.18" height="8.97"/>
	</g>
	<g>
		<path class="st9" d="M371.78,225c3.95-1.14,10.72-7.55,9.64-10.66c-1.06-3.05-3.52-11.9-9.37-8.88l-10.41,7.29l5.08,13.7
			L371.78,225z"/>
	</g>
	<g>
		<path class="st4" d="M192.66,305.12h83.54l9.11,96.92l-11.34,81.55h-33.37l13.61-73.12c0,0-11.22-48.8-12.82-66.28h-11.06
			l-5.93,67.58l-28.51,71.29h-34.35l29.81-77.12c0,0,1.16-77.77,1.38-89.29C192.29,314.61,192.66,305.12,192.66,305.12z"/>
	</g>
	<g>
		<path class="st3" d="M192.66,305.12h83.54l10.43-110.96c0.93-9.05-7.81-16.82-18.94-16.82h-66.51c-11.13,0-19.87,7.77-18.94,16.82
			L192.66,305.12z"/>
	</g>
	<g>
		<path class="st10" d="M234.83,189.1c-14.8,0-14.71-10.06-14.71-12.48v-16.37c0-3.71,5.53-3.4,8.82-3.4h10.59
			c3.29,0,8.82,3.01,8.82,6.71v13.05C248.36,179.01,246.8,189.1,234.83,189.1z"/>
	</g>
	<g>
		<path class="st9" d="M257.56,156.83c-4.25,14.4-16.29,12.19-30.69,7.94c-14.4-4.25-22.62-19.38-18.37-33.77
			c4.25-14.4,19.38-22.62,33.77-18.37C256.67,116.88,261.81,142.43,257.56,156.83z"/>
	</g>
	<g>
		<path class="st3" d="M287.03,190.59l22.25,44.25l51.84-23.33c0-1.43,12.28,10.92,10.37,14.26c-3.1,5.42-38.88,26.57-57.91,41.61
			c-10.64,8.41-36.7-26.16-38.18-28.64c-2.38-3.96-5.6-28.51-6.05-42.21c-0.1-3.16,2.26-5.86,5.41-6.18l4.93-8.88
			C282.43,181.18,286.08,188.01,287.03,190.59z"/>
	</g>
	<g>
		<path class="st3" d="M189.11,180.98c0,0-38.63,41.2-52.25,54.17c-7.52,7.16,0,12.53,4.3,17.9c11.91,14.89,50.48,41.53,50.48,41.53
			l-2.15-22.55l-23.27-27.21c0,0,32.73-25.27,33.82-27.1c2.98-4.97,0.5-26.81,0.5-26.81L189.11,180.98z"/>
	</g>
	<g>
		<path class="st8" d="M265.76,483.35h-16.22v12.44h32.9c2.17,0,2.92-4.88,1.02-5.93L265.76,483.35z"/>
	</g>
	<g>
		<path class="st8" d="M188.64,483.35h-16.22v12.44h32.9c2.17,0,2.92-4.88,1.02-5.93L188.64,483.35z"/>
	</g>
	<g>
		<defs>
			<path id="SVGID_6_" d="M192.66,305.12h83.54l10.43-110.96c0.93-9.05-7.81-16.82-18.94-16.82h-66.51
				c-11.13,0-19.87,7.77-18.94,16.82L192.66,305.12z"/>
		</defs>
		<clipPath id="SVGID_7_">
			<use xlink:href="#SVGID_6_"  style="overflow:visible;"/>
		</clipPath>
		<g class="st11">
			<rect x="279.83" y="209.29" class="st12" width="1.3" height="60.58"/>
		</g>
		<g class="st11">
			
				<rect x="186.94" y="212.22" transform="matrix(0.998 -0.0634 0.0634 0.998 -14.9754 12.3803)" class="st12" width="1.3" height="59.87"/>
		</g>
	</g>
	<g>
		<polygon class="st13" points="384.92,192.65 391.26,198.99 393.82,192.37 392.11,190.48 		"/>
	</g>
	<g>
		<path class="st14" d="M392.11,190.48l1.7,1.9c0,0,2.42-2.29,1.49-3.22C394.19,188.03,392.11,190.48,392.11,190.48z"/>
	</g>
	<g>
		<defs>
			<path id="SVGID_8_" d="M192.66,305.12h83.54l9.11,96.92l-11.34,81.55h-33.37l13.61-73.12c0,0-11.22-48.8-12.82-66.28h-11.06
				l-5.93,67.58l-28.51,71.29h-34.35l29.81-77.12c0,0,1.16-77.77,1.38-89.29C192.29,314.61,192.66,305.12,192.66,305.12z"/>
		</defs>
		<clipPath id="SVGID_9_">
			<use xlink:href="#SVGID_8_"  style="overflow:visible;"/>
		</clipPath>
		<g class="st15">
			<g>
				<rect x="146.19" y="310.44" class="st16" width="150.78" height="3.32"/>
			</g>
			<g>
				<rect x="146.19" y="322.06" class="st16" width="150.78" height="3.32"/>
			</g>
			<g>
				<rect x="146.19" y="333.68" class="st16" width="150.78" height="3.32"/>
			</g>
			<g>
				<rect x="146.19" y="345.29" class="st16" width="150.78" height="3.32"/>
			</g>
			<g>
				<rect x="146.19" y="356.91" class="st16" width="150.78" height="3.32"/>
			</g>
			<g>
				<rect x="146.19" y="368.53" class="st16" width="150.78" height="3.32"/>
			</g>
			<g>
				<rect x="146.19" y="380.14" class="st16" width="150.78" height="3.32"/>
			</g>
			<g>
				<rect x="146.19" y="391.76" class="st16" width="150.78" height="3.32"/>
			</g>
			<g>
				<rect x="146.19" y="403.38" class="st16" width="150.78" height="3.32"/>
			</g>
			<g>
				<rect x="146.19" y="414.99" class="st16" width="150.78" height="3.32"/>
			</g>
			<g>
				<rect x="146.19" y="426.61" class="st16" width="150.78" height="3.32"/>
			</g>
			<g>
				<rect x="146.19" y="438.23" class="st16" width="150.78" height="3.32"/>
			</g>
			<g>
				<rect x="146.19" y="449.84" class="st16" width="150.78" height="3.32"/>
			</g>
			<g>
				<rect x="146.19" y="461.46" class="st16" width="150.78" height="3.32"/>
			</g>
			<g>
				<rect x="146.19" y="473.08" class="st16" width="150.78" height="3.32"/>
			</g>
		</g>
	</g>
	<g>
		<path class="st8" d="M234.97,146.27c4.53-1.94-2.85-9.11,2.81-13.18c8.42-6.05,15.55-8.86,17.28-19.66
			C256.98,101.48,243.83,94,241.67,94c-2.16,0,4.54,3.46-2.81,8.64c-6.16,4.35-33.27,11.45-34.78,29.38
			c-1.53,18.16,3.89,23.76,10.8,27.22c6.91,3.46-2.16-7.34,3.46-14.26C223.96,138.06,231.95,147.57,234.97,146.27z"/>
	</g>
	<g>
		<g>
			
				<rect x="379.78" y="71.28" transform="matrix(0.7071 -0.7071 0.7071 0.7071 54.3186 293.8889)" class="st8" width="4.27" height="20.2"/>
		</g>
		<g>
			
				<rect x="383.21" y="79.24" transform="matrix(0.7071 -0.7071 0.7071 0.7071 57.6663 301.9612)" class="st8" width="20.2" height="4.27"/>
		</g>
	</g>
	<g>
		<g>
			
				<rect x="379.78" y="131.87" transform="matrix(0.7071 -0.7071 0.7071 0.7071 11.4734 311.636)" class="st8" width="4.27" height="20.2"/>
		</g>
		<g>
			
				<rect x="383.21" y="139.83" transform="matrix(0.7071 -0.7071 0.7071 0.7071 14.8189 319.7104)" class="st8" width="20.2" height="4.27"/>
		</g>
	</g>
	<g>
		<path class="st3" d="M139.71,49.5c0,3.34-2.71,6.05-6.05,6.05l0,0c-3.34,0-6.05-2.71-6.05-6.05V20.98c0-3.34,2.71-6.05,6.05-6.05
			l0,0c3.34,0,6.05,2.71,6.05,6.05V49.5z"/>
	</g>
	<g>
		<path class="st3" d="M421.4,49.5c0,3.34-2.71,6.05-6.05,6.05l0,0c-3.34,0-6.05-2.71-6.05-6.05V20.98c0-3.34,2.71-6.05,6.05-6.05
			l0,0c3.34,0,6.05,2.71,6.05,6.05V49.5z"/>
	</g>
</g>
</svg>
