<?xml version="1.0" encoding="utf-8"?>
<!-- Generator: Adobe Illustrator 23.0.2, SVG Export Plug-In . SVG Version: 6.00 Build 0)  -->
<svg version="1.1" id="Capa_1" xmlns="http://www.w3.org/2000/svg" xmlns:xlink="http://www.w3.org/1999/xlink" x="0px" y="0px"
	 viewBox="0 0 512 512" style="enable-background:new 0 0 512 512;" xml:space="preserve">
<style type="text/css">
	.Sombra_x0020_paralela{fill:none;}
	.Resplandor_x0020_externo_x0020_5_x0020_pt_x002E_{fill:none;}
	.Neón_x0020_azul{fill:none;stroke:#8AACDA;stroke-width:7;stroke-linecap:round;stroke-linejoin:round;}
	.Resalte_x0020_cromado{fill:url(#SVGID_1_);stroke:#FFFFFF;stroke-width:0.3629;stroke-miterlimit:1;}
	.A_x0020_todo_x0020_ritmo_GS{fill:#FFDD00;}
	.Alyssa_GS{fill:#A6D0E4;}
	.st0{fill:#CCCCCC;}
	.st1{fill:#231F20;}
	.st2{fill:#FFFFFF;}
	.st3{clip-path:url(#SVGID_3_);}
	.st4{fill:#8EA8DD;}
	.st5{fill:#FFC1C1;}
	.st6{clip-path:url(#SVGID_5_);}
	.st7{fill:#425AC2;}
	.st8{fill:#0E24A5;}
	.st9{fill:#FFAD97;}
	.st10{clip-path:url(#SVGID_7_);}
	.st11{fill:#A4B8EA;}
	.st12{fill:#FE958E;}
	.st13{fill:#FF9283;}
	.st14{clip-path:url(#SVGID_9_);}
	.st15{fill:#03053F;}
</style>
<linearGradient id="SVGID_1_" gradientUnits="userSpaceOnUse" x1="0" y1="0" x2="6.123234e-17" y2="-1">
	<stop  offset="0" style="stop-color:#656565"/>
	<stop  offset="0.618" style="stop-color:#1B1B1B"/>
	<stop  offset="0.6292" style="stop-color:#545454"/>
	<stop  offset="0.9831" style="stop-color:#3E3E3E"/>
</linearGradient>
<g>
	<g>
		<g>
			<path class="st0" d="M154.39,446.62c3.04-0.61,11.24-6.99,17.93-24.61c3.82-10.07,14.59-61.99,0-65.63
				c-14.58-3.65-11.85,22.48-11.85,46.49C160.47,417.5,154.39,446.62,154.39,446.62z"/>
		</g>
		<g>
			<path class="st0" d="M147.71,449.05c7.67-0.51,6.08-78.09,6.68-96.32c0.61-18.23,4.25-86.29-6.08-97.23
				c-10.33-10.94-20.97-1.22-21.88,12.91c-0.43,6.7,1.82,55.45,3.04,69.43c1.22,13.98,2.73,45.58,3.95,65.63
				C134.64,423.53,138.59,449.66,147.71,449.05z"/>
		</g>
		<g>
			<path class="st0" d="M132.59,463.4c0,0-17.03-33.59-21.27-59.55c-7.6-46.49-9.12-91.76,1.22-91.15
				c10.33,0.61,11.08,46.19,11.55,65.63c1.22,50.44,13.07,82.04,13.07,82.04L132.59,463.4z"/>
		</g>
		<g>
			<path class="st1" d="M146.1,443.89h-1.04c0-10.35-1.8-40.68-1.82-40.99l1.04-0.06C144.29,403.14,146.1,433.51,146.1,443.89z"/>
		</g>
		<g>
			<path class="st1" d="M157.45,446.37l-0.96-0.4c0.06-0.15,6.41-15.63,10-29.56c3.58-13.88,2.73-27.05,2.72-27.18l1.04-0.07
				c0.01,0.13,0.88,13.46-2.75,27.51C163.89,430.67,157.52,446.21,157.45,446.37z"/>
		</g>
		<g>
			<path class="st2" d="M141.02,403.48c0,1.26,1.02,2.28,2.28,2.28c1.26,0,2.28-1.02,2.28-2.28c0-1.26-1.02-2.28-2.28-2.28
				C142.04,401.2,141.02,402.22,141.02,403.48z"/>
		</g>
		<g>
			<path class="st2" d="M167.46,389.5c0,1.26,1.02,2.28,2.28,2.28c1.26,0,2.28-1.02,2.28-2.28c0-1.26-1.02-2.28-2.28-2.28
				C168.48,387.22,167.46,388.24,167.46,389.5z"/>
		</g>
		<g>
			<circle class="st2" cx="116.11" cy="369.14" r="2.28"/>
		</g>
	</g>
	<g>
		<g>
			<path class="st0" d="M358.93,353.9c-0.23,26.66-10.2,95.57-10.2,95.57s-10.79-69.1-10.55-95.76
				c0.23-26.66,12.28-102.58,12.28-102.58S359.16,327.25,358.93,353.9z"/>
		</g>
		<g>
			<rect x="348.14" y="328.68" class="st1" width="1.1" height="100.91"/>
		</g>
		<g>
			<path class="st2" d="M351.09,329.64c0,1.33-1.08,2.4-2.4,2.4c-1.33,0-2.4-1.08-2.4-2.4c0-1.33,1.08-2.4,2.4-2.4
				C350.02,327.24,351.09,328.31,351.09,329.64z"/>
		</g>
	</g>
	<g>
		<g>
			<path class="st0" d="M386.94,353.9c-0.23,26.66-10.2,95.57-10.2,95.57s-10.79-69.1-10.55-95.76
				c0.23-26.66,12.28-102.58,12.28-102.58S387.18,327.25,386.94,353.9z"/>
		</g>
		<g>
			<rect x="376.15" y="328.68" class="st1" width="1.1" height="100.91"/>
		</g>
		<g>
			<path class="st2" d="M379.11,329.64c0,1.33-1.08,2.4-2.4,2.4c-1.33,0-2.4-1.08-2.4-2.4c0-1.33,1.08-2.4,2.4-2.4
				C378.03,327.24,379.11,328.31,379.11,329.64z"/>
		</g>
	</g>
	<g>
		<g>
			<path class="st0" d="M414.96,353.9c-0.23,26.66-10.2,95.57-10.2,95.57s-10.79-69.1-10.55-95.76
				c0.23-26.66,12.28-102.58,12.28-102.58S415.19,327.25,414.96,353.9z"/>
		</g>
		<g>
			<rect x="404.17" y="328.68" class="st1" width="1.1" height="100.91"/>
		</g>
		<g>
			<path class="st2" d="M407.12,329.64c0,1.33-1.08,2.4-2.4,2.4c-1.33,0-2.4-1.08-2.4-2.4c0-1.33,1.08-2.4,2.4-2.4
				C406.04,327.24,407.12,328.31,407.12,329.64z"/>
		</g>
	</g>
	<g>
		<g>
			<defs>
				<polygon id="SVGID_2_" points="375.68,416.57 375.57,416.57 340.44,416.57 355.91,509.39 372.99,509.39 378.26,509.39 
					395.34,509.39 410.81,416.57 				"/>
			</defs>
			<use xlink:href="#SVGID_2_"  style="overflow:visible;fill:#FFC1C1;"/>
			<clipPath id="SVGID_3_">
				<use xlink:href="#SVGID_2_"  style="overflow:visible;"/>
			</clipPath>
			<g class="st3">
				<rect x="330.94" y="426.71" class="st4" width="95.4" height="1.1"/>
			</g>
		</g>
	</g>
	<g>
		<g>
			<circle class="st5" cx="142.38" cy="468.4" r="42.43"/>
		</g>
		<g>
			<path class="st0" d="M115.32,422.29h54.1c2.89,0,5.23,3.13,5.23,6.98v10.93c0,3.86-2.34,6.99-5.23,6.99h-54.1
				c-2.89,0-5.23-3.13-5.23-6.99v-10.93C110.1,425.41,112.44,422.29,115.32,422.29z"/>
		</g>
		<g>
			<defs>
				<path id="SVGID_4_" d="M115.32,422.29h54.1c2.89,0,5.23,3.13,5.23,6.98v10.93c0,3.86-2.34,6.99-5.23,6.99h-54.1
					c-2.89,0-5.23-3.13-5.23-6.99v-10.93C110.1,425.41,112.44,422.29,115.32,422.29z"/>
			</defs>
			<use xlink:href="#SVGID_4_"  style="overflow:visible;fill:#FFC1C1;"/>
			<clipPath id="SVGID_5_">
				<use xlink:href="#SVGID_4_"  style="overflow:visible;"/>
			</clipPath>
			<g class="st6">
				<rect x="99.07" y="437.64" class="st7" width="79.23" height="1.04"/>
			</g>
		</g>
	</g>
	<g>
		<g>
			<path class="st8" d="M303.52,332.76h-91.17c0,0,8.03-21.74,7.74-33.79c-0.46-19.57-19.12-69.98-19.12-69.98
				c-1.02-9.88,8.53-18.36,20.67-18.36h72.59c12.14,0,21.69,8.48,20.67,18.36c0,0-18.9,56.48-19.22,76.2
				C295.48,317.38,303.52,332.76,303.52,332.76z"/>
		</g>
		<g>
			<path class="st9" d="M90.2,204.05l7.41-15.9c0,0-13.96-5.4-19.25,2.4C71.73,200.31,90.2,204.05,90.2,204.05z"/>
		</g>
		<g>
			<path class="st8" d="M239.43,231.38c-3.87,6.36-23.81,7.21-56.48,9.83c-32.67,2.62-38.21,1.55-41.83-0.44
				c-3.61-1.98-50.92-36.72-50.92-36.72l7.41-15.9l54.45,31.11c0,0,52.24-9.96,69.58-8.62C227.65,211.1,239.43,231.38,239.43,231.38
				z"/>
		</g>
		<g>
			<path class="st9" d="M421.8,204.05l-7.41-15.9c0,0,13.96-5.4,19.25,2.4C440.27,200.31,421.8,204.05,421.8,204.05z"/>
		</g>
		<g>
			<path class="st8" d="M272.57,231.38c3.87,6.36,23.81,7.21,56.48,9.83c32.67,2.62,38.21,1.55,41.83-0.44
				c3.61-1.98,50.92-36.72,50.92-36.72l-7.41-15.9l-54.45,31.11c0,0-52.24-9.96-69.58-8.62
				C284.35,211.1,272.57,231.38,272.57,231.38z"/>
		</g>
		<g>
			<path class="st7" d="M212.35,332.76h91.17c0,0,24.26,46.41,1.5,52.91c-24.9,7.11-65.36,6.67-89.37,0.89
				C187.54,379.8,212.35,332.76,212.35,332.76z"/>
		</g>
		<g>
			<defs>
				<path id="SVGID_6_" d="M414.39,188.15l-54.45,31.11c0,0-52.24-9.96-69.58-8.62h-68.73c-17.34-1.33-69.58,8.62-69.58,8.62
					l-54.45-31.11l-7.41,15.9c0,0,47.31,34.74,50.92,36.72c3.61,1.98,9.16,3.06,41.83,0.44c8.03-0.64,15.3-1.18,21.74-1.72
					c5.47,15.85,15.07,45.51,15.4,59.48c0.29,12.05-7.74,33.79-7.74,33.79h91.17c0,0-8.03-15.38-7.84-27.57
					c0.23-14.31,10.25-47.97,15.72-65.37c5.38,0.43,11.27,0.87,17.65,1.39c32.67,2.62,38.21,1.55,41.83-0.44
					c3.61-1.98,50.92-36.72,50.92-36.72L414.39,188.15z"/>
			</defs>
			<clipPath id="SVGID_7_">
				<use xlink:href="#SVGID_6_"  style="overflow:visible;"/>
			</clipPath>
			<g class="st10">
				<g>
					<g>
						<g>
							
								<rect x="101.73" y="151.52" transform="matrix(0.7071 -0.7071 0.7071 0.7071 -89.4184 123.5623)" class="st7" width="5.43" height="36.4"/>
						</g>
						<g>
							
								<rect x="86.12" y="189" transform="matrix(0.7071 -0.7071 0.7071 0.7071 -105.0055 129.9194)" class="st7" width="36.4" height="5.43"/>
						</g>
						<g>
							
								<rect x="101.73" y="195.59" transform="matrix(0.7071 -0.7071 0.7071 0.7071 -120.5791 136.4704)" class="st7" width="5.43" height="36.4"/>
						</g>
						<g>
							
								<rect x="86.12" y="233.07" transform="matrix(0.7071 -0.7071 0.7071 0.7071 -136.1654 142.8251)" class="st7" width="36.4" height="5.43"/>
						</g>
						<g>
							
								<rect x="101.73" y="239.73" transform="matrix(0.7071 -0.7071 0.7071 0.7071 -151.7962 149.4009)" class="st7" width="5.43" height="36.4"/>
						</g>
						<g>
							
								<rect x="86.12" y="277.21" transform="matrix(0.7071 -0.7071 0.7071 0.7071 -167.382 155.7552)" class="st7" width="36.4" height="5.43"/>
						</g>
						<g>
							
								<rect x="101.73" y="283.8" transform="matrix(0.7071 -0.7071 0.7071 0.7071 -182.9567 162.308)" class="st7" width="5.43" height="36.4"/>
						</g>
						<g>
							
								<rect x="86.12" y="321.28" transform="matrix(0.7071 -0.7071 0.7071 0.7071 -198.5423 168.6621)" class="st7" width="36.4" height="5.43"/>
						</g>
					</g>
					<g>
						<g>
							
								<rect x="120.48" y="151.52" transform="matrix(0.7071 -0.7071 0.7071 0.7071 -83.9256 136.8231)" class="st7" width="5.43" height="36.4"/>
						</g>
						<g>
							
								<rect x="104.88" y="189" transform="matrix(0.7071 -0.7071 0.7071 0.7071 -99.5132 143.1826)" class="st7" width="36.4" height="5.43"/>
						</g>
						<g>
							
								<rect x="120.48" y="195.59" transform="matrix(0.7071 -0.7071 0.7071 0.7071 -115.0863 149.7313)" class="st7" width="5.43" height="36.4"/>
						</g>
						<g>
							
								<rect x="104.88" y="233.07" transform="matrix(0.7071 -0.7071 0.7071 0.7071 -130.6735 156.0886)" class="st7" width="36.4" height="5.43"/>
						</g>
						<g>
							
								<rect x="120.48" y="239.73" transform="matrix(0.7071 -0.7071 0.7071 0.7071 -146.3033 162.6618)" class="st7" width="5.43" height="36.4"/>
						</g>
						<g>
							
								<rect x="104.88" y="277.21" transform="matrix(0.7071 -0.7071 0.7071 0.7071 -161.8904 169.019)" class="st7" width="36.4" height="5.43"/>
						</g>
						<g>
							
								<rect x="120.48" y="283.8" transform="matrix(0.7071 -0.7071 0.7071 0.7071 -177.4638 175.5689)" class="st7" width="5.43" height="36.4"/>
						</g>
						<g>
							
								<rect x="104.88" y="321.28" transform="matrix(0.7071 -0.7071 0.7071 0.7071 -193.0511 181.9262)" class="st7" width="36.4" height="5.43"/>
						</g>
					</g>
					<g>
						<g>
							
								<rect x="139.24" y="151.52" transform="matrix(0.7071 -0.7071 0.7071 0.7071 -78.4328 150.084)" class="st7" width="5.43" height="36.4"/>
						</g>
						<g>
							
								<rect x="123.63" y="189" transform="matrix(0.7071 -0.7071 0.7071 0.7071 -94.0203 156.4436)" class="st7" width="36.4" height="5.43"/>
						</g>
						<g>
							
								<rect x="139.24" y="195.59" transform="matrix(0.7071 -0.7071 0.7071 0.7071 -109.5934 162.9922)" class="st7" width="5.43" height="36.4"/>
						</g>
						<g>
							
								<rect x="123.63" y="233.07" transform="matrix(0.7071 -0.7071 0.7071 0.7071 -125.1806 169.3495)" class="st7" width="36.4" height="5.43"/>
						</g>
						<g>
							
								<rect x="139.24" y="239.73" transform="matrix(0.7071 -0.7071 0.7071 0.7071 -140.8105 175.9228)" class="st7" width="5.43" height="36.4"/>
						</g>
						<g>
							
								<rect x="123.63" y="277.21" transform="matrix(0.7071 -0.7071 0.7071 0.7071 -156.3976 182.28)" class="st7" width="36.4" height="5.43"/>
						</g>
						<g>
							
								<rect x="139.24" y="283.8" transform="matrix(0.7071 -0.7071 0.7071 0.7071 -171.971 188.8299)" class="st7" width="5.43" height="36.4"/>
						</g>
						<g>
							
								<rect x="123.63" y="321.28" transform="matrix(0.7071 -0.7071 0.7071 0.7071 -187.5582 195.1871)" class="st7" width="36.4" height="5.43"/>
						</g>
					</g>
					<g>
						<g>
							
								<rect x="157.99" y="151.52" transform="matrix(0.7071 -0.7071 0.7071 0.7071 -72.9401 163.3448)" class="st7" width="5.43" height="36.4"/>
						</g>
						<g>
							
								<rect x="142.38" y="189" transform="matrix(0.7071 -0.7071 0.7071 0.7071 -88.5273 169.7047)" class="st7" width="36.4" height="5.43"/>
						</g>
						<g>
							
								<rect x="157.99" y="195.59" transform="matrix(0.7071 -0.7071 0.7071 0.7071 -104.1006 176.2531)" class="st7" width="5.43" height="36.4"/>
						</g>
						<g>
							
								<rect x="142.38" y="233.07" transform="matrix(0.7071 -0.7071 0.7071 0.7071 -119.6878 182.6105)" class="st7" width="36.4" height="5.43"/>
						</g>
						<g>
							
								<rect x="157.99" y="239.73" transform="matrix(0.7071 -0.7071 0.7071 0.7071 -135.3176 189.1836)" class="st7" width="5.43" height="36.4"/>
						</g>
						<g>
							
								<rect x="142.38" y="277.21" transform="matrix(0.7071 -0.7071 0.7071 0.7071 -150.9047 195.541)" class="st7" width="36.4" height="5.43"/>
						</g>
						<g>
							
								<rect x="157.99" y="283.8" transform="matrix(0.7071 -0.7071 0.7071 0.7071 -166.4781 202.0907)" class="st7" width="5.43" height="36.4"/>
						</g>
						<g>
							
								<rect x="142.38" y="321.28" transform="matrix(0.7071 -0.7071 0.7071 0.7071 -182.0653 208.4481)" class="st7" width="36.4" height="5.43"/>
						</g>
					</g>
					<g>
						<g>
							
								<rect x="176.75" y="151.52" transform="matrix(0.7071 -0.7071 0.7071 0.7071 -67.4473 176.6056)" class="st7" width="5.43" height="36.4"/>
						</g>
						<g>
							
								<rect x="161.14" y="189" transform="matrix(0.7071 -0.7071 0.7071 0.7071 -83.0344 182.9641)" class="st7" width="36.4" height="5.43"/>
						</g>
						<g>
							
								<rect x="176.75" y="195.59" transform="matrix(0.7071 -0.7071 0.7071 0.7071 -98.6077 189.5139)" class="st7" width="5.43" height="36.4"/>
						</g>
						<g>
							
								<rect x="161.14" y="233.07" transform="matrix(0.7071 -0.7071 0.7071 0.7071 -114.1947 195.8697)" class="st7" width="36.4" height="5.43"/>
						</g>
						<g>
							
								<rect x="176.75" y="239.73" transform="matrix(0.7071 -0.7071 0.7071 0.7071 -129.8248 202.4445)" class="st7" width="5.43" height="36.4"/>
						</g>
						<g>
							
								<rect x="161.14" y="277.21" transform="matrix(0.7071 -0.7071 0.7071 0.7071 -145.4115 208.8)" class="st7" width="36.4" height="5.43"/>
						</g>
						<g>
							
								<rect x="176.75" y="283.8" transform="matrix(0.7071 -0.7071 0.7071 0.7071 -160.9853 215.3516)" class="st7" width="5.43" height="36.4"/>
						</g>
						<g>
							
								<rect x="161.14" y="321.28" transform="matrix(0.7071 -0.7071 0.7071 0.7071 -176.572 221.707)" class="st7" width="36.4" height="5.43"/>
						</g>
					</g>
					<g>
						<g>
							
								<rect x="195.5" y="151.52" transform="matrix(0.7071 -0.7071 0.7071 0.7071 -61.9545 189.8664)" class="st7" width="5.43" height="36.4"/>
						</g>
						<g>
							
								<rect x="179.89" y="189" transform="matrix(0.7071 -0.7071 0.7071 0.7071 -77.5415 196.2265)" class="st7" width="36.4" height="5.43"/>
						</g>
						<g>
							
								<rect x="195.5" y="195.59" transform="matrix(0.7071 -0.7071 0.7071 0.7071 -93.1149 202.7749)" class="st7" width="5.43" height="36.4"/>
						</g>
						<g>
							
								<rect x="179.89" y="233.07" transform="matrix(0.7071 -0.7071 0.7071 0.7071 -108.7021 209.1322)" class="st7" width="36.4" height="5.43"/>
						</g>
						<g>
							
								<rect x="195.5" y="239.73" transform="matrix(0.7071 -0.7071 0.7071 0.7071 -124.332 215.7054)" class="st7" width="5.43" height="36.4"/>
						</g>
						<g>
							
								<rect x="179.89" y="277.21" transform="matrix(0.7071 -0.7071 0.7071 0.7071 -139.919 222.0626)" class="st7" width="36.4" height="5.43"/>
						</g>
						<g>
							
								<rect x="195.5" y="283.8" transform="matrix(0.7071 -0.7071 0.7071 0.7071 -155.4925 228.6125)" class="st7" width="5.43" height="36.4"/>
						</g>
						<g>
							
								<rect x="179.89" y="321.28" transform="matrix(0.7071 -0.7071 0.7071 0.7071 -171.0797 234.9698)" class="st7" width="36.4" height="5.43"/>
						</g>
					</g>
					<g>
						<g>
							
								<rect x="214.25" y="151.52" transform="matrix(0.7071 -0.7071 0.7071 0.7071 -56.4618 203.1272)" class="st7" width="5.43" height="36.4"/>
						</g>
						<g>
							
								<rect x="198.65" y="189" transform="matrix(0.7071 -0.7071 0.7071 0.7071 -72.0486 209.4875)" class="st7" width="36.4" height="5.43"/>
						</g>
						<g>
							
								<rect x="214.25" y="195.59" transform="matrix(0.7071 -0.7071 0.7071 0.7071 -87.6221 216.0357)" class="st7" width="5.43" height="36.4"/>
						</g>
						<g>
							
								<rect x="198.65" y="233.07" transform="matrix(0.7071 -0.7071 0.7071 0.7071 -103.2093 222.3931)" class="st7" width="36.4" height="5.43"/>
						</g>
						<g>
							
								<rect x="214.25" y="239.73" transform="matrix(0.7071 -0.7071 0.7071 0.7071 -118.8391 228.9663)" class="st7" width="5.43" height="36.4"/>
						</g>
						<g>
							
								<rect x="198.65" y="277.21" transform="matrix(0.7071 -0.7071 0.7071 0.7071 -134.4262 235.3236)" class="st7" width="36.4" height="5.43"/>
						</g>
						<g>
							
								<rect x="214.25" y="283.8" transform="matrix(0.7071 -0.7071 0.7071 0.7071 -149.9996 241.8734)" class="st7" width="5.43" height="36.4"/>
						</g>
						<g>
							
								<rect x="198.65" y="321.28" transform="matrix(0.7071 -0.7071 0.7071 0.7071 -165.5868 248.2307)" class="st7" width="36.4" height="5.43"/>
						</g>
					</g>
					<g>
						<g>
							
								<rect x="233.01" y="151.52" transform="matrix(0.7071 -0.7071 0.7071 0.7071 -50.969 216.388)" class="st7" width="5.43" height="36.4"/>
						</g>
						<g>
							
								<rect x="217.4" y="189" transform="matrix(0.7071 -0.7071 0.7071 0.7071 -66.5557 222.7484)" class="st7" width="36.4" height="5.43"/>
						</g>
						<g>
							
								<rect x="233.01" y="195.59" transform="matrix(0.7071 -0.7071 0.7071 0.7071 -82.1292 229.2966)" class="st7" width="5.43" height="36.4"/>
						</g>
						<g>
							
								<rect x="217.4" y="233.07" transform="matrix(0.7071 -0.7071 0.7071 0.7071 -97.7164 235.6539)" class="st7" width="36.4" height="5.43"/>
						</g>
						<g>
							
								<rect x="233.01" y="239.73" transform="matrix(0.7071 -0.7071 0.7071 0.7071 -113.3463 242.2271)" class="st7" width="5.43" height="36.4"/>
						</g>
						<g>
							
								<rect x="217.4" y="277.21" transform="matrix(0.7071 -0.7071 0.7071 0.7071 -128.9334 248.5844)" class="st7" width="36.4" height="5.43"/>
						</g>
						<g>
							
								<rect x="233.01" y="283.8" transform="matrix(0.7071 -0.7071 0.7071 0.7071 -144.5068 255.1342)" class="st7" width="5.43" height="36.4"/>
						</g>
						<g>
							
								<rect x="217.4" y="321.28" transform="matrix(0.7071 -0.7071 0.7071 0.7071 -160.094 261.4916)" class="st7" width="36.4" height="5.43"/>
						</g>
					</g>
					<g>
						<g>
							
								<rect x="251.76" y="151.52" transform="matrix(0.7071 -0.7071 0.7071 0.7071 -45.4762 229.6488)" class="st7" width="5.43" height="36.4"/>
						</g>
						<g>
							
								<rect x="236.15" y="189" transform="matrix(0.7071 -0.7071 0.7071 0.7071 -61.0628 236.0093)" class="st7" width="36.4" height="5.43"/>
						</g>
						<g>
							
								<rect x="251.76" y="195.59" transform="matrix(0.7071 -0.7071 0.7071 0.7071 -76.6364 242.5575)" class="st7" width="5.43" height="36.4"/>
						</g>
						<g>
							
								<rect x="236.15" y="233.07" transform="matrix(0.7071 -0.7071 0.7071 0.7071 -92.2236 248.9148)" class="st7" width="36.4" height="5.43"/>
						</g>
						<g>
							
								<rect x="251.76" y="239.73" transform="matrix(0.7071 -0.7071 0.7071 0.7071 -107.8535 255.4881)" class="st7" width="5.43" height="36.4"/>
						</g>
						<g>
							
								<rect x="236.15" y="277.21" transform="matrix(0.7071 -0.7071 0.7071 0.7071 -123.4405 261.8453)" class="st7" width="36.4" height="5.43"/>
						</g>
						<g>
							
								<rect x="251.76" y="283.8" transform="matrix(0.7071 -0.7071 0.7071 0.7071 -139.014 268.3952)" class="st7" width="5.43" height="36.4"/>
						</g>
						<g>
							
								<rect x="236.15" y="321.28" transform="matrix(0.7071 -0.7071 0.7071 0.7071 -154.6012 274.7524)" class="st7" width="36.4" height="5.43"/>
						</g>
					</g>
				</g>
				<g>
					<g>
						<g>
							
								<rect x="271.23" y="151.52" transform="matrix(0.7071 -0.7071 0.7071 0.7071 -39.7749 243.4135)" class="st7" width="5.43" height="36.4"/>
						</g>
						<g>
							
								<rect x="255.62" y="189" transform="matrix(0.7071 -0.7071 0.7071 0.7071 -55.3614 249.7738)" class="st7" width="36.4" height="5.43"/>
						</g>
						<g>
							
								<rect x="271.23" y="195.59" transform="matrix(0.7071 -0.7071 0.7071 0.7071 -70.935 256.3222)" class="st7" width="5.43" height="36.4"/>
						</g>
						<g>
							
								<rect x="255.62" y="233.07" transform="matrix(0.7071 -0.7071 0.7071 0.7071 -86.5222 262.6791)" class="st7" width="36.4" height="5.43"/>
						</g>
						<g>
							
								<rect x="271.23" y="239.73" transform="matrix(0.7071 -0.7071 0.7071 0.7071 -102.1521 269.2528)" class="st7" width="5.43" height="36.4"/>
						</g>
						<g>
							
								<rect x="255.62" y="277.21" transform="matrix(0.7071 -0.7071 0.7071 0.7071 -117.7392 275.6096)" class="st7" width="36.4" height="5.43"/>
						</g>
						<g>
							
								<rect x="271.23" y="283.8" transform="matrix(0.7071 -0.7071 0.7071 0.7071 -133.3126 282.1599)" class="st7" width="5.43" height="36.4"/>
						</g>
						<g>
							
								<rect x="255.62" y="321.28" transform="matrix(0.7071 -0.7071 0.7071 0.7071 -148.8998 288.5168)" class="st7" width="36.4" height="5.43"/>
						</g>
					</g>
					<g>
						<g>
							
								<rect x="289.98" y="151.52" transform="matrix(0.7071 -0.7071 0.7071 0.7071 -34.2822 256.6739)" class="st7" width="5.43" height="36.4"/>
						</g>
						<g>
							
								<rect x="274.37" y="189" transform="matrix(0.7071 -0.7071 0.7071 0.7071 -49.8685 263.0347)" class="st7" width="36.4" height="5.43"/>
						</g>
						<g>
							
								<rect x="289.98" y="195.59" transform="matrix(0.7071 -0.7071 0.7071 0.7071 -65.4422 269.5827)" class="st7" width="5.43" height="36.4"/>
						</g>
						<g>
							
								<rect x="274.37" y="233.07" transform="matrix(0.7071 -0.7071 0.7071 0.7071 -81.0294 275.94)" class="st7" width="36.4" height="5.43"/>
						</g>
						<g>
							
								<rect x="289.98" y="239.73" transform="matrix(0.7071 -0.7071 0.7071 0.7071 -96.6592 282.5132)" class="st7" width="5.43" height="36.4"/>
						</g>
						<g>
							
								<rect x="274.37" y="277.21" transform="matrix(0.7071 -0.7071 0.7071 0.7071 -112.2463 288.8705)" class="st7" width="36.4" height="5.43"/>
						</g>
						<g>
							
								<rect x="289.98" y="283.8" transform="matrix(0.7071 -0.7071 0.7071 0.7071 -127.8198 295.4203)" class="st7" width="5.43" height="36.4"/>
						</g>
						<g>
							
								<rect x="274.37" y="321.28" transform="matrix(0.7071 -0.7071 0.7071 0.7071 -143.407 301.7776)" class="st7" width="36.4" height="5.43"/>
						</g>
					</g>
					<g>
						<g>
							
								<rect x="308.73" y="151.52" transform="matrix(0.7071 -0.7071 0.7071 0.7071 -28.7894 269.9348)" class="st7" width="5.43" height="36.4"/>
						</g>
						<g>
							
								<rect x="293.13" y="189" transform="matrix(0.7071 -0.7071 0.7071 0.7071 -44.3757 276.2952)" class="st7" width="36.4" height="5.43"/>
						</g>
						<g>
							
								<rect x="308.73" y="195.59" transform="matrix(0.7071 -0.7071 0.7071 0.7071 -59.9493 282.8437)" class="st7" width="5.43" height="36.4"/>
						</g>
						<g>
							
								<rect x="293.13" y="233.07" transform="matrix(0.7071 -0.7071 0.7071 0.7071 -75.5366 289.2004)" class="st7" width="36.4" height="5.43"/>
						</g>
						<g>
							
								<rect x="308.73" y="239.73" transform="matrix(0.7071 -0.7071 0.7071 0.7071 -91.1664 295.7742)" class="st7" width="5.43" height="36.4"/>
						</g>
						<g>
							
								<rect x="293.13" y="277.21" transform="matrix(0.7071 -0.7071 0.7071 0.7071 -106.7535 302.1309)" class="st7" width="36.4" height="5.43"/>
						</g>
						<g>
							
								<rect x="308.73" y="283.8" transform="matrix(0.7071 -0.7071 0.7071 0.7071 -122.3269 308.6813)" class="st7" width="5.43" height="36.4"/>
						</g>
						<g>
							
								<rect x="293.13" y="321.28" transform="matrix(0.7071 -0.7071 0.7071 0.7071 -137.9141 315.038)" class="st7" width="36.4" height="5.43"/>
						</g>
					</g>
					<g>
						<g>
							
								<rect x="327.49" y="151.52" transform="matrix(0.7071 -0.7071 0.7071 0.7071 -23.2966 283.1956)" class="st7" width="5.43" height="36.4"/>
						</g>
						<g>
							
								<rect x="311.88" y="189" transform="matrix(0.7071 -0.7071 0.7071 0.7071 -38.8827 289.5562)" class="st7" width="36.4" height="5.43"/>
						</g>
						<g>
							
								<rect x="327.49" y="195.59" transform="matrix(0.7071 -0.7071 0.7071 0.7071 -54.4565 296.1046)" class="st7" width="5.43" height="36.4"/>
						</g>
						<g>
							
								<rect x="311.88" y="233.07" transform="matrix(0.7071 -0.7071 0.7071 0.7071 -70.0438 302.4614)" class="st7" width="36.4" height="5.43"/>
						</g>
						<g>
							
								<rect x="327.49" y="239.73" transform="matrix(0.7071 -0.7071 0.7071 0.7071 -85.6736 309.0351)" class="st7" width="5.43" height="36.4"/>
						</g>
						<g>
							
								<rect x="311.88" y="277.21" transform="matrix(0.7071 -0.7071 0.7071 0.7071 -101.2606 315.3918)" class="st7" width="36.4" height="5.43"/>
						</g>
						<g>
							
								<rect x="327.49" y="283.8" transform="matrix(0.7071 -0.7071 0.7071 0.7071 -116.8341 321.9422)" class="st7" width="5.43" height="36.4"/>
						</g>
						<g>
							
								<rect x="311.88" y="321.28" transform="matrix(0.7071 -0.7071 0.7071 0.7071 -132.4212 328.2989)" class="st7" width="36.4" height="5.43"/>
						</g>
					</g>
					<g>
						<g>
							
								<rect x="346.24" y="151.52" transform="matrix(0.7071 -0.7071 0.7071 0.7071 -17.8025 296.4604)" class="st7" width="5.43" height="36.4"/>
						</g>
						<g>
							
								<rect x="330.63" y="189" transform="matrix(0.7071 -0.7071 0.7071 0.7071 -33.3897 302.8176)" class="st7" width="36.4" height="5.43"/>
						</g>
						<g>
							
								<rect x="346.24" y="195.59" transform="matrix(0.7071 -0.7071 0.7071 0.7071 -48.9626 309.3697)" class="st7" width="5.43" height="36.4"/>
						</g>
						<g>
							
								<rect x="330.63" y="233.07" transform="matrix(0.7071 -0.7071 0.7071 0.7071 -64.5509 315.7227)" class="st7" width="36.4" height="5.43"/>
						</g>
						<g>
							
								<rect x="346.24" y="239.73" transform="matrix(0.7071 -0.7071 0.7071 0.7071 -80.18 322.3006)" class="st7" width="5.43" height="36.4"/>
						</g>
						<g>
							
								<rect x="330.63" y="277.21" transform="matrix(0.7071 -0.7071 0.7071 0.7071 -95.7678 328.6531)" class="st7" width="36.4" height="5.43"/>
						</g>
						<g>
							
								<rect x="346.24" y="283.8" transform="matrix(0.7071 -0.7071 0.7071 0.7071 -111.3408 335.208)" class="st7" width="5.43" height="36.4"/>
						</g>
						<g>
							
								<rect x="330.63" y="321.28" transform="matrix(0.7071 -0.7071 0.7071 0.7071 -126.9284 341.5603)" class="st7" width="36.4" height="5.43"/>
						</g>
					</g>
					<g>
						<g>
							
								<rect x="364.99" y="151.52" transform="matrix(0.7071 -0.7071 0.7071 0.7071 -12.3103 309.7194)" class="st7" width="5.43" height="36.4"/>
						</g>
						<g>
							
								<rect x="349.39" y="189" transform="matrix(0.7071 -0.7071 0.7071 0.7071 -27.8968 316.0786)" class="st7" width="36.4" height="5.43"/>
						</g>
						<g>
							
								<rect x="364.99" y="195.59" transform="matrix(0.7071 -0.7071 0.7071 0.7071 -43.4702 322.6286)" class="st7" width="5.43" height="36.4"/>
						</g>
						<g>
							
								<rect x="349.39" y="233.07" transform="matrix(0.7071 -0.7071 0.7071 0.7071 -59.058 328.9836)" class="st7" width="36.4" height="5.43"/>
						</g>
						<g>
							
								<rect x="364.99" y="239.73" transform="matrix(0.7071 -0.7071 0.7071 0.7071 -74.6874 335.5593)" class="st7" width="5.43" height="36.4"/>
						</g>
						<g>
							
								<rect x="349.39" y="277.21" transform="matrix(0.7071 -0.7071 0.7071 0.7071 -90.2749 341.9141)" class="st7" width="36.4" height="5.43"/>
						</g>
						<g>
							
								<rect x="364.99" y="283.8" transform="matrix(0.7071 -0.7071 0.7071 0.7071 -105.8481 348.4666)" class="st7" width="5.43" height="36.4"/>
						</g>
						<g>
							
								<rect x="349.39" y="321.28" transform="matrix(0.7071 -0.7071 0.7071 0.7071 -121.4356 354.8213)" class="st7" width="36.4" height="5.43"/>
						</g>
					</g>
					<g>
						<g>
							
								<rect x="383.75" y="151.52" transform="matrix(0.7071 -0.7071 0.7071 0.7071 -6.8182 322.9783)" class="st7" width="5.43" height="36.4"/>
						</g>
						<g>
							
								<rect x="368.14" y="189" transform="matrix(0.7071 -0.7071 0.7071 0.7071 -22.4039 329.3396)" class="st7" width="36.4" height="5.43"/>
						</g>
						<g>
							
								<rect x="383.75" y="195.59" transform="matrix(0.7071 -0.7071 0.7071 0.7071 -37.9779 335.8875)" class="st7" width="5.43" height="36.4"/>
						</g>
						<g>
							
								<rect x="368.14" y="233.07" transform="matrix(0.7071 -0.7071 0.7071 0.7071 -53.5652 342.2446)" class="st7" width="36.4" height="5.43"/>
						</g>
						<g>
							
								<rect x="383.75" y="239.73" transform="matrix(0.7071 -0.7071 0.7071 0.7071 -69.1949 348.818)" class="st7" width="5.43" height="36.4"/>
						</g>
						<g>
							
								<rect x="368.14" y="277.21" transform="matrix(0.7071 -0.7071 0.7071 0.7071 -84.7821 355.175)" class="st7" width="36.4" height="5.43"/>
						</g>
						<g>
							
								<rect x="383.75" y="283.8" transform="matrix(0.7071 -0.7071 0.7071 0.7071 -100.3554 361.7251)" class="st7" width="5.43" height="36.4"/>
						</g>
						<g>
							
								<rect x="368.14" y="321.28" transform="matrix(0.7071 -0.7071 0.7071 0.7071 -115.9427 368.0822)" class="st7" width="36.4" height="5.43"/>
						</g>
					</g>
					<g>
						<g>
							
								<rect x="402.5" y="151.52" transform="matrix(0.7071 -0.7071 0.7071 0.7071 -1.3254 336.2392)" class="st7" width="5.43" height="36.4"/>
						</g>
						<g>
							
								<rect x="386.89" y="189" transform="matrix(0.7071 -0.7071 0.7071 0.7071 -16.9109 342.6006)" class="st7" width="36.4" height="5.43"/>
						</g>
						<g>
							
								<rect x="402.5" y="195.59" transform="matrix(0.7071 -0.7071 0.7071 0.7071 -32.485 349.1484)" class="st7" width="5.43" height="36.4"/>
						</g>
						<g>
							
								<rect x="386.9" y="233.07" transform="matrix(0.7071 -0.7071 0.7071 0.7071 -48.0723 355.5055)" class="st7" width="36.4" height="5.43"/>
						</g>
						<g>
							
								<rect x="402.5" y="239.73" transform="matrix(0.7071 -0.7071 0.7071 0.7071 -63.7021 362.0789)" class="st7" width="5.43" height="36.4"/>
						</g>
						<g>
							
								<rect x="386.89" y="277.21" transform="matrix(0.7071 -0.7071 0.7071 0.7071 -79.2892 368.436)" class="st7" width="36.4" height="5.43"/>
						</g>
						<g>
							
								<rect x="402.5" y="283.8" transform="matrix(0.7071 -0.7071 0.7071 0.7071 -94.8626 374.9861)" class="st7" width="5.43" height="36.4"/>
						</g>
						<g>
							
								<rect x="386.9" y="321.28" transform="matrix(0.7071 -0.7071 0.7071 0.7071 -110.4499 381.3431)" class="st7" width="36.4" height="5.43"/>
						</g>
					</g>
					<g>
						<g>
							
								<rect x="421.26" y="151.52" transform="matrix(0.7071 -0.7071 0.7071 0.7071 4.1673 349.4999)" class="st7" width="5.43" height="36.4"/>
						</g>
						<g>
							
								<rect x="405.65" y="189" transform="matrix(0.7071 -0.7071 0.7071 0.7071 -11.418 355.8615)" class="st7" width="36.4" height="5.43"/>
						</g>
						<g>
							
								<rect x="421.26" y="195.59" transform="matrix(0.7071 -0.7071 0.7071 0.7071 -26.9922 362.4092)" class="st7" width="5.43" height="36.4"/>
						</g>
						<g>
							
								<rect x="405.65" y="233.07" transform="matrix(0.7071 -0.7071 0.7071 0.7071 -42.5795 368.7664)" class="st7" width="36.4" height="5.43"/>
						</g>
						<g>
							
								<rect x="421.26" y="239.73" transform="matrix(0.7071 -0.7071 0.7071 0.7071 -58.2093 375.3398)" class="st7" width="5.43" height="36.4"/>
						</g>
						<g>
							
								<rect x="405.65" y="277.21" transform="matrix(0.7071 -0.7071 0.7071 0.7071 -73.7964 381.6968)" class="st7" width="36.4" height="5.43"/>
						</g>
						<g>
							
								<rect x="421.26" y="283.8" transform="matrix(0.7071 -0.7071 0.7071 0.7071 -89.3698 388.2469)" class="st7" width="5.43" height="36.4"/>
						</g>
						<g>
							
								<rect x="405.65" y="321.28" transform="matrix(0.7071 -0.7071 0.7071 0.7071 -104.957 394.604)" class="st7" width="36.4" height="5.43"/>
						</g>
					</g>
				</g>
			</g>
		</g>
		<g>
			<path class="st4" d="M145.39,335.21c-0.97-14.11,26.01-18.68,40.02-12.01c14.01,6.67,64.7,44.02,78.04,54.03
				c13.34,10,41.35,35.35,41.35,35.35l-17.34,22.68c0,0-66.03-40.02-97.38-54.02C158.73,367.22,146.72,354.55,145.39,335.21z"/>
		</g>
		<g>
			<path class="st11" d="M373.47,335.21c0.97-14.11-26.01-18.68-40.02-12.01c-14.01,6.67-64.7,44.02-78.04,54.03
				c-13.34,10-41.35,35.35-41.35,35.35l17.34,22.68c0,0,66.03-40.02,97.38-54.02C360.13,367.22,372.13,354.55,373.47,335.21z"/>
		</g>
		<g>
			<path class="st12" d="M214.06,412.57l17.34,22.68c0,0-4.64,32.24-13.54,34.02c-8.89,1.78-11.12-30.24-12.89-40.91
				S214.06,412.57,214.06,412.57z"/>
		</g>
		<g>
			<path class="st12" d="M304.49,412.57l-17.34,22.68c0,0,4.64,32.24,13.54,34.02c8.89,1.78,11.12-30.24,12.9-40.91
				C315.36,417.69,304.49,412.57,304.49,412.57z"/>
		</g>
		<g>
			<path class="st13" d="M257.49,223.46c16.15,0,16.05-10.98,16.05-13.62v-17.87c0-4.05-6.04-3.71-9.63-3.71h-11.56
				c-3.59,0-9.63,3.28-9.63,7.33v14.25C242.73,212.45,244.43,223.46,257.49,223.46z"/>
		</g>
		<g>
			<path class="st9" d="M248.08,201.17c11.84,9.47,20.54,0.69,30.01-11.15c9.47-11.84,7.55-29.11-4.29-38.58
				c-11.84-9.47-29.11-7.55-38.58,4.29C225.75,167.57,236.24,191.7,248.08,201.17z"/>
		</g>
		<g>
			<defs>
				<path id="SVGID_8_" d="M248.08,201.17c11.84,9.47,20.54,0.69,30.01-11.15c9.47-11.84,10.53-30.1-1.31-39.57
					c-11.84-9.47-32.1-6.56-41.57,5.28C225.75,167.57,236.24,191.7,248.08,201.17z"/>
			</defs>
			<clipPath id="SVGID_9_">
				<use xlink:href="#SVGID_8_"  style="overflow:visible;"/>
			</clipPath>
			<g class="st14">
				<path class="st15" d="M230.98,187.36c0,0,6.56-25.12,14.12-29.57c7.56-4.45,10.06,4.08,13.01,4.34c2.79,0.24,5-6.37,10-5
					c14.67,4,17.56,39.57,17.56,39.57s17.34-52.91-18.23-60.03c-35.57-7.11-41.8,17.79-41.35,23.57
					C226.54,166.02,230.98,187.36,230.98,187.36z"/>
			</g>
		</g>
		<g>
			<path class="st15" d="M256.77,149.45c-4.34-2.33-14.34-17.01-7.67-25.35c5.02-6.27,19.8-4.98,21.01,4.67
				c1.33,10.67-5,21.01-7.34,22.34C260.44,152.45,256.77,149.45,256.77,149.45z"/>
		</g>
	</g>
	<g>
		<g>
			<circle class="st8" cx="256" cy="39.27" r="38.93"/>
		</g>
		<g>
			<circle class="st7" cx="256" cy="39.27" r="32.37"/>
		</g>
		<g>
			<path class="st5" d="M257.19,11.11c0,0.66-0.53,1.19-1.19,1.19c-0.66,0-1.19-0.53-1.19-1.19c0-0.66,0.53-1.19,1.19-1.19
				C256.66,9.91,257.19,10.45,257.19,11.11z"/>
		</g>
		<g>
			<path class="st5" d="M242.95,14.28c0.33,0.57,0.13,1.3-0.44,1.63c-0.57,0.33-1.3,0.13-1.63-0.44c-0.33-0.57-0.13-1.3,0.44-1.63
				C241.89,13.51,242.62,13.71,242.95,14.28z"/>
		</g>
		<g>
			<path class="st5" d="M232.2,24.15c0.57,0.33,0.77,1.06,0.44,1.63c-0.33,0.57-1.06,0.77-1.63,0.44c-0.57-0.33-0.77-1.06-0.44-1.63
				C230.9,24.02,231.63,23.83,232.2,24.15z"/>
		</g>
		<g>
			<path class="st5" d="M227.83,38.08c0.66,0,1.19,0.53,1.19,1.19s-0.53,1.19-1.19,1.19c-0.66,0-1.19-0.53-1.19-1.19
				S227.17,38.08,227.83,38.08z"/>
		</g>
		<g>
			<path class="st5" d="M231.01,52.32c0.57-0.33,1.3-0.13,1.63,0.44c0.33,0.57,0.13,1.3-0.44,1.63c-0.57,0.33-1.3,0.13-1.63-0.44
				C230.24,53.38,230.44,52.65,231.01,52.32z"/>
		</g>
		<g>
			<path class="st5" d="M240.88,63.07c0.33-0.57,1.06-0.77,1.63-0.44c0.57,0.33,0.77,1.06,0.44,1.63c-0.33,0.57-1.06,0.77-1.63,0.44
				C240.75,64.37,240.55,63.64,240.88,63.07z"/>
		</g>
		<g>
			<path class="st5" d="M254.81,67.44c0-0.66,0.53-1.19,1.19-1.19c0.66,0,1.19,0.53,1.19,1.19c0,0.66-0.53,1.19-1.19,1.19
				C255.34,68.63,254.81,68.1,254.81,67.44z"/>
		</g>
		<g>
			<path class="st5" d="M269.05,64.26c-0.33-0.57-0.13-1.3,0.44-1.63c0.57-0.33,1.3-0.13,1.63,0.44s0.13,1.3-0.44,1.63
				C270.11,65.03,269.38,64.83,269.05,64.26z"/>
		</g>
		<g>
			<path class="st5" d="M279.8,54.39c-0.57-0.33-0.77-1.06-0.44-1.63c0.33-0.57,1.06-0.77,1.63-0.44c0.57,0.33,0.77,1.06,0.44,1.63
				C281.1,54.52,280.37,54.72,279.8,54.39z"/>
		</g>
		<g>
			<path class="st5" d="M284.17,40.47c-0.66,0-1.19-0.53-1.19-1.19s0.53-1.19,1.19-1.19c0.66,0,1.19,0.53,1.19,1.19
				S284.83,40.47,284.17,40.47z"/>
		</g>
		<g>
			<path class="st5" d="M280.99,26.22c-0.57,0.33-1.3,0.13-1.63-0.44c-0.33-0.57-0.13-1.3,0.44-1.63c0.57-0.33,1.3-0.13,1.63,0.44
				C281.76,25.16,281.56,25.89,280.99,26.22z"/>
		</g>
		<g>
			<path class="st5" d="M271.12,15.48c-0.33,0.57-1.06,0.77-1.63,0.44c-0.57-0.33-0.77-1.06-0.44-1.63
				c0.33-0.57,1.06-0.77,1.63-0.44C271.25,14.17,271.45,14.9,271.12,15.48z"/>
		</g>
		<g>
			
				<rect x="247.77" y="27.3" transform="matrix(0.5015 -0.8652 0.8652 0.5015 94.0675 232.7533)" class="st11" width="2.49" height="14.9"/>
		</g>
		<g>
			
				<rect x="255.02" y="32.37" transform="matrix(0.8758 -0.4827 0.4827 0.8758 17.0016 132.6457)" class="st11" width="22.41" height="1.84"/>
		</g>
		<g>
			<path class="st12" d="M261.67,39.27c0,3.13-2.54,5.67-5.67,5.67c-3.13,0-5.67-2.54-5.67-5.67s2.54-5.67,5.67-5.67
				C259.13,33.6,261.67,36.14,261.67,39.27z"/>
		</g>
	</g>
	<g>
		<g>
			<g>
				
					<ellipse transform="matrix(0.31 -0.9507 0.9507 0.31 -26.5917 204.9866)" class="st5" cx="127.93" cy="120.81" rx="38.93" ry="38.93"/>
			</g>
			<g>
				
					<ellipse transform="matrix(0.9904 -0.1379 0.1379 0.9904 -15.4361 18.7935)" class="st12" cx="127.93" cy="120.81" rx="32.37" ry="32.37"/>
			</g>
			<g>
				<path class="st5" d="M102.4,108.85c0.61,0.25,0.9,0.95,0.64,1.56c-0.25,0.61-0.95,0.9-1.56,0.64c-0.61-0.25-0.9-0.95-0.64-1.56
					C101.1,108.89,101.79,108.6,102.4,108.85z"/>
			</g>
			<g>
				<path class="st5" d="M99.84,123.22c0.65-0.08,1.25,0.38,1.34,1.03c0.08,0.65-0.38,1.25-1.03,1.34
					c-0.65,0.08-1.25-0.38-1.34-1.03C98.73,123.9,99.19,123.31,99.84,123.22z"/>
			</g>
			<g>
				<path class="st5" d="M104.81,136.94c0.52-0.4,1.27-0.3,1.67,0.23c0.4,0.52,0.3,1.27-0.23,1.67c-0.52,0.4-1.27,0.3-1.67-0.23
					C104.19,138.09,104.29,137.34,104.81,136.94z"/>
			</g>
			<g>
				<path class="st5" d="M115.97,146.34c0.25-0.61,0.95-0.9,1.56-0.64c0.61,0.25,0.9,0.95,0.64,1.56c-0.25,0.61-0.95,0.9-1.56,0.64
					C116.01,147.65,115.72,146.95,115.97,146.34z"/>
			</g>
			<g>
				<path class="st5" d="M130.34,148.9c-0.08-0.65,0.38-1.25,1.03-1.34c0.65-0.08,1.25,0.38,1.34,1.03
					c0.08,0.65-0.38,1.25-1.03,1.34C131.02,150.02,130.42,149.56,130.34,148.9z"/>
			</g>
			<g>
				<path class="st5" d="M144.06,143.94c-0.4-0.52-0.3-1.27,0.23-1.67c0.52-0.4,1.27-0.3,1.67,0.23c0.4,0.52,0.3,1.27-0.23,1.67
					C145.21,144.56,144.46,144.46,144.06,143.94z"/>
			</g>
			<g>
				<path class="st5" d="M153.46,132.77c-0.61-0.25-0.9-0.95-0.64-1.56c0.25-0.61,0.95-0.9,1.56-0.64c0.61,0.25,0.9,0.95,0.64,1.56
					C154.77,132.74,154.07,133.03,153.46,132.77z"/>
			</g>
			<g>
				<path class="st5" d="M156.02,118.41c-0.65,0.08-1.25-0.38-1.34-1.03c-0.08-0.65,0.38-1.25,1.03-1.34
					c0.65-0.08,1.25,0.38,1.34,1.03C157.14,117.72,156.68,118.32,156.02,118.41z"/>
			</g>
			<g>
				<path class="st5" d="M151.06,104.68c-0.52,0.4-1.27,0.3-1.67-0.23c-0.4-0.52-0.3-1.27,0.23-1.67c0.52-0.4,1.27-0.3,1.67,0.23
					C151.68,103.54,151.58,104.28,151.06,104.68z"/>
			</g>
			<g>
				<path class="st5" d="M139.89,95.28c-0.25,0.61-0.95,0.9-1.56,0.64c-0.61-0.25-0.9-0.95-0.64-1.56c0.25-0.61,0.95-0.9,1.56-0.64
					C139.86,93.98,140.15,94.68,139.89,95.28z"/>
			</g>
			<g>
				<path class="st5" d="M125.53,92.72c0.08,0.65-0.38,1.25-1.03,1.34c-0.65,0.08-1.25-0.38-1.34-1.03
					c-0.08-0.65,0.38-1.25,1.03-1.34C124.84,91.61,125.44,92.07,125.53,92.72z"/>
			</g>
			<g>
				<path class="st5" d="M111.8,97.69c0.4,0.52,0.3,1.27-0.23,1.67c-0.52,0.4-1.27,0.3-1.67-0.23c-0.4-0.52-0.3-1.27,0.23-1.67
					C110.65,97.07,111.4,97.17,111.8,97.69z"/>
			</g>
			<g>
				
					<rect x="113.61" y="124.27" transform="matrix(0.7963 -0.6049 0.6049 0.7963 -51.2647 98.7928)" class="st11" width="14.9" height="2.49"/>
			</g>
			<g>
				
					<rect x="125.43" y="97.88" transform="matrix(0.9942 -0.108 0.108 0.9942 -11.0371 14.2779)" class="st11" width="1.84" height="22.41"/>
			</g>
			<g>
				<path class="st5" d="M130.12,115.58c2.89,1.21,4.26,4.53,3.05,7.42c-1.21,2.89-4.53,4.26-7.42,3.05
					c-2.89-1.21-4.26-4.53-3.05-7.42C123.91,115.74,127.23,114.37,130.12,115.58z"/>
			</g>
		</g>
		<g>
			<g>
				
					<ellipse transform="matrix(0.9933 -0.116 0.116 0.9933 -11.8461 45.3769)" class="st11" cx="384.07" cy="124.5" rx="38.93" ry="38.93"/>
			</g>
			<g>
				<path class="st8" d="M416.16,120.29c2.32,17.72-10.16,33.98-27.88,36.3c-17.72,2.32-33.98-10.16-36.3-27.88
					c-2.32-17.72,10.16-33.98,27.88-36.3S413.84,102.57,416.16,120.29z"/>
			</g>
			<g>
				<path class="st5" d="M381.59,96.42c0.09,0.65-0.37,1.25-1.03,1.34c-0.65,0.09-1.25-0.37-1.34-1.03
					c-0.09-0.65,0.37-1.25,1.03-1.34C380.91,95.3,381.51,95.76,381.59,96.42z"/>
			</g>
			<g>
				<path class="st5" d="M367.88,101.42c0.4,0.52,0.3,1.27-0.22,1.67c-0.52,0.4-1.27,0.3-1.67-0.22c-0.4-0.52-0.3-1.27,0.22-1.67
					C366.73,100.8,367.48,100.9,367.88,101.42z"/>
			</g>
			<g>
				<path class="st5" d="M358.51,112.61c0.61,0.25,0.9,0.95,0.65,1.56c-0.25,0.61-0.95,0.9-1.56,0.65c-0.61-0.25-0.9-0.95-0.65-1.56
					C357.2,112.64,357.9,112.35,358.51,112.61z"/>
			</g>
			<g>
				<path class="st5" d="M355.99,126.98c0.65-0.09,1.25,0.37,1.34,1.03c0.09,0.65-0.37,1.25-1.03,1.34
					c-0.65,0.09-1.25-0.37-1.34-1.03C354.87,127.67,355.33,127.07,355.99,126.98z"/>
			</g>
			<g>
				<path class="st5" d="M360.99,140.69c0.52-0.4,1.27-0.3,1.67,0.22c0.4,0.52,0.3,1.27-0.22,1.67c-0.52,0.4-1.27,0.3-1.67-0.22
					C360.37,141.84,360.47,141.09,360.99,140.69z"/>
			</g>
			<g>
				<path class="st5" d="M372.18,150.06c0.25-0.61,0.95-0.9,1.56-0.65c0.61,0.25,0.9,0.95,0.65,1.56c-0.25,0.61-0.95,0.9-1.56,0.65
					C372.21,151.37,371.93,150.67,372.18,150.06z"/>
			</g>
			<g>
				<path class="st5" d="M386.55,152.58c-0.09-0.65,0.37-1.25,1.03-1.34c0.65-0.09,1.25,0.37,1.34,1.03
					c0.09,0.65-0.37,1.25-1.03,1.34C387.24,153.7,386.64,153.24,386.55,152.58z"/>
			</g>
			<g>
				<path class="st5" d="M400.26,147.58c-0.4-0.52-0.3-1.27,0.22-1.67c0.52-0.4,1.27-0.3,1.67,0.22c0.4,0.52,0.3,1.27-0.22,1.67
					C401.41,148.2,400.66,148.1,400.26,147.58z"/>
			</g>
			<g>
				<path class="st5" d="M409.63,136.39c-0.61-0.25-0.9-0.95-0.65-1.56c0.25-0.61,0.95-0.9,1.56-0.65c0.61,0.25,0.9,0.95,0.65,1.56
					C410.94,136.36,410.24,136.65,409.63,136.39z"/>
			</g>
			<g>
				<path class="st5" d="M412.16,122.02c-0.65,0.09-1.25-0.37-1.34-1.03c-0.09-0.65,0.37-1.25,1.03-1.34
					c0.65-0.09,1.25,0.37,1.34,1.03C413.27,121.34,412.81,121.93,412.16,122.02z"/>
			</g>
			<g>
				<path class="st5" d="M407.15,108.31c-0.52,0.4-1.27,0.3-1.67-0.22c-0.4-0.52-0.3-1.27,0.22-1.67c0.52-0.4,1.27-0.3,1.67,0.22
					S407.68,107.91,407.15,108.31z"/>
			</g>
			<g>
				<path class="st5" d="M395.97,98.94c-0.25,0.61-0.95,0.9-1.56,0.65s-0.9-0.95-0.65-1.56c0.25-0.61,0.95-0.9,1.56-0.65
					C395.93,97.63,396.22,98.33,395.97,98.94z"/>
			</g>
			<g>
				
					<rect x="375.31" y="113.47" transform="matrix(0.3848 -0.923 0.923 0.3848 120.0287 421.9377)" class="st11" width="2.49" height="14.9"/>
			</g>
			<g>
				
					<rect x="382.22" y="116.32" transform="matrix(0.8055 -0.5926 0.5926 0.8055 7.0527 255.9653)" class="st11" width="22.41" height="1.84"/>
			</g>
			<g>
				<path class="st7" d="M389.7,123.76c0.41,3.11-1.78,5.96-4.89,6.36c-3.11,0.41-5.96-1.78-6.36-4.89
					c-0.41-3.11,1.78-5.96,4.89-6.36C386.44,118.47,389.29,120.66,389.7,123.76z"/>
			</g>
		</g>
	</g>
	<g>
		<path class="st0" d="M316.03,500.99c0,5.89-4.78,10.67-10.67,10.67h-98.71c-5.89,0-10.67-4.78-10.67-10.67l0,0
			c0-5.89,4.78-10.67,10.67-10.67h98.71C311.25,490.32,316.03,495.1,316.03,500.99L316.03,500.99z"/>
	</g>
</g>
</svg>
