<?xml version="1.0" encoding="utf-8"?>
<!-- Generator: Adobe Illustrator 23.0.2, SVG Export Plug-In . SVG Version: 6.00 Build 0)  -->
<svg version="1.1" id="Capa_1" xmlns="http://www.w3.org/2000/svg" xmlns:xlink="http://www.w3.org/1999/xlink" x="0px" y="0px"
	 viewBox="0 0 512 512" style="enable-background:new 0 0 512 512;" xml:space="preserve">
<style type="text/css">
	.Sombra_x0020_paralela{fill:none;}
	.Resplandor_x0020_externo_x0020_5_x0020_pt_x002E_{fill:none;}
	.Neón_x0020_azul{fill:none;stroke:#8AACDA;stroke-width:7;stroke-linecap:round;stroke-linejoin:round;}
	.Resalte_x0020_cromado{fill:url(#SVGID_1_);stroke:#FFFFFF;stroke-width:0.3629;stroke-miterlimit:1;}
	.A_x0020_todo_x0020_ritmo_GS{fill:#FFDD00;}
	.Alyssa_GS{fill:#A6D0E4;}
	.st0{fill:#A4B8EA;}
	.st1{fill:#FFFFFF;}
	.st2{fill:#0E24A5;}
	.st3{fill:#425AC2;}
	.st4{fill:#FFC1C1;}
	.st5{fill:#CCCCCC;}
	.st6{fill:#FE958E;}
	.st7{fill:#03053F;}
	.st8{clip-path:url(#SVGID_3_);}
	.st9{fill:#FFB3B6;}
	.st10{clip-path:url(#SVGID_5_);}
	.st11{fill:#4E687F;}
	.st12{fill:#B1C8EF;}
	.st13{clip-path:url(#SVGID_7_);}
	.st14{fill:#E98896;}
	.st15{clip-path:url(#SVGID_9_);}
	.st16{fill:#FEE2E3;}
</style>
<linearGradient id="SVGID_1_" gradientUnits="userSpaceOnUse" x1="0" y1="0" x2="6.123234e-17" y2="-1">
	<stop  offset="0" style="stop-color:#656565"/>
	<stop  offset="0.618" style="stop-color:#1B1B1B"/>
	<stop  offset="0.6292" style="stop-color:#545454"/>
	<stop  offset="0.9831" style="stop-color:#3E3E3E"/>
</linearGradient>
<g>
	<g>
		<g>
			<path class="st0" d="M181.49,224.47h59.57c8.55,0,15.49-6.93,15.49-15.49v-59.57c0-8.55-6.93-15.49-15.49-15.49h-59.57
				c-8.55,0-15.49,6.93-15.49,15.49v59.57C166,217.53,172.93,224.47,181.49,224.47z"/>
		</g>
		<g>
			<g>
				
					<rect x="200.93" y="178.89" transform="matrix(0.7071 -0.7071 0.7071 0.7071 -64.0918 213.5219)" class="st1" width="49.53" height="10.48"/>
			</g>
			<g>
				
					<rect x="192.52" y="159.36" transform="matrix(0.7071 -0.7071 0.7071 0.7071 -72.2759 193.7543)" class="st1" width="10.48" height="49.53"/>
			</g>
		</g>
	</g>
	<g>
		<g>
			<path class="st2" d="M74.4,224.47h59.57c8.55,0,15.49-6.93,15.49-15.49v-59.57c0-8.55-6.93-15.49-15.49-15.49H74.4
				c-8.55,0-15.49,6.93-15.49,15.49v59.57C58.91,217.53,65.85,224.47,74.4,224.47z"/>
		</g>
		<g>
			<g>
				
					<rect x="93.84" y="178.89" transform="matrix(0.7071 -0.7071 0.7071 0.7071 -95.4588 137.8081)" class="st1" width="49.53" height="10.48"/>
			</g>
			<g>
				
					<rect x="85.43" y="159.36" transform="matrix(0.7071 -0.7071 0.7071 0.7071 -103.6381 118.0349)" class="st1" width="10.48" height="49.53"/>
			</g>
		</g>
	</g>
	<g>
		<g>
			<path class="st3" d="M181.49,116.86h59.57c8.55,0,15.49-6.93,15.49-15.49V41.8c0-8.55-6.93-15.49-15.49-15.49h-59.57
				c-8.55,0-15.49,6.93-15.49,15.49v59.57C166,109.93,172.93,116.86,181.49,116.86z"/>
		</g>
		<g>
			<g>
				
					<rect x="200.93" y="71.28" transform="matrix(0.7071 -0.7071 0.7071 0.7071 11.9971 182.0048)" class="st1" width="49.53" height="10.48"/>
			</g>
			<g>
				
					<rect x="192.52" y="51.75" transform="matrix(0.7071 -0.7071 0.7071 0.7071 3.8102 162.2402)" class="st1" width="10.48" height="49.53"/>
			</g>
		</g>
	</g>
	<g>
		<g>
			<path class="st4" d="M74.4,116.86h59.57c8.55,0,15.49-6.93,15.49-15.49V41.8c0-8.55-6.93-15.49-15.49-15.49H74.4
				c-8.55,0-15.49,6.93-15.49,15.49v59.57C58.91,109.93,65.85,116.86,74.4,116.86z"/>
		</g>
		<g>
			<g>
				
					<rect x="93.84" y="71.28" transform="matrix(0.7071 -0.7071 0.7071 0.7071 -19.3668 106.288)" class="st1" width="49.53" height="10.48"/>
			</g>
			<g>
				
					<rect x="85.43" y="51.75" transform="matrix(0.7071 -0.7071 0.7071 0.7071 -27.5521 86.5208)" class="st1" width="10.48" height="49.53"/>
			</g>
		</g>
	</g>
	<g>
		<path class="st5" d="M187.06,357.46V195.78c0-6.29,5.1-11.39,11.39-11.39h88.81c6.29,0,11.39,5.1,11.39,11.39v159.86
			L187.06,357.46z"/>
	</g>
	<g>
		<rect x="229.35" y="393.79" class="st5" width="16.32" height="62.47"/>
	</g>
	<g>
		<rect x="232.73" y="438.24" class="st5" width="9.57" height="62.47"/>
	</g>
	<g>
		<g>
			<g>
				<path class="st5" d="M296.07,401.67H191.8c-5.46,0-9.89-3.7-9.89-8.25v-7.5c0-4.56,4.43-8.25,9.89-8.25h104.27
					c5.46,0,9.89,3.7,9.89,8.25v7.5C305.96,397.97,301.53,401.67,296.07,401.67z"/>
			</g>
		</g>
	</g>
	<g>
		<path class="st5" d="M296.07,379.65H191.8c-5.46,0-9.89-3.7-9.89-8.25v-7.5c0-4.56,4.43-8.25,9.89-8.25h104.27
			c5.46,0,9.89,3.7,9.89,8.25v7.5C305.96,375.96,301.53,379.65,296.07,379.65z"/>
	</g>
	<g>
		<g>
			<path class="st5" d="M190.7,501.86c-3.01-4.63-4.53-9.6-4.53-14.75c0-19.64,23.04-35.61,51.35-35.61
				c28.31,0,51.35,15.98,51.35,35.61c0,4.77-1.31,9.4-3.9,13.75l-7.55-4.5c1.77-2.97,2.67-6.08,2.67-9.25
				c0-14.54-19.49-26.83-42.57-26.83c-23.07,0-42.57,12.29-42.57,26.83c0,3.43,1.05,6.78,3.12,9.97L190.7,501.86z"/>
		</g>
	</g>
	<g>
		<path class="st4" d="M182.67,500.99c0-5.75,4.66-10.41,10.41-10.41c5.75,0,10.41,4.66,10.41,10.41c0,5.75-4.66,10.41-10.41,10.41
			C187.33,511.4,182.67,506.74,182.67,500.99z"/>
	</g>
	<g>
		<path class="st4" d="M226.56,500.99c0-5.75,4.66-10.41,10.41-10.41c5.75,0,10.41,4.66,10.41,10.41c0,5.75-4.66,10.41-10.41,10.41
			C231.22,511.4,226.56,506.74,226.56,500.99z"/>
	</g>
	<g>
		<path class="st6" d="M269.8,167.7c-12.14-17.45-34.15-26.56-52.36-12.9c-18.21,13.66-2.28,34.91-21.25,47.05
			c-18.97,12.14-46.29,12.9-43.26,42.5c2.28,22.22,25.18,38.8,47.95,34.25c22.77-4.55,62.85-35.77,63.61-72.95
			C265.25,168.46,269.8,167.7,269.8,167.7z"/>
	</g>
	<g>
		<path class="st2" d="M305.17,347.67h-96.86v23.24c0,12.58,10.2,22.78,22.78,22.78h74.08c12.58,0,22.78-10.2,22.78-22.78v-0.46
			C327.96,357.87,317.76,347.67,305.17,347.67z"/>
	</g>
	<g>
		<path class="st7" d="M208.31,347.38h72.28l9.02-107.08c0.81-9.59-6.76-17.83-16.39-17.83h-57.55c-9.63,0-17.2,8.23-16.39,17.83
			L208.31,347.38z"/>
	</g>
	<g>
		<path class="st2" d="M326.55,365.63l11.93,132.78h-17.54c0,0-28.07-86.46-30.88-114.53c-2.81-28.07,17.54-23.16,17.54-23.16
			L326.55,365.63z"/>
	</g>
	<g>
		<path class="st2" d="M271.12,365.63l11.93,132.78H265.5c0,0-28.07-86.46-30.88-114.53c-2.81-28.07,17.54-23.16,17.54-23.16
			L271.12,365.63z"/>
	</g>
	<g>
		<polygon class="st7" points="287.96,232.3 313.92,281.42 278.84,278.61 		"/>
	</g>
	<g>
		<path class="st7" d="M203.57,227.91l-45.26,65.26c-2.09,4.48-0.48,11.61,4.21,13.16l70,15.79l9.12-15.44l-49.12-17.72l35.26-35.26
			L203.57,227.91z"/>
	</g>
	<g>
		<defs>
			<path id="SVGID_2_" d="M162.52,306.33l43.15,9.73l2.64,31.32h72.28l5.74-68.17l27.59,2.21l-24.96-47.22
				c-2.02-6.73-8.25-11.73-15.74-11.73h-57.55c-6.63,0-12.28,3.9-14.9,9.47l-42.47,61.23C156.22,297.65,157.83,304.78,162.52,306.33
				z M192.52,288.96l10.02-10.02l1.19,14.06L192.52,288.96z"/>
		</defs>
		<clipPath id="SVGID_3_">
			<use xlink:href="#SVGID_2_"  style="overflow:visible;"/>
		</clipPath>
		<g class="st8">
			<g>
				<g>
					<rect x="158.21" y="270.07" class="st1" width="17.07" height="17.07"/>
				</g>
				<g>
					<rect x="175.28" y="287.13" class="st1" width="17.07" height="17.07"/>
				</g>
				<g>
					<rect x="158.21" y="304.2" class="st1" width="17.07" height="17.07"/>
				</g>
				<g>
					<rect x="175.28" y="321.26" class="st1" width="17.07" height="17.07"/>
				</g>
				<g>
					<rect x="158.21" y="338.33" class="st1" width="17.07" height="17.07"/>
				</g>
				<g>
					<rect x="175.28" y="355.39" class="st1" width="17.07" height="17.07"/>
				</g>
			</g>
			<g>
				<g>
					<rect x="192.35" y="270.07" class="st1" width="17.07" height="17.07"/>
				</g>
				<g>
					<rect x="209.41" y="287.13" class="st1" width="17.07" height="17.07"/>
				</g>
				<g>
					<rect x="192.35" y="304.2" class="st1" width="17.07" height="17.07"/>
				</g>
				<g>
					<rect x="209.41" y="321.26" class="st1" width="17.07" height="17.07"/>
				</g>
				<g>
					<rect x="192.35" y="338.33" class="st1" width="17.07" height="17.07"/>
				</g>
				<g>
					<rect x="209.41" y="355.39" class="st1" width="17.07" height="17.07"/>
				</g>
			</g>
			<g>
				<g>
					<rect x="158.21" y="167.67" class="st1" width="17.07" height="17.07"/>
				</g>
				<g>
					<rect x="175.28" y="184.74" class="st1" width="17.07" height="17.07"/>
				</g>
				<g>
					<rect x="158.21" y="201.8" class="st1" width="17.07" height="17.07"/>
				</g>
				<g>
					<rect x="175.28" y="218.87" class="st1" width="17.07" height="17.07"/>
				</g>
				<g>
					<rect x="158.21" y="235.93" class="st1" width="17.07" height="17.07"/>
				</g>
				<g>
					<rect x="175.28" y="253" class="st1" width="17.07" height="17.07"/>
				</g>
			</g>
			<g>
				<g>
					<rect x="192.35" y="167.67" class="st1" width="17.07" height="17.07"/>
				</g>
				<g>
					<rect x="209.41" y="184.74" class="st1" width="17.07" height="17.07"/>
				</g>
				<g>
					<rect x="192.35" y="201.8" class="st1" width="17.07" height="17.07"/>
				</g>
				<g>
					<rect x="209.41" y="218.87" class="st1" width="17.07" height="17.07"/>
				</g>
				<g>
					<rect x="192.35" y="235.93" class="st1" width="17.07" height="17.07"/>
				</g>
				<g>
					<rect x="209.41" y="253" class="st1" width="17.07" height="17.07"/>
				</g>
			</g>
			<g>
				<g>
					<rect x="226.86" y="270.07" class="st1" width="17.07" height="17.07"/>
				</g>
				<g>
					<rect x="243.92" y="287.13" class="st1" width="17.07" height="17.07"/>
				</g>
				<g>
					<rect x="226.86" y="304.2" class="st1" width="17.07" height="17.07"/>
				</g>
				<g>
					<rect x="243.92" y="321.26" class="st1" width="17.07" height="17.07"/>
				</g>
				<g>
					<rect x="226.86" y="338.33" class="st1" width="17.07" height="17.07"/>
				</g>
				<g>
					<rect x="243.92" y="355.39" class="st1" width="17.07" height="17.07"/>
				</g>
			</g>
			<g>
				<g>
					<rect x="260.99" y="270.07" class="st1" width="17.07" height="17.07"/>
				</g>
				<g>
					<rect x="278.05" y="287.13" class="st1" width="17.07" height="17.07"/>
				</g>
				<g>
					<rect x="260.99" y="304.2" class="st1" width="17.07" height="17.07"/>
				</g>
				<g>
					<rect x="278.05" y="321.26" class="st1" width="17.07" height="17.07"/>
				</g>
				<g>
					<rect x="260.99" y="338.33" class="st1" width="17.07" height="17.07"/>
				</g>
				<g>
					<rect x="278.05" y="355.39" class="st1" width="17.07" height="17.07"/>
				</g>
			</g>
			<g>
				<g>
					<rect x="226.86" y="167.67" class="st1" width="17.07" height="17.07"/>
				</g>
				<g>
					<rect x="243.92" y="184.74" class="st1" width="17.07" height="17.07"/>
				</g>
				<g>
					<rect x="226.86" y="201.8" class="st1" width="17.07" height="17.07"/>
				</g>
				<g>
					<rect x="243.92" y="218.87" class="st1" width="17.07" height="17.07"/>
				</g>
				<g>
					<rect x="226.86" y="235.93" class="st1" width="17.07" height="17.07"/>
				</g>
				<g>
					<rect x="243.92" y="253" class="st1" width="17.07" height="17.07"/>
				</g>
			</g>
			<g>
				<g>
					<rect x="260.99" y="167.67" class="st1" width="17.07" height="17.07"/>
				</g>
				<g>
					<rect x="278.05" y="184.74" class="st1" width="17.07" height="17.07"/>
				</g>
				<g>
					<rect x="260.99" y="201.8" class="st1" width="17.07" height="17.07"/>
				</g>
				<g>
					<rect x="278.05" y="218.87" class="st1" width="17.07" height="17.07"/>
				</g>
				<g>
					<rect x="260.99" y="235.93" class="st1" width="17.07" height="17.07"/>
				</g>
				<g>
					<rect x="278.05" y="253" class="st1" width="17.07" height="17.07"/>
				</g>
			</g>
		</g>
	</g>
	<g>
		<path class="st9" d="M233.67,318.36h28.77l2.11-12.63h-21.72c-4.07,0-7.54,2.94-8.21,6.96L233.67,318.36z"/>
	</g>
	<g>
		<path class="st6" d="M338.13,498.4h-17.19v13.19h34.87c2.3,0,3.09-5.17,1.08-6.28L338.13,498.4z"/>
	</g>
	<g>
		<path class="st6" d="M283.05,498.4h-17.19v13.19h34.87c2.3,0,3.09-5.17,1.08-6.28L283.05,498.4z"/>
	</g>
	<g>
		<defs>
			<path id="SVGID_4_" d="M208.31,347.38h72.28l9.02-107.08c0.81-9.59-6.76-17.83-16.39-17.83h-57.55c-9.63,0-17.2,8.23-16.39,17.83
				L208.31,347.38z"/>
		</defs>
		<clipPath id="SVGID_5_">
			<use xlink:href="#SVGID_4_"  style="overflow:visible;"/>
		</clipPath>
		<g class="st10">
			
				<rect x="220.73" y="276.09" transform="matrix(0.3245 -0.9459 0.9459 0.3245 -133.5152 411.4432)" class="st11" width="1.17" height="46.23"/>
		</g>
		<g class="st10">
			
				<rect x="212.9" y="292.27" transform="matrix(0.084 -0.9965 0.9965 0.084 -120.81 503.5208)" class="st11" width="1.17" height="50.41"/>
		</g>
	</g>
	<g>
		<polygon class="st12" points="248.71,318.48 339.3,318.48 351.73,262.39 261.14,262.39 		"/>
	</g>
	<g>
		<rect x="226.56" y="318.08" class="st12" width="112.82" height="9.56"/>
	</g>
	<g>
		<path class="st11" d="M296.03,291.94c0,3.29,2.67,5.96,5.97,5.96c3.29,0,5.96-2.67,5.96-5.96c0-3.29-2.67-5.96-5.96-5.96
			C298.7,285.98,296.03,288.65,296.03,291.94z"/>
	</g>
	<g>
		<g>
			<rect x="124.72" y="327.27" class="st6" width="328.37" height="7.69"/>
		</g>
		<g>
			<rect x="124.72" y="328.66" class="st6" width="2.81" height="182.45"/>
		</g>
		<g>
			<rect x="450.28" y="328.66" class="st6" width="2.81" height="182.45"/>
		</g>
	</g>
	<g>
		<defs>
			<path id="SVGID_6_" d="M208.31,347.38h72.28l9.02-107.08c0.81-9.59-6.76-17.83-16.39-17.83h-57.55c-9.63,0-17.2,8.23-16.39,17.83
				L208.31,347.38z"/>
		</defs>
		<clipPath id="SVGID_7_">
			<use xlink:href="#SVGID_6_"  style="overflow:visible;"/>
		</clipPath>
		<g class="st13">
			
				<ellipse transform="matrix(0.2289 -0.9734 0.9734 0.2289 -33.0681 413.7878)" class="st14" cx="244.67" cy="227.77" rx="23.78" ry="23.78"/>
		</g>
	</g>
	<g>
		<path class="st14" d="M239.89,229.14h11.23c3.49,0,6.32-3.19,6.32-7.12v-13.84c0-3.93-2.83-7.12-6.32-7.12h-11.23
			c-3.49,0-6.32,3.19-6.32,7.12v13.84C233.57,225.95,236.4,229.14,239.89,229.14z"/>
	</g>
	<g>
		<path class="st9" d="M272.44,201.05c-4.51,15.26-17.27,12.92-32.53,8.41c-15.26-4.51-19.77-23.84-15.26-39.1
			c4.51-15.26,16.33-20.67,31.59-16.16C271.5,158.71,276.95,185.79,272.44,201.05z"/>
	</g>
	<g>
		<g>
			<path class="st3" d="M416.46,274.39c4.25-0.85,15.73-9.78,25.08-34.43c5.34-14.09,20.41-86.72,0-91.82
				c-20.41-5.1-16.58,31.46-16.58,65.04C424.96,233.65,416.46,274.39,416.46,274.39z"/>
		</g>
		<g>
			<path class="st3" d="M407.11,277.79c10.73-0.72,8.5-109.25,9.35-134.76c0.85-25.51,5.95-120.73-8.5-136.03
				c-14.45-15.3-29.33-1.7-30.61,18.07c-0.6,9.37,2.55,77.58,4.25,97.14c1.7,19.55,3.83,63.77,5.53,91.82
				C388.83,242.08,394.35,278.64,407.11,277.79z"/>
		</g>
		<g>
			<path class="st3" d="M387.13,279.06c0,0-23.82-47-29.76-83.32c-10.63-65.04-12.75-128.38,1.7-127.53
				c14.45,0.85,15.5,64.62,16.15,91.82c1.7,70.57,18.28,114.78,18.28,114.78L387.13,279.06z"/>
		</g>
		<g>
			<path class="st4" d="M389.12,277.14l1.1-0.4c-0.08-0.23-8.48-23.53-14.03-39.11c-10.89-30.59-12.7-71.26-12.72-71.67l-1.17,0.05
				c0.02,0.41,1.83,41.26,12.79,72.02C380.64,253.61,389.04,276.9,389.12,277.14z"/>
		</g>
		<g>
			<path class="st4" d="M403.54,270.56h1.17c0-14.52-2.53-57-2.55-57.43l-1.17,0.07C401.02,213.63,403.54,256.08,403.54,270.56z"/>
		</g>
		<g>
			<path class="st4" d="M420.61,273.97c0.09-0.22,9-21.94,14.05-41.52c5.07-19.63,3.86-38.26,3.84-38.45l-1.17,0.08
				c0.01,0.18,1.21,18.63-3.81,38.07c-5.03,19.5-13.91,41.16-14,41.37L420.61,273.97z"/>
		</g>
		<g>
			<path class="st1" d="M397.75,214.02c0,1.76,1.43,3.19,3.19,3.19c1.76,0,3.19-1.43,3.19-3.19c0-1.76-1.43-3.19-3.19-3.19
				C399.18,210.83,397.75,212.26,397.75,214.02z"/>
		</g>
		<g>
			<path class="st1" d="M434.74,194.47c0,1.76,1.43,3.19,3.19,3.19c1.76,0,3.19-1.43,3.19-3.19s-1.43-3.19-3.19-3.19
				C436.17,191.28,434.74,192.7,434.74,194.47z"/>
		</g>
		<g>
			<path class="st1" d="M359.71,165.98c0,1.76,1.43,3.19,3.19,3.19c1.76,0,3.19-1.43,3.19-3.19c0-1.76-1.43-3.19-3.19-3.19
				C361.13,162.79,359.71,164.22,359.71,165.98z"/>
		</g>
	</g>
	<g>
		<defs>
			<polygon id="SVGID_8_" points="429.63,264.61 380.33,264.61 388.92,327.82 421.04,327.82 			"/>
		</defs>
		<use xlink:href="#SVGID_8_"  style="overflow:visible;fill:#FFC1C1;"/>
		<clipPath id="SVGID_9_">
			<use xlink:href="#SVGID_8_"  style="overflow:visible;"/>
		</clipPath>
		<g class="st15">
			<rect x="349.93" y="269.92" class="st16" width="91.82" height="5.1"/>
		</g>
	</g>
	<g>
		<path class="st6" d="M249.31,151.01c7.59,1.52,14.04,2.66,19.35,11.38c5.31,8.73,4.17,11.38,2.66,11.38
			c-1.52,0-36.81,6.07-38.7,4.93c-1.9-1.14-10.62-17.45-2.66-22.39C237.93,151.39,249.31,151.01,249.31,151.01z"/>
	</g>
	<g>
		<path class="st9" d="M224.65,185.54c-1.9-2.28-9.49,1.14-6.07,7.21c3.41,6.07,9.87,3.04,9.87,3.04L224.65,185.54z"/>
	</g>
</g>
</svg>
