<?xml version="1.0" encoding="utf-8"?>
<!-- Generator: Adobe Illustrator 23.0.2, SVG Export Plug-In . SVG Version: 6.00 Build 0)  -->
<svg version="1.1" id="Capa_1" xmlns="http://www.w3.org/2000/svg" xmlns:xlink="http://www.w3.org/1999/xlink" x="0px" y="0px"
	 viewBox="0 0 512 512" style="enable-background:new 0 0 512 512;" xml:space="preserve">
<style type="text/css">
	.Sombra_x0020_paralela{fill:none;}
	.Resplandor_x0020_externo_x0020_5_x0020_pt_x002E_{fill:none;}
	.Neón_x0020_azul{fill:none;stroke:#8AACDA;stroke-width:7;stroke-linecap:round;stroke-linejoin:round;}
	.Resalte_x0020_cromado{fill:url(#SVGID_1_);stroke:#FFFFFF;stroke-width:0.3629;stroke-miterlimit:1;}
	.A_x0020_todo_x0020_ritmo_GS{fill:#FFDD00;}
	.Alyssa_GS{fill:#A6D0E4;}
	.st0{fill:#FFC1C1;}
	.st1{fill:#425AC2;}
	.st2{fill:#8EA8DD;}
	.st3{fill:#A4B8EA;}
	.st4{fill:#FE958E;}
	.st5{fill:#FEE2E3;}
	.st6{fill:#0E24A5;}
	.st7{fill:#E98896;}
	.st8{fill:#FFA6AD;}
	.st9{fill:#112256;}
	.st10{clip-path:url(#SVGID_3_);}
	.st11{fill:#03053F;}
	.st12{fill:#BBBBBB;}
	.st13{fill:#4E687F;}
	.st14{clip-path:url(#SVGID_5_);}
</style>
<linearGradient id="SVGID_1_" gradientUnits="userSpaceOnUse" x1="0" y1="0" x2="6.123234e-17" y2="-1">
	<stop  offset="0" style="stop-color:#656565"/>
	<stop  offset="0.618" style="stop-color:#1B1B1B"/>
	<stop  offset="0.6292" style="stop-color:#545454"/>
	<stop  offset="0.9831" style="stop-color:#3E3E3E"/>
</linearGradient>
<g>
	<g>
		<circle class="st0" cx="253.14" cy="219.33" r="109.85"/>
	</g>
	<g>
		<g>
			<path class="st1" d="M402.5,360.22H110.62v-6.59H402.5c0.66,0,1.19,0.53,1.19,1.19v4.21
				C403.69,359.69,403.15,360.22,402.5,360.22z"/>
		</g>
		<g>
			<rect x="110.62" y="354.82" class="st1" width="2.41" height="156.34"/>
		</g>
		<g>
			<path class="st1" d="M402.5,511.16h-0.02c-0.66,0-1.19-0.53-1.19-1.19V356.01c0-0.66,0.53-1.19,1.19-1.19h0.02
				c0.66,0,1.19,0.53,1.19,1.19v153.95C403.69,510.62,403.15,511.16,402.5,511.16z"/>
		</g>
	</g>
	<g>
		<g>
			<path class="st2" d="M233.17,98.92c-1.61,1.61-4.22,1.61-5.83,0l0,0c-1.61-1.61-1.61-4.22,0-5.83l6.96-6.96
				c1.61-1.61,4.22-1.61,5.83,0l0,0c1.61,1.61,1.61,4.22,0,5.83L233.17,98.92z"/>
		</g>
		<g>
			<path class="st2" d="M282.43,98.92c1.61,1.61,4.22,1.61,5.83,0l0,0c1.61-1.61,1.61-4.22,0-5.83l-6.96-6.96
				c-1.61-1.61-4.22-1.61-5.83,0l0,0c-1.61,1.61-1.61,4.22,0,5.83L282.43,98.92z"/>
		</g>
		<g>
			<g>
				<path class="st3" d="M237.95,20.65c-1.23-1.89-1.85-3.92-1.85-6.03c0-8.03,9.42-14.56,20.99-14.56
					c11.57,0,20.99,6.53,20.99,14.56c0,1.95-0.54,3.84-1.6,5.62l-3.08-1.84c0.72-1.21,1.09-2.49,1.09-3.78
					c0-5.94-7.97-10.97-17.4-10.97c-9.43,0-17.4,5.02-17.4,10.97c0,1.4,0.43,2.77,1.27,4.08L237.95,20.65z"/>
			</g>
		</g>
		<g>
			
				<rect x="274.86" y="19.5" transform="matrix(0.54 -0.8417 0.8417 0.54 105.9208 249.7644)" class="st0" width="13.2" height="16.96"/>
		</g>
		<g>
			<path class="st4" d="M271.78,20.35c0.32-0.67,0.69-1.32,1.13-1.94c4.09-5.78,12.09-7.15,17.87-3.06
				c5.78,4.09,7.15,12.09,3.06,17.87c-0.44,0.62-0.93,1.19-1.46,1.71L271.78,20.35z"/>
		</g>
		<g>
			
				<rect x="224.37" y="21.91" transform="matrix(0.8417 -0.54 0.54 0.8417 21.473 130.256)" class="st0" width="16.96" height="13.2"/>
		</g>
		<g>
			
				<ellipse transform="matrix(0.7071 -0.7071 0.7071 0.7071 32.0915 200.0157)" class="st4" cx="257.49" cy="61.27" rx="39" ry="39"/>
		</g>
		<g>
			
				<ellipse transform="matrix(0.9729 -0.2311 0.2311 0.9729 -7.1894 61.1552)" class="st5" cx="257.49" cy="61.27" rx="32.42" ry="32.42"/>
		</g>
		<g>
			<path class="st1" d="M258.68,33.05c0,0.66-0.54,1.2-1.2,1.2c-0.66,0-1.2-0.54-1.2-1.2c0-0.66,0.54-1.2,1.2-1.2
				C258.15,31.86,258.68,32.39,258.68,33.05z"/>
		</g>
		<g>
			<path class="st1" d="M244.41,36.24c0.33,0.57,0.13,1.3-0.44,1.63c-0.57,0.33-1.3,0.13-1.63-0.44c-0.33-0.57-0.13-1.3,0.44-1.63
				C243.35,35.47,244.08,35.66,244.41,36.24z"/>
		</g>
		<g>
			<path class="st1" d="M233.65,46.13c0.57,0.33,0.77,1.06,0.44,1.63c-0.33,0.57-1.06,0.77-1.63,0.44
				c-0.57-0.33-0.77-1.06-0.44-1.63C232.34,45.99,233.08,45.8,233.65,46.13z"/>
		</g>
		<g>
			<path class="st1" d="M229.27,60.07c0.66,0,1.2,0.54,1.2,1.2c0,0.66-0.54,1.2-1.2,1.2c-0.66,0-1.2-0.54-1.2-1.2
				C228.07,60.61,228.61,60.07,229.27,60.07z"/>
		</g>
		<g>
			<path class="st1" d="M232.45,74.34c0.57-0.33,1.3-0.13,1.63,0.44c0.33,0.57,0.13,1.3-0.44,1.63c-0.57,0.33-1.3,0.13-1.63-0.44
				C231.68,75.4,231.88,74.67,232.45,74.34z"/>
		</g>
		<g>
			<path class="st1" d="M242.34,85.11c0.33-0.57,1.06-0.77,1.63-0.44c0.57,0.33,0.77,1.06,0.44,1.63c-0.33,0.57-1.06,0.77-1.63,0.44
				C242.21,86.41,242.01,85.68,242.34,85.11z"/>
		</g>
		<g>
			<path class="st1" d="M256.29,89.49c0-0.66,0.54-1.2,1.2-1.2c0.66,0,1.2,0.54,1.2,1.2s-0.54,1.2-1.2,1.2
				C256.83,90.68,256.29,90.15,256.29,89.49z"/>
		</g>
		<g>
			<path class="st1" d="M270.56,86.3c-0.33-0.57-0.13-1.3,0.44-1.63c0.57-0.33,1.3-0.13,1.63,0.44c0.33,0.57,0.13,1.3-0.44,1.63
				C271.62,87.07,270.89,86.88,270.56,86.3z"/>
		</g>
		<g>
			<path class="st1" d="M281.32,76.41c-0.57-0.33-0.77-1.06-0.44-1.63s1.06-0.77,1.63-0.44c0.57,0.33,0.77,1.06,0.44,1.63
				C282.63,76.55,281.9,76.74,281.32,76.41z"/>
		</g>
		<g>
			<circle class="st1" cx="285.7" cy="61.27" r="1.2"/>
		</g>
		<g>
			<path class="st1" d="M282.52,48.2c-0.57,0.33-1.3,0.13-1.63-0.44c-0.33-0.57-0.13-1.3,0.44-1.63c0.57-0.33,1.3-0.13,1.63,0.44
				C283.29,47.14,283.09,47.87,282.52,48.2z"/>
		</g>
		<g>
			<path class="st1" d="M272.63,37.43c-0.33,0.57-1.06,0.77-1.63,0.44c-0.57-0.33-0.77-1.06-0.44-1.63
				c0.33-0.57,1.06-0.77,1.63-0.44C272.76,36.13,272.96,36.86,272.63,37.43z"/>
		</g>
		<g>
			
				<rect x="249.24" y="49.27" transform="matrix(0.4687 -0.8833 0.8833 0.4687 82.9596 251.4088)" class="st1" width="2.49" height="14.93"/>
		</g>
		<g>
			
				<rect x="256.5" y="54.35" transform="matrix(0.8757 -0.4828 0.4828 0.8757 6.5808 136.1227)" class="st1" width="22.44" height="1.85"/>
		</g>
		<g>
			<path class="st4" d="M263.17,61.27c0,3.14-2.54,5.68-5.68,5.68c-3.14,0-5.68-2.54-5.68-5.68c0-3.14,2.54-5.68,5.68-5.68
				C260.62,55.59,263.17,58.13,263.17,61.27z"/>
		</g>
		<g>
			<path class="st4" d="M242.53,20.89c-0.32-0.67-0.69-1.32-1.13-1.94c-4.09-5.78-12.09-7.15-17.87-3.06
				c-5.78,4.09-7.15,12.09-3.06,17.87c0.44,0.62,0.93,1.19,1.46,1.71L242.53,20.89z"/>
		</g>
	</g>
	<g>
		<g>
			<path class="st2" d="M69.04,167.23c-2.11,0.86-4.51-0.15-5.37-2.26l0,0c-0.86-2.11,0.15-4.51,2.26-5.37l9.11-3.71
				c2.11-0.86,4.51,0.16,5.37,2.26l0,0c0.86,2.11-0.15,4.51-2.26,5.37L69.04,167.23z"/>
		</g>
		<g>
			<path class="st2" d="M114.43,186.35c0.86,2.11,3.26,3.12,5.37,2.26l0,0c2.11-0.86,3.12-3.26,2.26-5.37l-3.71-9.11
				c-0.86-2.11-3.26-3.12-5.37-2.26l0,0c-2.11,0.86-3.12,3.26-2.26,5.37L114.43,186.35z"/>
		</g>
		<g>
			<g>
				<path class="st3" d="M103.83,96.96c-0.4-2.22-0.18-4.33,0.63-6.27c3.12-7.4,14.33-9.76,24.99-5.27
					c10.66,4.49,16.81,14.17,13.69,21.56c-0.76,1.8-1.99,3.33-3.65,4.56l-2.13-2.89c1.14-0.84,1.97-1.87,2.47-3.06
					c2.31-5.48-3.08-13.2-11.78-16.86c-8.69-3.66-17.98-2.13-20.29,3.35c-0.54,1.29-0.68,2.72-0.41,4.25L103.83,96.96z"/>
			</g>
		</g>
		<g>
			
				<rect x="134.48" y="112.12" transform="matrix(0.8244 -0.566 0.566 0.8244 -43.488 101.0286)" class="st1" width="13.2" height="16.96"/>
		</g>
		<g>
			<path class="st0" d="M135.12,109.82c0.55-0.49,1.15-0.95,1.8-1.35c6.01-3.74,13.92-1.89,17.65,4.12
				c3.74,6.01,1.89,13.92-4.12,17.65c-0.65,0.4-1.32,0.74-2.01,1.01L135.12,109.82z"/>
		</g>
		<g>
			
				<rect x="87.6" y="95.62" transform="matrix(0.9853 -0.1709 0.1709 0.9853 -16.056 17.9234)" class="st1" width="16.96" height="13.2"/>
		</g>
		<g>
			<path class="st0" d="M142.01,157.12c-8.36,19.85-31.23,29.16-51.09,20.8c-19.85-8.36-29.16-31.23-20.8-51.08
				c8.36-19.85,31.23-29.16,51.08-20.8C141.06,114.39,150.37,137.27,142.01,157.12z"/>
		</g>
		<g>
			
				<ellipse transform="matrix(0.9269 -0.3753 0.3753 0.9269 -45.5265 50.1777)" class="st5" cx="106.06" cy="141.97" rx="32.42" ry="32.42"/>
		</g>
		<g>
			<path class="st1" d="M118.12,116.44c-0.26,0.61-0.96,0.89-1.57,0.64c-0.61-0.26-0.89-0.96-0.64-1.57
				c0.26-0.61,0.96-0.89,1.57-0.64C118.09,115.13,118.38,115.83,118.12,116.44z"/>
		</g>
		<g>
			<path class="st1" d="M103.74,113.83c0.08,0.66-0.38,1.25-1.04,1.34c-0.66,0.08-1.25-0.38-1.34-1.04
				c-0.08-0.66,0.38-1.25,1.04-1.34C103.06,112.71,103.65,113.17,103.74,113.83z"/>
		</g>
		<g>
			<path class="st1" d="M89.97,118.76c0.4,0.53,0.3,1.28-0.23,1.68c-0.53,0.4-1.28,0.3-1.68-0.23c-0.4-0.53-0.3-1.28,0.23-1.68
				C88.83,118.13,89.58,118.24,89.97,118.76z"/>
		</g>
		<g>
			<path class="st1" d="M80.53,129.92c0.61,0.26,0.89,0.96,0.64,1.57c-0.26,0.61-0.96,0.89-1.57,0.64
				c-0.61-0.26-0.89-0.96-0.64-1.57C79.22,129.95,79.92,129.66,80.53,129.92z"/>
		</g>
		<g>
			<path class="st1" d="M77.92,144.3c0.66-0.08,1.25,0.38,1.34,1.04c0.08,0.66-0.38,1.25-1.04,1.34c-0.66,0.08-1.25-0.38-1.34-1.04
				C76.8,144.98,77.26,144.39,77.92,144.3z"/>
		</g>
		<g>
			<path class="st1" d="M82.85,158.06c0.53-0.4,1.28-0.3,1.68,0.23c0.4,0.53,0.3,1.28-0.23,1.68c-0.53,0.4-1.28,0.3-1.68-0.23
				C82.22,159.21,82.33,158.46,82.85,158.06z"/>
		</g>
		<g>
			<path class="st1" d="M94.01,167.51c0.26-0.61,0.96-0.89,1.57-0.64c0.61,0.26,0.89,0.96,0.64,1.57c-0.26,0.61-0.96,0.89-1.57,0.64
				C94.04,168.82,93.75,168.12,94.01,167.51z"/>
		</g>
		<g>
			<path class="st1" d="M108.39,170.12c-0.08-0.66,0.38-1.25,1.04-1.34c0.66-0.08,1.25,0.38,1.34,1.04
				c0.08,0.66-0.38,1.25-1.04,1.34C109.07,171.24,108.47,170.78,108.39,170.12z"/>
		</g>
		<g>
			<path class="st1" d="M122.15,165.19c-0.4-0.53-0.3-1.28,0.23-1.68c0.53-0.4,1.28-0.3,1.68,0.23c0.4,0.53,0.3,1.28-0.23,1.68
				C123.3,165.82,122.55,165.71,122.15,165.19z"/>
		</g>
		<g>
			<path class="st1" d="M131.6,154.03c-0.61-0.26-0.89-0.96-0.64-1.57c0.26-0.61,0.96-0.89,1.57-0.64c0.61,0.26,0.89,0.96,0.64,1.57
				C132.91,154,132.21,154.29,131.6,154.03z"/>
		</g>
		<g>
			<path class="st1" d="M134.21,139.65c-0.66,0.08-1.25-0.38-1.34-1.04c-0.08-0.66,0.38-1.25,1.04-1.34
				c0.66-0.08,1.25,0.38,1.34,1.04C135.33,138.97,134.86,139.56,134.21,139.65z"/>
		</g>
		<g>
			<path class="st1" d="M129.28,125.89c-0.53,0.4-1.28,0.3-1.68-0.23c-0.4-0.53-0.3-1.28,0.23-1.68c0.53-0.4,1.28-0.3,1.68,0.23
				C129.9,124.74,129.8,125.49,129.28,125.89z"/>
		</g>
		<g>
			
				<rect x="100.13" y="127.61" transform="matrix(0.7748 -0.6322 0.6322 0.7748 -62.5701 94.512)" class="st1" width="2.49" height="14.93"/>
		</g>
		<g>
			
				<rect x="106.6" y="139.5" transform="matrix(0.9945 -0.1051 0.1051 0.9945 -14.1075 13.1625)" class="st1" width="22.44" height="1.85"/>
		</g>
		<g>
			<path class="st4" d="M111.3,144.18c-1.22,2.89-4.55,4.25-7.44,3.03c-2.89-1.22-4.25-4.55-3.03-7.44
				c1.22-2.89,4.55-4.25,7.44-3.03C111.16,137.96,112.52,141.29,111.3,144.18z"/>
		</g>
		<g>
			<path class="st0" d="M107.96,98.95c-0.03-0.74-0.12-1.48-0.29-2.23c-1.53-6.91-8.37-11.28-15.28-9.76
				c-6.91,1.53-11.28,8.37-9.76,15.28c0.16,0.75,0.39,1.46,0.68,2.14L107.96,98.95z"/>
		</g>
	</g>
	<g>
		<g>
			<path class="st2" d="M442.96,167.23c2.11,0.86,4.51-0.15,5.37-2.26l0,0c0.86-2.11-0.15-4.51-2.26-5.37l-9.11-3.71
				c-2.11-0.86-4.51,0.16-5.37,2.26l0,0c-0.86,2.11,0.15,4.51,2.26,5.37L442.96,167.23z"/>
		</g>
		<g>
			<path class="st2" d="M397.57,186.35c-0.86,2.11-3.26,3.12-5.37,2.26l0,0c-2.11-0.86-3.12-3.26-2.26-5.37l3.71-9.11
				c0.86-2.11,3.26-3.12,5.37-2.26l0,0c2.11,0.86,3.12,3.26,2.26,5.37L397.57,186.35z"/>
		</g>
		<g>
			<g>
				<path class="st3" d="M408.17,96.96c0.4-2.22,0.18-4.33-0.63-6.27c-3.12-7.4-14.33-9.76-24.99-5.27
					c-10.66,4.49-16.81,14.17-13.69,21.56c0.76,1.8,1.99,3.33,3.65,4.56l2.13-2.89c-1.14-0.84-1.97-1.87-2.47-3.06
					c-2.31-5.48,3.08-13.2,11.78-16.86c8.69-3.66,17.98-2.13,20.29,3.35c0.54,1.29,0.68,2.72,0.41,4.25L408.17,96.96z"/>
			</g>
		</g>
		<g>
			
				<rect x="362.44" y="114" transform="matrix(0.566 -0.8244 0.8244 0.566 61.5539 358.1297)" class="st4" width="16.96" height="13.2"/>
		</g>
		<g>
			<path class="st1" d="M376.88,109.82c-0.55-0.49-1.15-0.95-1.8-1.35c-6.01-3.74-13.92-1.89-17.65,4.12
				c-3.74,6.01-1.89,13.92,4.12,17.65c0.65,0.4,1.32,0.74,2.01,1.01L376.88,109.82z"/>
		</g>
		<g>
			
				<rect x="409.32" y="93.74" transform="matrix(0.1709 -0.9853 0.9853 0.1709 244.1233 494.5553)" class="st4" width="13.2" height="16.96"/>
		</g>
		<g>
			
				<ellipse transform="matrix(0.9274 -0.3741 0.3741 0.9274 -23.6366 162.1806)" class="st1" cx="405.94" cy="141.97" rx="39" ry="39"/>
		</g>
		<g>
			<path class="st5" d="M376.06,154.56c6.95,16.5,25.96,24.24,42.47,17.29c16.5-6.95,24.24-25.96,17.29-42.47
				c-6.95-16.5-25.96-24.24-42.47-17.29C376.85,119.05,369.11,138.06,376.06,154.56z"/>
		</g>
		<g>
			<path class="st1" d="M393.88,116.44c0.26,0.61,0.96,0.89,1.57,0.64c0.61-0.26,0.89-0.96,0.64-1.57
				c-0.26-0.61-0.96-0.89-1.57-0.64C393.91,115.13,393.62,115.83,393.88,116.44z"/>
		</g>
		<g>
			<path class="st1" d="M408.26,113.83c-0.08,0.66,0.38,1.25,1.04,1.34c0.66,0.08,1.25-0.38,1.34-1.04
				c0.08-0.66-0.38-1.25-1.04-1.34C408.94,112.71,408.35,113.17,408.26,113.83z"/>
		</g>
		<g>
			<path class="st1" d="M422.03,118.76c-0.4,0.53-0.3,1.28,0.23,1.68c0.53,0.4,1.28,0.3,1.68-0.23c0.4-0.53,0.3-1.28-0.23-1.68
				C423.17,118.13,422.42,118.24,422.03,118.76z"/>
		</g>
		<g>
			<path class="st1" d="M431.48,129.92c-0.61,0.26-0.89,0.96-0.64,1.57c0.26,0.61,0.96,0.89,1.57,0.64
				c0.61-0.26,0.89-0.96,0.64-1.57C432.78,129.95,432.08,129.66,431.48,129.92z"/>
		</g>
		<g>
			<path class="st1" d="M434.08,144.3c-0.66-0.08-1.25,0.38-1.34,1.04c-0.08,0.66,0.38,1.25,1.04,1.34
				c0.66,0.08,1.25-0.38,1.34-1.04C435.2,144.98,434.74,144.39,434.08,144.3z"/>
		</g>
		<g>
			<path class="st1" d="M429.15,158.06c-0.53-0.4-1.28-0.3-1.68,0.23c-0.4,0.53-0.3,1.28,0.23,1.68c0.53,0.4,1.28,0.3,1.68-0.23
				C429.78,159.21,429.67,158.46,429.15,158.06z"/>
		</g>
		<g>
			<path class="st1" d="M417.99,167.51c-0.26-0.61-0.96-0.89-1.57-0.64c-0.61,0.26-0.89,0.96-0.64,1.57
				c0.26,0.61,0.96,0.89,1.57,0.64C417.96,168.82,418.25,168.12,417.99,167.51z"/>
		</g>
		<g>
			<path class="st1" d="M403.61,170.12c0.08-0.66-0.38-1.25-1.04-1.34c-0.66-0.08-1.25,0.38-1.34,1.04
				c-0.08,0.66,0.38,1.25,1.04,1.34C402.93,171.24,403.53,170.78,403.61,170.12z"/>
		</g>
		<g>
			<path class="st1" d="M389.85,165.19c0.4-0.53,0.3-1.28-0.23-1.68c-0.53-0.4-1.28-0.3-1.68,0.23c-0.4,0.53-0.3,1.28,0.23,1.68
				C388.7,165.82,389.45,165.71,389.85,165.19z"/>
		</g>
		<g>
			<path class="st1" d="M380.4,154.03c0.61-0.26,0.89-0.96,0.64-1.57c-0.26-0.61-0.96-0.89-1.57-0.64
				c-0.61,0.26-0.89,0.96-0.64,1.57C379.09,154,379.79,154.29,380.4,154.03z"/>
		</g>
		<g>
			<path class="st1" d="M377.79,139.65c0.66,0.08,1.25-0.38,1.34-1.04c0.08-0.66-0.38-1.25-1.04-1.34
				c-0.66-0.08-1.25,0.38-1.34,1.04C376.67,138.97,377.14,139.56,377.79,139.65z"/>
		</g>
		<g>
			<path class="st1" d="M382.73,125.89c0.53,0.4,1.28,0.3,1.68-0.23c0.4-0.53,0.3-1.28-0.23-1.68c-0.53-0.4-1.28-0.3-1.68,0.23
				S382.2,125.49,382.73,125.89z"/>
		</g>
		<g>
			
				<rect x="403.16" y="133.83" transform="matrix(0.6322 -0.7748 0.7748 0.6322 46.3753 367.8489)" class="st1" width="14.93" height="2.49"/>
		</g>
		<g>
			
				<rect x="393.25" y="129.2" transform="matrix(0.1051 -0.9945 0.9945 0.1051 213.0948 517.6576)" class="st1" width="1.85" height="22.44"/>
		</g>
		<g>
			<path class="st4" d="M400.7,144.18c1.22,2.89,4.55,4.25,7.44,3.03c2.89-1.22,4.25-4.55,3.03-7.44c-1.22-2.89-4.55-4.25-7.44-3.03
				C400.84,137.96,399.48,141.29,400.7,144.18z"/>
		</g>
		<g>
			<path class="st1" d="M404.04,98.95c0.03-0.74,0.12-1.48,0.29-2.23c1.53-6.91,8.37-11.28,15.28-9.76
				c6.91,1.53,11.28,8.37,9.76,15.28c-0.16,0.75-0.39,1.46-0.68,2.14L404.04,98.95z"/>
		</g>
	</g>
	<g>
		<path class="st3" d="M292.78,338.76h-75.87l2.02,162.08h14.49c0,0,10.97-81.54,15.1-126.61h10.04l3.02,126.61h14.49
			c0,0,17.1-127.12,16.64-151.63C293.11,347.38,292.78,338.76,292.78,338.76z"/>
	</g>
	<g>
		<path class="st6" d="M292.78,338.76h-75.87l-9.47-100.77c-0.85-8.22,7.1-15.28,17.2-15.28h60.41c10.11,0,18.05,7.05,17.2,15.28
			L292.78,338.76z"/>
	</g>
	<g>
		<path class="st7" d="M251.25,241.27c1,2.58,4.59,2.73,5.79,0.24c3.36-6.93,10.79-17.26,10.79-19.46v-14.87
			c0-3.37-5.02-3.08-8.01-3.08h-9.62c-2.99,0-8.01,2.73-8.01,6.1v11.86C242.2,224.22,248.57,234.35,251.25,241.27z"/>
	</g>
	<g>
		<path class="st8" d="M244.24,213.31c10.03,9.24,18.84,6.25,25.74-5.51c8.2-13.97,11.01-29.13,0.98-38.36
			c-10.03-9.24-23.93-8.73-33.16,1.3C228.56,180.76,234.21,204.07,244.24,213.31z"/>
	</g>
	<g>
		<path class="st6" d="M239.02,249.09l-54.27,22.33c-5.09,2.09-10.93,0.87-14.75-3.09l-48.6-50.13l9.43-10.73l47.32,35.96
			c0,0,28.43-17.1,39.81-20.03c5.09-1.31,17.72,12.35,17.72,12.35L239.02,249.09z"/>
	</g>
	<g>
		<path class="st9" d="M218.74,500.63h14.73v11.3h-29.88c-1.97,0-2.65-4.43-0.92-5.38L218.74,500.63z"/>
	</g>
	<g>
		<path class="st9" d="M276.39,500.63h-14.73v11.3h29.88c1.97,0,2.65-4.43,0.92-5.38L276.39,500.63z"/>
	</g>
	<g>
		<defs>
			<path id="SVGID_2_" d="M292.78,338.76h-75.87l2.02,162.08h14.49c0,0,10.97-81.54,15.1-126.61h10.04l3.02,126.61h14.49
				c0,0,17.1-127.12,16.64-151.63C293.11,347.38,292.78,338.76,292.78,338.76z"/>
		</defs>
		<clipPath id="SVGID_3_">
			<use xlink:href="#SVGID_2_"  style="overflow:visible;"/>
		</clipPath>
		<g class="st10">
			<g>
				<rect x="222.62" y="321.37" class="st11" width="3.12" height="196.81"/>
			</g>
			<g>
				<rect x="231.2" y="321.37" class="st11" width="3.12" height="196.81"/>
			</g>
			<g>
				<rect x="239.77" y="321.37" class="st11" width="3.12" height="196.81"/>
			</g>
			<g>
				<rect x="248.34" y="321.37" class="st11" width="3.12" height="196.81"/>
			</g>
			<g>
				<rect x="256.92" y="321.37" class="st11" width="3.12" height="196.81"/>
			</g>
			<g>
				<rect x="265.49" y="321.37" class="st11" width="3.12" height="196.81"/>
			</g>
			<g>
				<rect x="274.07" y="321.37" class="st11" width="3.12" height="196.81"/>
			</g>
			<g>
				<rect x="282.64" y="321.37" class="st11" width="3.12" height="196.81"/>
			</g>
		</g>
	</g>
	<g>
		<rect x="216.91" y="338.76" class="st0" width="75.93" height="5.37"/>
	</g>
	<g>
		<path class="st7" d="M130.83,207.47c0,0,2.6-12.25-0.32-12.25c-2.93,0-3.92,7.19-5.2,7.59c-2.82,0.87-6.61-3.14-10.84-6.72
			c-4.23-3.58-11.23-3.05-10.95,0.65c0.54,7.15,17.88,21.46,17.88,21.46L130.83,207.47z"/>
	</g>
	<g>
		<path class="st6" d="M269.97,249.09l54.27,22.33c5.09,2.09,10.93,0.87,14.75-3.09l48.6-50.13l-9.43-10.73l-47.32,35.96
			c0,0-28.43-17.1-39.81-20.03c-5.09-1.31-17.72,12.35-17.72,12.35L269.97,249.09z"/>
	</g>
	<g>
		<path class="st7" d="M378.16,207.47c0,0-2.6-12.25,0.33-12.25c2.93,0,3.92,7.19,5.2,7.59c2.82,0.87,6.61-3.14,10.84-6.72
			c4.23-3.58,11.23-3.05,10.95,0.65c-0.54,7.15-17.88,21.46-17.88,21.46L378.16,207.47z"/>
	</g>
	<g>
		<g>
			<path class="st4" d="M156.79,336.83c0,5.42,4.39,9.81,9.81,9.81c5.42,0,9.82-4.39,9.82-9.81c0-5.42-4.39-9.82-9.82-9.82
				C161.18,327.01,156.79,331.41,156.79,336.83z M160.3,336.83c0-3.49,2.83-6.31,6.31-6.31c3.48,0,6.31,2.82,6.31,6.31
				c0,3.48-2.83,6.31-6.31,6.31C163.12,343.14,160.3,340.31,160.3,336.83z"/>
		</g>
	</g>
	<g>
		<polygon class="st4" points="168.93,318.34 136.38,318.34 142.58,353.98 162.73,353.98 		"/>
	</g>
	<g>
		<g>
			<polygon class="st12" points="321.9,346.76 393,346.76 402.75,302.73 331.66,302.73 			"/>
		</g>
		<g>
			<rect x="304.52" y="346.44" class="st12" width="88.55" height="7.5"/>
		</g>
		<g>
			<path class="st13" d="M359.04,325.93c0,2.59,2.1,4.68,4.68,4.68c2.59,0,4.68-2.1,4.68-4.68c0-2.59-2.1-4.68-4.68-4.68
				C361.14,321.25,359.04,323.34,359.04,325.93z"/>
		</g>
	</g>
	<g>
		<defs>
			<path id="SVGID_4_" d="M244.24,213.31c10.03,9.24,18.84,6.25,25.74-5.51c8.2-13.97,11.01-29.13,0.98-38.36
				c-10.03-9.24-23.93-8.73-33.16,1.3C228.56,180.76,234.21,204.07,244.24,213.31z"/>
		</defs>
		<use xlink:href="#SVGID_4_"  style="overflow:visible;fill:#E98896;"/>
		<clipPath id="SVGID_5_">
			<use xlink:href="#SVGID_4_"  style="overflow:visible;"/>
		</clipPath>
		<g class="st14">
			<path class="st1" d="M233.73,204.71c-1.95-5.2-1.53-16.54,4.39-15.44c4.39,0.81,0.33,6.83,4.23,7.48
				c3.9,0.65-4.06-18.04,5.85-22.76c9.44-4.49,19.51-1.79,20.16,9.75c0.59,10.41-3.25,14.31,0,14.31c3.25,0,0-7.15,5.85-6.5
				c5.85,0.65,5.85,14.96,9.1,14.96c3.25,0,1.3-45.52,1.3-45.52l-46.82-7.8l-12.36,26.01L233.73,204.71z"/>
		</g>
	</g>
</g>
</svg>
