<?xml version="1.0" encoding="utf-8"?>
<!-- Generator: Adobe Illustrator 23.0.2, SVG Export Plug-In . SVG Version: 6.00 Build 0)  -->
<svg version="1.1" id="Capa_1" xmlns="http://www.w3.org/2000/svg" xmlns:xlink="http://www.w3.org/1999/xlink" x="0px" y="0px"
	 viewBox="0 0 512 512" style="enable-background:new 0 0 512 512;" xml:space="preserve">
<style type="text/css">
	.Sombra_x0020_paralela{fill:none;}
	.Resplandor_x0020_externo_x0020_5_x0020_pt_x002E_{fill:none;}
	.Neón_x0020_azul{fill:none;stroke:#8AACDA;stroke-width:7;stroke-linecap:round;stroke-linejoin:round;}
	.Resalte_x0020_cromado{fill:url(#SVGID_1_);stroke:#FFFFFF;stroke-width:0.3629;stroke-miterlimit:1;}
	.A_x0020_todo_x0020_ritmo_GS{fill:#FFDD00;}
	.Alyssa_GS{fill:#A6D0E4;}
	.st0{fill:#0E24A5;}
	.st1{fill:#FFC1C1;}
	.st2{fill:#425AC2;}
	.st3{fill:#FE958E;}
	.st4{fill:#E98896;}
	.st5{fill:#FFB3B6;}
	.st6{fill:#7F4D4E;}
	.st7{clip-path:url(#SVGID_3_);}
	.st8{fill:#CCCCCC;}
	.st9{clip-path:url(#SVGID_5_);}
	.st10{fill:#FEE2E3;}
	.st11{fill:#FFFFFF;}
	.st12{clip-path:url(#SVGID_7_);}
	.st13{fill:#03053F;}
	.st14{fill:#FFCACE;}
	.st15{clip-path:url(#SVGID_9_);}
	.st16{clip-path:url(#SVGID_11_);}
	.st17{clip-path:url(#SVGID_13_);}
	.st18{clip-path:url(#SVGID_15_);}
	.st19{clip-path:url(#SVGID_17_);}
	.st20{clip-path:url(#SVGID_19_);}
</style>
<linearGradient id="SVGID_1_" gradientUnits="userSpaceOnUse" x1="0" y1="0" x2="6.123234e-17" y2="-1">
	<stop  offset="0" style="stop-color:#656565"/>
	<stop  offset="0.618" style="stop-color:#1B1B1B"/>
	<stop  offset="0.6292" style="stop-color:#545454"/>
	<stop  offset="0.9831" style="stop-color:#3E3E3E"/>
</linearGradient>
<g>
	<g>
		<g>
			<path class="st0" d="M422.86,460.54c-4.16-0.83-15.39-9.57-24.54-33.69c-5.23-13.78-19.97-84.86,0-89.85
				c19.97-4.99,16.22,30.78,16.22,63.64C414.54,420.68,422.86,460.54,422.86,460.54z"/>
		</g>
		<g>
			<path class="st0" d="M432.02,463.87c-10.5-0.7-8.32-106.9-9.15-131.86c-0.83-24.96-5.82-118.13,8.32-133.11
				c14.14-14.98,28.7-1.66,29.95,17.68c0.59,9.17-2.5,75.91-4.16,95.05c-1.66,19.13-3.74,62.39-5.41,89.85
				C449.9,428.93,444.49,464.7,432.02,463.87z"/>
		</g>
		<g>
			<g>
				<path class="st0" d="M451.57,465.12c0,0,23.31-45.99,29.12-81.53c10.4-63.64,12.48-125.62-1.66-124.79
					c-14.14,0.83-15.17,63.24-15.81,89.85c-1.66,69.05-17.89,112.31-17.89,112.31L451.57,465.12z"/>
			</g>
		</g>
		<g>
			<path class="st1" d="M449.55,463.21l-0.96-0.35c0.08-0.23,8.3-23.02,13.73-38.27c10.67-29.95,12.43-69.75,12.45-70.15l1.02,0.04
				c-0.02,0.4-1.79,40.36-12.51,70.45C457.85,440.19,449.63,462.98,449.55,463.21z"/>
		</g>
		<g>
			<path class="st1" d="M435.44,456.8h-1.02c0-14.2,2.47-55.77,2.5-56.19l1.02,0.06C437.91,401.09,435.44,442.62,435.44,456.8z"/>
		</g>
		<g>
			<path class="st1" d="M418.85,460.11c-0.09-0.21-8.81-21.47-13.75-40.62c-4.95-19.2-3.77-37.42-3.76-37.6l1.02,0.07
				c-0.01,0.18-1.18,18.24,3.73,37.27c4.93,19.09,13.62,40.28,13.7,40.49L418.85,460.11z"/>
		</g>
		<g>
			<path class="st2" d="M441.17,401.47c0,1.72-1.4,3.12-3.12,3.12c-1.72,0-3.12-1.4-3.12-3.12c0-1.72,1.4-3.12,3.12-3.12
				C439.77,398.35,441.17,399.75,441.17,401.47z"/>
		</g>
		<g>
			<path class="st2" d="M404.98,382.34c0,1.72-1.4,3.12-3.12,3.12c-1.72,0-3.12-1.4-3.12-3.12c0-1.72,1.4-3.12,3.12-3.12
				C403.58,379.22,404.98,380.61,404.98,382.34z"/>
		</g>
		<g>
			<path class="st2" d="M478.39,354.47c0,1.72-1.4,3.12-3.12,3.12c-1.72,0-3.12-1.4-3.12-3.12c0-1.72,1.4-3.12,3.12-3.12
				C477,351.35,478.39,352.75,478.39,354.47z"/>
		</g>
	</g>
	<g>
		<g>
			<path class="st2" d="M232.3,103.35l-17.45,7.99c-2.18,1-4.63-0.74-4.4-3.13l1.8-19.11c0.23-2.39,2.95-3.64,4.91-2.25l15.65,11.12
				C234.76,99.36,234.48,102.35,232.3,103.35z"/>
		</g>
		<g>
			<path class="st2" d="M170.11,130.41l18.58,14.76c2.32,1.85,1.78,5.51-0.98,6.6l-22.07,8.71c-2.76,1.09-5.66-1.22-5.23-4.15
				l3.49-23.48C164.34,129.93,167.79,128.57,170.11,130.41z"/>
		</g>
		<g>
			<path class="st2" d="M195.14,108.32l1.72,14.32c0.22,1.79-1.59,3.14-3.24,2.43l-13.26-5.67c-1.66-0.71-1.93-2.95-0.48-4.03
				l11.54-8.65C192.85,105.64,194.93,106.53,195.14,108.32z"/>
		</g>
		<g>
			<path class="st2" d="M221.09,148.55l-16.68-9.49c-2.08-1.19-2.1-4.19-0.03-5.4l16.56-9.7c2.07-1.21,4.68,0.27,4.69,2.67
				l0.12,19.19C225.77,148.22,223.18,149.74,221.09,148.55z"/>
		</g>
		<g>
			<path class="st0" d="M207.33,177.67c-0.71-1.3-1.42-2.59-2.14-3.87c-7.98-14.38-15.53-27.96-4.25-46.43
				c11.25-18.43,19.24-29.25,19.32-29.36l0.82,0.61c-0.08,0.11-8.04,10.89-19.27,29.28c-10.96,17.95-3.56,31.28,4.27,45.39
				c0.71,1.28,1.43,2.58,2.14,3.88L207.33,177.67z"/>
		</g>
		<g>
			
				<rect x="194.38" y="114.18" transform="matrix(0.8415 -0.5403 0.5403 0.8415 -35.6338 124.8169)" class="st0" width="1.02" height="17.91"/>
		</g>
		<g>
			
				<rect x="186.49" y="139.22" transform="matrix(0.1595 -0.9872 0.9872 0.1595 10.9041 309.1446)" class="st0" width="1.02" height="17.91"/>
		</g>
		<g>
			
				<rect x="197.21" y="135.97" transform="matrix(0.9985 -0.0548 0.0548 0.9985 -7.1686 11.5018)" class="st0" width="17.91" height="1.03"/>
		</g>
	</g>
	<g>
		<g>
			<path class="st2" d="M176.73,419.76l18.09-2.3c2.26-0.29,3.99,1.98,3.1,4.08l-7.05,16.82c-0.88,2.1-3.71,2.46-5.09,0.65
				l-11.04-14.51C173.36,422.68,174.47,420.05,176.73,419.76z"/>
		</g>
		<g>
			<path class="st2" d="M240.79,412.84l-12.67-18.65c-1.58-2.33-0.05-5.5,2.76-5.71l22.49-1.65c2.81-0.21,4.79,2.71,3.56,5.25
				l-9.82,20.3C245.89,414.91,242.37,415.17,240.79,412.84z"/>
		</g>
		<g>
			<path class="st2" d="M211.83,425.79l2.49-13.47c0.31-1.68,2.33-2.4,3.63-1.29l10.42,8.9c1.3,1.11,0.91,3.22-0.7,3.79l-12.92,4.58
				C213.15,428.86,211.52,427.47,211.83,425.79z"/>
		</g>
		<g>
			<path class="st2" d="M199.7,381.95l12.44,13.34c1.55,1.67,0.72,4.39-1.5,4.9l-17.77,4.1c-2.22,0.51-4.16-1.57-3.5-3.75
				l5.33-17.44C195.37,380.92,198.14,380.28,199.7,381.95z"/>
		</g>
		<g>
			<path class="st0" d="M186.15,428.04l-0.6-0.83c0.1-0.07,10.38-7.6,25.77-21.09c15.02-13.17,12.09-27.34,8.98-42.35
				c-0.28-1.37-0.57-2.74-0.84-4.13l1-0.2c0.27,1.38,0.56,2.75,0.84,4.12c3.17,15.31,6.16,29.77-9.31,43.33
				C196.56,420.41,186.25,427.96,186.15,428.04z"/>
		</g>
		<g>
			
				<rect x="215.75" y="403.92" transform="matrix(0.9643 -0.2647 0.2647 0.9643 -101.4516 71.952)" class="st0" width="1.03" height="17.01"/>
		</g>
		<g>
			
				<rect x="229.99" y="383.45" transform="matrix(0.4467 -0.8947 0.8947 0.4467 -223.1367 423.0974)" class="st0" width="1.02" height="17.01"/>
		</g>
		<g>
			
				<rect x="209.3" y="388.62" transform="matrix(0.2465 -0.9691 0.9691 0.2465 -226.7728 502.5728)" class="st0" width="1.02" height="17.01"/>
		</g>
	</g>
	<g>
		<polygon class="st1" points="409.97,450.97 458.22,450.97 449.81,512.83 418.38,512.83 		"/>
	</g>
	<g>
		<path class="st3" d="M168.14,331.07l23.52,104.27l-18.69,66.68h-15.44l8.26-66.88c0,0-12.54-31.95-18.81-48.8l-10.58,2.35
			l3.53,48.8l-12.39,64.53h-15.43l1.96-63.94c0,0-16.69-80.44-16.46-90.55C97.17,345.88,168.14,331.07,168.14,331.07z"/>
	</g>
	<g>
		<path class="st0" d="M174.02,346.36l-72.91,14.11l-48.01-53.22c-5.71-4.8-6.1-13.45-0.84-18.74l31.44-31.62
			c5.26-5.29,13.92-4.95,18.75,0.74L174.02,346.36z"/>
	</g>
	<g>
		<path class="st4" d="M74.14,273.83L68.01,280c-1.91,1.92-5.2,1.73-7.36-0.42l-7.6-7.56c-2.16-2.15-2.37-5.44-0.46-7.36l6.13-6.17
			c1.91-1.92,5.2-1.73,7.36,0.42l7.6,7.56C75.84,268.62,76.04,271.92,74.14,273.83z"/>
	</g>
	<g>
		<path class="st0" d="M49.01,293.94c-1.87,4.68,1.86,65.18,5.3,69.57c6.86,8.73,61.77,12.48,61.77,12.48v-13.42l-40.56-14.35
			L69.6,298C69.6,298,51.84,286.87,49.01,293.94z"/>
	</g>
	<g>
		<path class="st5" d="M69.14,247.99c5.92,10.81-2.33,16.55-13.15,22.47c-10.81,5.92-24.38,1.95-30.3-8.86
			c-5.92-10.81-1.95-24.38,8.86-30.3C45.37,225.38,63.22,237.18,69.14,247.99z"/>
	</g>
	<g>
		<path class="st6" d="M30.17,253.3c0,0,25.59-20.14,29.67-29.84c3.84-9.13,1.49-16.12-8.58-16.24
			c-12.91-0.15-19.8,13.48-22.53,28.8C27.83,241.1,30.17,253.3,30.17,253.3z"/>
	</g>
	<g>
		<defs>
			<path id="SVGID_2_" d="M69.14,247.99c5.92,10.81-2.33,16.55-13.15,22.47c-10.81,5.92-24.38,1.95-30.3-8.86
				c-5.92-10.81-1.95-24.38,8.86-30.3C45.37,225.38,63.22,237.18,69.14,247.99z"/>
		</defs>
		<clipPath id="SVGID_3_">
			<use xlink:href="#SVGID_2_"  style="overflow:visible;"/>
		</clipPath>
		<g class="st7">
			<path class="st6" d="M33.89,247.61c0,0,5.59,5.56,4.82,6.33c-0.77,0.77-4.8,2.51-4.21,7.32c0.59,4.8,5.59,5.17,8.66,3.24
				c3.07-1.93,7.9,6.32,0.8,11.15c-7.1,4.83-23.28-7.05-25.61-15.5c-2.33-8.45,1.47-24.22,5.3-27.31
				c3.84-3.09,13.85,3.42,13.85,3.42L33.89,247.61z"/>
		</g>
	</g>
	<g>
		<path class="st6" d="M78,244.7c6.12,6.09,6.15,15.98,0.06,22.11c-6.09,6.12-15.98,6.15-22.11,0.06
			c-6.12-6.09-6.15-15.98-0.06-22.11C61.98,238.64,71.88,238.61,78,244.7z"/>
	</g>
	<g>
		<path class="st5" d="M66.4,250.78l-4.62,4.65c-0.95,0.95-2.49,0.96-3.44,0.01l-0.75-0.75c-0.95-0.95-0.96-2.49-0.01-3.44
			l4.62-4.65c0.95-0.95,2.49-0.96,3.44-0.01l0.75,0.75C67.34,248.29,67.34,249.83,66.4,250.78z"/>
	</g>
	<g>
		<g>
			<g>
				<polygon class="st8" points="200.14,508.58 194.49,506.11 256.61,364.77 262.26,367.25 				"/>
			</g>
			<g>
				<path class="st1" d="M202.66,506.99c0.06,3.13-2.43,5.71-5.56,5.77c-3.13,0.06-5.71-2.43-5.77-5.56
					c-0.06-3.13,2.43-5.71,5.56-5.77C200.02,501.37,202.6,503.86,202.66,506.99z"/>
			</g>
		</g>
		<g>
			<g>
				<polygon class="st8" points="333.7,508.58 339.35,506.11 276.72,363.61 271.07,366.08 				"/>
			</g>
			<g>
				<path class="st1" d="M331.18,506.99c-0.06,3.13,2.43,5.71,5.56,5.77c3.13,0.06,5.71-2.43,5.77-5.56
					c0.06-3.13-2.43-5.71-5.56-5.77S331.24,503.86,331.18,506.99z"/>
			</g>
		</g>
	</g>
	<g>
		<path class="st0" d="M250.69,153.94c1.09-11.47,10.38-14.75,14.21-19.67c3.82-4.92,4.74-19.49,9.29-27.5
			c4.88-8.58,12.75-21.49,34.24-19.12c17.31,1.91,22.04,15.48,22.58,25.86c0.55,10.38,9.83,20.22,16.39,23.49
			c6.56,3.28,9.83,15.3,9.29,20.76C356.14,163.22,250.69,153.94,250.69,153.94z"/>
	</g>
	<g>
		<path class="st3" d="M276.46,220.59h58.01l-7.98-29.62l15.23-47.44c0.65-6.29-5.43-11.68-13.15-11.68h-46.19
			c-7.73,0-13.8,5.39-13.15,11.68l16.46,47.44L276.46,220.59z"/>
	</g>
	<g>
		<path class="st3" d="M276.44,155.04c-4.71-0.52-11.69-9.07-21.97-27.21c-10.29-18.14-11.16-21.63-10.99-24.24
			c0.17-2.62,7.5-39.24,7.5-39.24h11.16l-3.31,39.76c0,0,13.72,22.5,22.46,27.96C286.13,135.11,276.44,155.04,276.44,155.04z"/>
	</g>
	<g>
		<path class="st3" d="M333.97,155.04c4.71-0.52,11.68-9.07,21.97-27.21c10.29-18.14,11.16-21.63,10.99-24.24
			c-0.17-2.62-7.5-39.24-7.5-39.24h-11.16l3.31,39.76c0,0-13.75,21.68-21.13,28.15C326.13,136.06,333.97,155.04,333.97,155.04z"/>
	</g>
	<g>
		<defs>
			<path id="SVGID_4_" d="M276.46,220.59h58.01l-7.98-29.62l15.23-47.44c0.65-6.29-5.43-11.68-13.15-11.68h-46.19
				c-7.73,0-13.8,5.39-13.15,11.68l16.46,47.44L276.46,220.59z"/>
		</defs>
		<clipPath id="SVGID_5_">
			<use xlink:href="#SVGID_4_"  style="overflow:visible;"/>
		</clipPath>
		<g class="st9">
			<circle class="st4" cx="305.23" cy="122.34" r="23.28"/>
		</g>
	</g>
	<g>
		<g>
			<path class="st10" d="M423.32,372.23h-312.8c-12.34,0-22.34-10-22.34-22.34V173.5c0-12.34,10-22.34,22.34-22.34h312.8
				c12.34,0,22.34,10,22.34,22.34v176.39C445.66,362.23,435.66,372.23,423.32,372.23z"/>
		</g>
	</g>
	<g>
		<path class="st1" d="M147.22,217.04h-30.99c-4.45,0-8.06-3.61-8.06-8.06v-30.99c0-4.45,3.61-8.06,8.06-8.06h30.99
			c4.45,0,8.06,3.61,8.06,8.06v30.99C155.28,213.44,151.67,217.04,147.22,217.04z"/>
	</g>
	<g>
		<path class="st1" d="M215.41,217.04h-30.99c-4.45,0-8.06-3.61-8.06-8.06v-30.99c0-4.45,3.61-8.06,8.06-8.06h30.99
			c4.45,0,8.06,3.61,8.06,8.06v30.99C223.47,213.44,219.86,217.04,215.41,217.04z"/>
	</g>
	<g>
		<path class="st1" d="M283.59,217.04H252.6c-4.45,0-8.06-3.61-8.06-8.06v-30.99c0-4.45,3.61-8.06,8.06-8.06h30.99
			c4.45,0,8.06,3.61,8.06,8.06v30.99C291.65,213.44,288.04,217.04,283.59,217.04z"/>
	</g>
	<g>
		<path class="st1" d="M351.78,217.04h-30.99c-4.45,0-8.06-3.61-8.06-8.06v-30.99c0-4.45,3.61-8.06,8.06-8.06h30.99
			c4.45,0,8.06,3.61,8.06,8.06v30.99C359.84,213.44,356.23,217.04,351.78,217.04z"/>
	</g>
	<g>
		<g>
			<path class="st1" d="M419.97,217.04h-30.99c-4.45,0-8.06-3.61-8.06-8.06v-30.99c0-4.45,3.61-8.06,8.06-8.06h30.99
				c4.45,0,8.06,3.61,8.06,8.06v30.99C428.02,213.44,424.42,217.04,419.97,217.04z"/>
		</g>
	</g>
	<g>
		<path class="st1" d="M147.22,284.07h-30.99c-4.45,0-8.06-3.61-8.06-8.06v-30.99c0-4.45,3.61-8.06,8.06-8.06h30.99
			c4.45,0,8.06,3.61,8.06,8.06v30.99C155.28,280.47,151.67,284.07,147.22,284.07z"/>
	</g>
	<g>
		<path class="st1" d="M215.41,284.07h-30.99c-4.45,0-8.06-3.61-8.06-8.06v-30.99c0-4.45,3.61-8.06,8.06-8.06h30.99
			c4.45,0,8.06,3.61,8.06,8.06v30.99C223.47,280.47,219.86,284.07,215.41,284.07z"/>
	</g>
	<g>
		<path class="st1" d="M283.59,284.07H252.6c-4.45,0-8.06-3.61-8.06-8.06v-30.99c0-4.45,3.61-8.06,8.06-8.06h30.99
			c4.45,0,8.06,3.61,8.06,8.06v30.99C291.65,280.47,288.04,284.07,283.59,284.07z"/>
	</g>
	<g>
		<path class="st1" d="M419.97,284.07h-30.99c-4.45,0-8.06-3.61-8.06-8.06v-30.99c0-4.45,3.61-8.06,8.06-8.06h30.99
			c4.45,0,8.06,3.61,8.06,8.06v30.99C428.02,280.47,424.42,284.07,419.97,284.07z"/>
	</g>
	<g>
		<path class="st1" d="M147.22,351.1h-30.99c-4.45,0-8.06-3.61-8.06-8.06v-30.99c0-4.45,3.61-8.06,8.06-8.06h30.99
			c4.45,0,8.06,3.61,8.06,8.06v30.99C155.28,347.49,151.67,351.1,147.22,351.1z"/>
	</g>
	<g>
		<path class="st1" d="M215.41,351.1h-30.99c-4.45,0-8.06-3.61-8.06-8.06v-30.99c0-4.45,3.61-8.06,8.06-8.06h30.99
			c4.45,0,8.06,3.61,8.06,8.06v30.99C223.47,347.49,219.86,351.1,215.41,351.1z"/>
	</g>
	<g>
		<path class="st1" d="M283.59,351.1H252.6c-4.45,0-8.06-3.61-8.06-8.06v-30.99c0-4.45,3.61-8.06,8.06-8.06h30.99
			c4.45,0,8.06,3.61,8.06,8.06v30.99C291.65,347.49,288.04,351.1,283.59,351.1z"/>
	</g>
	<g>
		<path class="st1" d="M351.78,351.1h-30.99c-4.45,0-8.06-3.61-8.06-8.06v-30.99c0-4.45,3.61-8.06,8.06-8.06h30.99
			c4.45,0,8.06,3.61,8.06,8.06v30.99C359.84,347.49,356.23,351.1,351.78,351.1z"/>
	</g>
	<g>
		<path class="st1" d="M419.97,351.1h-30.99c-4.45,0-8.06-3.61-8.06-8.06v-30.99c0-4.45,3.61-8.06,8.06-8.06h30.99
			c4.45,0,8.06,3.61,8.06,8.06v30.99C428.02,347.49,424.42,351.1,419.97,351.1z"/>
	</g>
	<g>
		<path class="st2" d="M172.97,501.83h-15.54v10.22h27.02c1.78,0,2.4-4.01,0.84-4.87L172.97,501.83z"/>
	</g>
	<g>
		<path class="st2" d="M127.53,501.83h-15.57v10.22h27.02c1.78,0,2.4-4.01,0.84-4.87L127.53,501.83z"/>
	</g>
	<g>
		<path class="st11" d="M366.21,270.59c3.53,1.18,12.58,8.3,16.69,16.24c3.08,5.95,18.98,37.85,18.19,42.95
			c-0.78,5.1-48.21,36.06-48.21,36.06l-7.06-15.68c0,0,32.93-21.95,31.75-25.09c-1.18-3.14-17.75-36.34-17.75-36.34L366.21,270.59z"
			/>
	</g>
	<g>
		<path class="st5" d="M336.41,380.76h-28.4l1.53,122.72h10.97c0,0,8.31-61.74,11.43-95.86h3.99
			C336.45,398.67,336.47,389.76,336.41,380.76z"/>
	</g>
	<g>
		<path class="st5" d="M342.06,377.69l-26.13,12.7c3.99,8.07,7.87,16.09,11.32,24.36l3.26-1.58l43.98,85.21l9.87-4.8
			c0,0-30.45-92.23-38.87-108.76C345.14,383.45,342.06,377.69,342.06,377.69z"/>
	</g>
	<g>
		<path class="st11" d="M357.47,341.43H316.9l-10.39-65.36c-0.55-5.33,4.6-9.91,11.16-9.91h42.25c6.55,0,11.71,4.58,11.16,9.91
			L357.47,341.43z"/>
	</g>
	<g>
		<path class="st0" d="M308.6,503.31h12.41v9.52h-25.17c-1.66,0-2.23-3.73-0.78-4.54L308.6,503.31z"/>
	</g>
	<g>
		<path class="st0" d="M373.37,498.74l11.16-5.43l4.16,8.56l-22.64,11.01c-1.49,0.73-3.64-2.38-2.68-3.74L373.37,498.74z"/>
	</g>
	<g>
		<path class="st2" d="M316.9,341.43h40.57c0,0,10.58,12.38,18.03,49.22c6.37,31.5,12.93,79.18,12.93,79.18h-96.53
			c0,0,6.93-70.1,12.35-92.9C309.84,353.42,316.9,341.43,316.9,341.43z"/>
	</g>
	<g>
		<defs>
			<path id="SVGID_6_" d="M357.47,341.43H316.9l-10.39-65.36c-0.55-5.33,4.6-9.91,11.16-9.91h42.25c6.55,0,11.71,4.58,11.16,9.91
				L357.47,341.43z"/>
		</defs>
		<clipPath id="SVGID_7_">
			<use xlink:href="#SVGID_6_"  style="overflow:visible;"/>
		</clipPath>
		<g class="st12">
			<rect x="298.87" y="329.71" class="st13" width="82.32" height="4.7"/>
		</g>
		<g class="st12">
			<rect x="298.87" y="318.22" class="st13" width="82.32" height="4.7"/>
		</g>
		<g class="st12">
			<rect x="298.87" y="306.74" class="st13" width="82.32" height="4.7"/>
		</g>
		<g class="st12">
			<rect x="298.87" y="295.25" class="st13" width="82.32" height="4.7"/>
		</g>
		<g class="st12">
			<rect x="298.87" y="283.76" class="st13" width="82.32" height="4.7"/>
		</g>
		<g class="st12">
			<rect x="298.87" y="272.28" class="st13" width="82.32" height="4.7"/>
		</g>
	</g>
	<g>
		<path class="st4" d="M334.05,270.61h7.4c2.3,0,4.16-2.1,4.16-4.69v-9.12c0-2.59-1.86-4.69-4.16-4.69h-7.4
			c-2.3,0-4.16,2.1-4.16,4.69v9.12C329.89,268.51,331.75,270.61,334.05,270.61z"/>
	</g>
	<g>
		<path class="st14" d="M321.46,252.1c2.97,10.06,11.38,8.52,21.44,5.54c10.06-2.97,15.8-13.53,12.83-23.59
			c-2.97-10.06-13.53-15.8-23.59-12.83C322.08,224.2,318.49,242.05,321.46,252.1z"/>
	</g>
	<g>
		<path class="st3" d="M332.77,218.58c-11.61,4.46-12.49,10.44-13.08,14.16c-0.52,3.31,1.76,1.18,7.2,1.91
			c3.2,0.43,6.32,0.44,6.61,2.5c0.67,4.67,0.05,42.97,2.4,42.97c2.35,0,36.21,2.06,36.99-1.08c0.78-3.14-5.59-47.33-18.23-56.15
			C344.41,215.73,337.85,216.63,332.77,218.58z"/>
	</g>
	<g>
		<path class="st11" d="M320.23,266.4c0,0-31.62-1.34-35.67-2.35c-4.05-1.01-30.85-39.85-30.85-39.85l-8.43,4.39
			c0,0,24.29,45.54,29.35,47.56s35.02,13.38,35.02,13.38s5.49,0,9.02-9.02C322.38,271.02,320.23,266.4,320.23,266.4z"/>
	</g>
	<g>
		<defs>
			<path id="SVGID_8_" d="M283.59,217.04H252.6c-4.45,0-8.06-3.61-8.06-8.06v-30.99c0-4.45,3.61-8.06,8.06-8.06h30.99
				c4.45,0,8.06,3.61,8.06,8.06v30.99C291.65,213.44,288.04,217.04,283.59,217.04z"/>
		</defs>
		<clipPath id="SVGID_9_">
			<use xlink:href="#SVGID_8_"  style="overflow:visible;"/>
		</clipPath>
		<g class="st15">
			<g>
				<g>
					
						<rect x="265.4" y="127.33" transform="matrix(0.7071 -0.7071 0.7071 0.7071 -58.2925 246.2556)" class="st2" width="5.38" height="132.31"/>
				</g>
			</g>
			<g>
				<g>
					
						<rect x="201.94" y="190.8" transform="matrix(0.7072 -0.7071 0.7071 0.7072 -58.2977 246.223)" class="st2" width="132.31" height="5.38"/>
				</g>
			</g>
		</g>
	</g>
	<g>
		<defs>
			<path id="SVGID_10_" d="M147.22,284.07h-30.99c-4.45,0-8.06-3.61-8.06-8.06v-30.99c0-4.45,3.61-8.06,8.06-8.06h30.99
				c4.45,0,8.06,3.61,8.06,8.06v30.99C155.28,280.47,151.67,284.07,147.22,284.07z"/>
		</defs>
		<clipPath id="SVGID_11_">
			<use xlink:href="#SVGID_10_"  style="overflow:visible;"/>
		</clipPath>
		<g class="st16">
			<g>
				<g>
					
						<rect x="129.03" y="194.36" transform="matrix(0.7071 -0.7071 0.7071 0.7071 -145.6362 169.4561)" class="st2" width="5.38" height="132.31"/>
				</g>
			</g>
			<g>
				<g>
					
						<rect x="65.57" y="257.83" transform="matrix(0.7071 -0.7071 0.7071 0.7071 -145.6362 169.4561)" class="st2" width="132.31" height="5.38"/>
				</g>
			</g>
		</g>
	</g>
	<g>
		<defs>
			<path id="SVGID_12_" d="M215.41,351.1h-30.99c-4.45,0-8.06-3.61-8.06-8.06v-30.99c0-4.45,3.61-8.06,8.06-8.06h30.99
				c4.45,0,8.06,3.61,8.06,8.06v30.99C223.47,347.49,219.86,351.1,215.41,351.1z"/>
		</defs>
		<clipPath id="SVGID_13_">
			<use xlink:href="#SVGID_12_"  style="overflow:visible;"/>
		</clipPath>
		<g class="st17">
			
				<rect x="197.22" y="261.39" transform="matrix(0.7071 -0.7071 0.7071 0.7071 -173.0586 237.2959)" class="st2" width="5.38" height="132.31"/>
		</g>
		<g class="st17">
			
				<rect x="133.75" y="324.85" transform="matrix(0.7071 -0.7071 0.7071 0.7071 -173.0578 237.2925)" class="st2" width="132.31" height="5.38"/>
		</g>
	</g>
	<g>
		<rect x="295.86" y="115.33" class="st4" width="17.48" height="21.85"/>
	</g>
	<g>
		<path class="st5" d="M310.79,122.25c-7.34,6.16-12.43,0.65-18.59-6.69c-6.16-7.34-5.2-18.29,2.14-24.45
			c7.34-6.16,18.29-5.2,24.45,2.14C324.96,100.6,318.14,116.09,310.79,122.25z"/>
	</g>
	<g>
		<path class="st0" d="M301.7,90.29c-3.79,0-11.04-11.36-4.42-17.67c6.24-5.94,16.35-0.5,16.72,5.99
			C314.63,89.66,309.9,90.29,301.7,90.29z"/>
	</g>
	<g>
		<defs>
			<path id="SVGID_14_" d="M311.33,122.16c-7.34,6.16-12.97,0.74-19.13-6.61c-6.16-7.34-6.06-17.93,1.29-24.09
				c7.34-6.16,19.16-6.07,25.31,1.27C324.96,100.09,318.68,116,311.33,122.16z"/>
		</defs>
		<clipPath id="SVGID_15_">
			<use xlink:href="#SVGID_14_"  style="overflow:visible;"/>
		</clipPath>
		<g class="st18">
			<path class="st0" d="M283.11,108.77c2.55,0,10.56-1.96,12.38-7.42c1.82-5.46,2.32-6.28,7.92-6.28c7.26,0,9.32,0.08,10.38,3.96
				c1.64,6.01,10.11,14.89,15.57,13.8c5.46-1.09,3.28-18.62-5.46-22.63c-8.74-4.01-32.78-10.56-36.79-3.64
				c-4.01,6.92-5.46,22.22-5.46,22.22H283.11z"/>
		</g>
	</g>
	<g>
		
			<rect x="243.92" y="204.32" transform="matrix(0.7071 -0.7071 0.7071 0.7071 -72.7439 240.1174)" class="st11" width="19.12" height="7.09"/>
	</g>
	<g>
		<path class="st5" d="M253.71,224.2c0,0,2.43-11.89-0.51-12.48c-1.93-0.39-2.55,4.9-5.29,3.92c-1.17-0.42,1.76-11.17-0.39-11.37
			c-2.16-0.2-6.66,10.39-6.27,13.33c0.39,2.94,4.03,10.98,4.03,10.98L253.71,224.2z"/>
	</g>
	<g>
		<polygon class="st10" points="257.73,198.6 262.74,203.62 264.76,198.39 263.42,196.89 		"/>
	</g>
	<g>
		<path class="st0" d="M263.42,196.89l1.35,1.5c0,0,1.91-1.81,1.18-2.55C265.06,194.96,263.42,196.89,263.42,196.89z"/>
	</g>
	<g>
		<defs>
			<path id="SVGID_16_" d="M316.9,341.43h40.57c0,0,10.58,12.38,18.03,49.22c6.37,31.5,12.93,79.18,12.93,79.18h-96.53
				c0,0,6.93-70.1,12.35-92.9C309.84,353.42,316.9,341.43,316.9,341.43z"/>
		</defs>
		<clipPath id="SVGID_17_">
			<use xlink:href="#SVGID_16_"  style="overflow:visible;"/>
		</clipPath>
		<g class="st19">
			<path class="st0" d="M302.03,360.71h21.21c0,0,1.87,27.66-14.98,33.07c-13.15,4.22-16.22-3.12-16.22-3.12L302.03,360.71z"/>
		</g>
	</g>
	<g>
		<path class="st5" d="M116.09,375.99c0,0,19.65-1.56,21.53-4.37c1.87-2.81-3.43-7.18-10.61-6.55c-7.18,0.62-11.23,6.55-11.23,6.55
			L116.09,375.99z"/>
	</g>
	<g>
		<path class="st5" d="M250.98,64.35h11.16c0,0,3.7-16.71,1.67-17.65c-1.21-0.56-2.96,5.3-3.74,6.71c-0.78,1.4-6.86-0.62-8.42,1.56
			C250.08,57.16,250.98,64.35,250.98,64.35z"/>
	</g>
	<g>
		<path class="st5" d="M359.52,64.35h-11.16c0,0-3.7-16.71-1.67-17.65c1.21-0.56,2.96,5.3,3.74,6.71c0.78,1.4,6.86-0.62,8.42,1.56
			C360.42,57.16,359.52,64.35,359.52,64.35z"/>
	</g>
	<g>
		<defs>
			<polygon id="SVGID_18_" points="409.97,450.97 458.22,450.97 449.81,512.83 418.38,512.83 			"/>
		</defs>
		<clipPath id="SVGID_19_">
			<use xlink:href="#SVGID_18_"  style="overflow:visible;"/>
		</clipPath>
		<g class="st20">
			<rect x="398.11" y="456.17" class="st10" width="89.85" height="4.99"/>
		</g>
	</g>
	<g>
		<path class="st1" d="M310.14,15.93c0,4.39-5.35,15.76-5.35,15.76s-6.51-11.37-6.51-15.76s6.51-16.92,6.51-16.92
			S310.14,11.54,310.14,15.93z"/>
	</g>
	<g>
		<path class="st1" d="M251.99,26.77c2.52,3.6,4.66,15.97,4.66,15.97s-11.85-5.57-14.37-9.17c-2.52-3.6-4.38-17.59-4.38-17.59
			S249.47,23.18,251.99,26.77z"/>
	</g>
	<g>
		<path class="st1" d="M217.17,67.85c4.09,1.61,12.71,10.74,12.71,10.74s-12.96,1.9-17.05,0.29c-4.09-1.61-13.36-12.24-13.36-12.24
			S213.08,66.25,217.17,67.85z"/>
	</g>
	<g>
		<path class="st1" d="M355.96,26.77c-2.52,3.6-4.66,15.97-4.66,15.97s11.85-5.57,14.37-9.17c2.52-3.6,4.38-17.59,4.38-17.59
			S358.48,23.18,355.96,26.77z"/>
	</g>
	<g>
		<path class="st1" d="M390.79,67.85c-4.09,1.61-12.71,10.74-12.71,10.74s12.96,1.9,17.05,0.29c4.09-1.61,13.36-12.24,13.36-12.24
			S394.88,66.25,390.79,67.85z"/>
	</g>
</g>
</svg>
