<?xml version="1.0" encoding="utf-8"?>
<!-- Generator: Adobe Illustrator 23.0.2, SVG Export Plug-In . SVG Version: 6.00 Build 0)  -->
<svg version="1.1" id="Capa_1" xmlns="http://www.w3.org/2000/svg" xmlns:xlink="http://www.w3.org/1999/xlink" x="0px" y="0px"
	 viewBox="0 0 512 512" style="enable-background:new 0 0 512 512;" xml:space="preserve">
<style type="text/css">
	.Sombra_x0020_paralela{fill:none;}
	.Resplandor_x0020_externo_x0020_5_x0020_pt_x002E_{fill:none;}
	.Neón_x0020_azul{fill:none;stroke:#8AACDA;stroke-width:7;stroke-linecap:round;stroke-linejoin:round;}
	.Resalte_x0020_cromado{fill:url(#SVGID_1_);stroke:#FFFFFF;stroke-width:0.3629;stroke-miterlimit:1;}
	.A_x0020_todo_x0020_ritmo_GS{fill:#FFDD00;}
	.Alyssa_GS{fill:#A6D0E4;}
	.st0{fill:#FFC1C1;}
	.st1{fill:#03053F;}
	.st2{fill:#0055AA;}
	.st3{fill:#8EA8DD;}
	.st4{fill:#04153F;}
	.st5{fill:#0E24A5;}
	.st6{fill:#A4B8EA;}
	.st7{fill:#FE958E;}
	.st8{fill:#FEE2E3;}
	.st9{fill:#425AC2;}
	.st10{clip-path:url(#SVGID_3_);}
	.st11{fill:#E98896;}
	.st12{clip-path:url(#SVGID_5_);}
	.st13{fill:#C0D1F2;}
	.st14{fill:#112256;}
</style>
<linearGradient id="SVGID_1_" gradientUnits="userSpaceOnUse" x1="0" y1="0" x2="6.123234e-17" y2="-1">
	<stop  offset="0" style="stop-color:#656565"/>
	<stop  offset="0.618" style="stop-color:#1B1B1B"/>
	<stop  offset="0.6292" style="stop-color:#545454"/>
	<stop  offset="0.9831" style="stop-color:#3E3E3E"/>
</linearGradient>
<g>
	<g>
		<path class="st0" d="M290.67,94.51c-0.3,12.65-16.48,45.02-16.48,45.02s-17.96-33.18-17.67-45.83s19.89-48.27,19.89-48.27
			S290.97,81.87,290.67,94.51z"/>
	</g>
	<g>
		<path class="st0" d="M199.6,118.05c8.53,9.34,19.24,43.91,19.24,43.91s-35.92-11.53-44.46-20.87
			c-8.53-9.34-19.03-48.62-19.03-48.62S191.07,108.71,199.6,118.05z"/>
	</g>
	<g>
		<path class="st0" d="M345.24,118.05c-8.53,9.34-19.24,43.91-19.24,43.91s35.92-11.53,44.46-20.87
			c8.53-9.34,19.03-48.62,19.03-48.62S353.78,108.71,345.24,118.05z"/>
	</g>
	<g>
		<rect x="273.57" y="88.84" class="st1" width="1.09" height="295.82"/>
	</g>
	<g>
		<path class="st1" d="M251.82,382.07c-0.05-1.26-5.06-126.04-12.17-168.73c-8.56-51.38-57.59-88.9-58.09-89.27l0.65-0.87
			c0.5,0.37,49.87,38.14,58.5,89.96c7.13,42.75,12.14,167.6,12.19,168.86L251.82,382.07z"/>
	</g>
	<g>
		<path class="st1" d="M295.11,382.07l-1.09-0.04c0.05-1.26,5.06-126.11,12.19-168.86c8.64-51.82,58.01-89.59,58.5-89.96l0.65,0.87
			c-0.49,0.37-49.52,37.89-58.08,89.27C300.17,256.04,295.16,380.82,295.11,382.07z"/>
	</g>
	<g>
		<path class="st2" d="M293.51,368.39h-45.65c0,0-10.08,4.73-11.27,20.07c-2.18,27.95,15.32,77.12,15.32,77.12h43.07
			c0,0,14.31-58.68,11.15-77.12C303.6,373.65,293.51,368.39,293.51,368.39z"/>
	</g>
	<g>
		<rect x="144.67" y="329.41" class="st3" width="18.92" height="72.43"/>
	</g>
	<g>
		<rect x="148.59" y="380.96" class="st3" width="11.09" height="72.43"/>
	</g>
	<g>
		<path class="st4" d="M46.16,216.3l59.6,96.58c0,0,103.1,16.1,103.97,7.4c0.18-1.79,1.31-33.93-6.96-36.54
			C194.51,281.12,46.16,216.3,46.16,216.3z"/>
	</g>
	<g>
		<path class="st1" d="M200.16,338.55H99.23c-5.29,0-9.57-4.28-9.57-9.57v-8.7c0-5.29,4.29-9.57,9.57-9.57h100.93
			c5.29,0,9.57,4.28,9.57,9.57v8.7C209.73,334.26,205.45,338.55,200.16,338.55z"/>
	</g>
	<g>
		<path class="st5" d="M93.14,337.24l14.79-26.54c0,0-68.71-107.92-70.46-107.47c-1.75,0.45-21.77-3.9-21.77,7.41
			C15.71,221.96,93.14,337.24,93.14,337.24z"/>
	</g>
	<g>
		<g>
			<path class="st3" d="M99.84,454.72c-3.48-5.37-5.25-11.13-5.25-17.1c0-22.77,26.71-41.3,59.54-41.3
				c32.83,0,59.54,18.52,59.54,41.3c0,5.53-1.52,10.9-4.53,15.94l-8.75-5.21c2.05-3.44,3.09-7.05,3.09-10.72
				c0-16.86-22.6-31.11-49.36-31.11c-26.76,0-49.36,14.25-49.36,31.11c0,3.98,1.22,7.87,3.61,11.56L99.84,454.72z"/>
		</g>
	</g>
	<g>
		<g>
			<path class="st3" d="M304.9,462.13c-5.27,5.27-13.81,5.27-19.07,0l0,0c-5.27-5.27-5.27-13.81,0-19.07l22.76-22.76
				c5.27-5.27,13.81-5.27,19.07,0l0,0c5.27,5.27,5.27,13.81,0,19.07L304.9,462.13z"/>
		</g>
		<g>
			<path class="st3" d="M466.07,462.13c5.27,5.27,13.81,5.27,19.07,0l0,0c5.27-5.27,5.27-13.81,0-19.07l-22.76-22.76
				c-5.27-5.27-13.81-5.27-19.07,0l0,0c-5.27,5.27-5.27,13.81,0,19.07L466.07,462.13z"/>
		</g>
		<g>
			<g>
				<path class="st6" d="M320.53,206.01c-4.02-6.2-6.06-12.83-6.06-19.73c0-26.26,30.81-47.63,68.68-47.63
					c37.87,0,68.68,21.37,68.68,47.63c0,6.38-1.76,12.57-5.22,18.38l-10.09-6.01c2.37-3.97,3.57-8.13,3.57-12.37
					c0-19.45-26.07-35.89-56.93-35.89c-30.86,0-56.93,16.43-56.93,35.89c0,4.59,1.4,9.07,4.17,13.34L320.53,206.01z"/>
			</g>
		</g>
		<g>
			
				<rect x="441.31" y="202.24" transform="matrix(0.54 -0.8417 0.8417 0.54 19.3555 495.4049)" class="st0" width="43.19" height="55.51"/>
		</g>
		<g>
			<g>
				<path class="st7" d="M431.24,205.04c1.03-2.18,2.26-4.31,3.7-6.35c13.38-18.91,39.56-23.39,58.47-10.01
					c18.91,13.38,23.39,39.56,10.01,58.47c-1.44,2.04-3.05,3.9-4.76,5.6L431.24,205.04z"/>
			</g>
		</g>
		<g>
			
				<rect x="276.09" y="210.14" transform="matrix(0.8417 -0.54 0.54 0.8417 -77.0286 200.7691)" class="st0" width="55.51" height="43.19"/>
		</g>
		<g>
			
				<ellipse transform="matrix(0.241 -0.9705 0.9705 0.241 -37.1283 630.3926)" class="st7" cx="384.46" cy="338.93" rx="127.63" ry="127.63"/>
		</g>
		<g>
			
				<ellipse transform="matrix(0.2127 -0.9771 0.9771 0.2127 -28.4825 642.5181)" class="st8" cx="384.46" cy="338.93" rx="106.1" ry="106.1"/>
		</g>
		<g>
			<path class="st9" d="M388.37,246.6c0,2.16-1.75,3.91-3.91,3.91c-2.16,0-3.91-1.75-3.91-3.91c0-2.16,1.75-3.91,3.91-3.91
				C386.62,242.68,388.37,244.44,388.37,246.6z"/>
		</g>
		<g>
			<path class="st9" d="M341.68,257.01c1.08,1.87,0.44,4.27-1.43,5.35c-1.87,1.08-4.27,0.44-5.35-1.43
				c-1.08-1.87-0.44-4.27,1.43-5.35C338.2,254.5,340.6,255.14,341.68,257.01z"/>
		</g>
		<g>
			<path class="st9" d="M306.45,289.38c1.87,1.08,2.51,3.47,1.43,5.35c-1.08,1.87-3.47,2.51-5.35,1.43
				c-1.87-1.08-2.51-3.47-1.43-5.35C302.18,288.94,304.58,288.29,306.45,289.38z"/>
		</g>
		<g>
			<path class="st9" d="M292.12,335.02c2.16,0,3.91,1.75,3.91,3.91c0,2.16-1.75,3.91-3.91,3.91c-2.16,0-3.91-1.75-3.91-3.91
				C288.21,336.77,289.96,335.02,292.12,335.02z"/>
		</g>
		<g>
			<path class="st9" d="M302.53,381.71c1.87-1.08,4.27-0.44,5.35,1.43c1.08,1.87,0.44,4.27-1.43,5.35
				c-1.87,1.08-4.27,0.44-5.35-1.43C300.02,385.19,300.66,382.79,302.53,381.71z"/>
		</g>
		<g>
			<path class="st9" d="M334.9,416.94c1.08-1.87,3.47-2.51,5.35-1.43c1.87,1.08,2.51,3.47,1.43,5.35c-1.08,1.87-3.47,2.51-5.35,1.43
				C334.46,421.21,333.82,418.81,334.9,416.94z"/>
		</g>
		<g>
			<path class="st9" d="M380.54,431.27c0-2.16,1.75-3.91,3.91-3.91c2.16,0,3.91,1.75,3.91,3.91c0,2.16-1.75,3.91-3.91,3.91
				C382.3,435.18,380.54,433.43,380.54,431.27z"/>
		</g>
		<g>
			<path class="st9" d="M427.24,420.86c-1.08-1.87-0.44-4.27,1.43-5.35c1.87-1.08,4.27-0.44,5.35,1.43
				c1.08,1.87,0.44,4.27-1.43,5.35C430.71,423.37,428.32,422.73,427.24,420.86z"/>
		</g>
		<g>
			<path class="st9" d="M462.47,388.49c-1.87-1.08-2.51-3.47-1.43-5.35c1.08-1.87,3.47-2.51,5.35-1.43
				c1.87,1.08,2.51,3.47,1.43,5.35C466.73,388.93,464.34,389.57,462.47,388.49z"/>
		</g>
		<g>
			<path class="st9" d="M476.79,342.85c-2.16,0-3.91-1.75-3.91-3.91c0-2.16,1.75-3.91,3.91-3.91c2.16,0,3.91,1.75,3.91,3.91
				C480.71,341.09,478.95,342.85,476.79,342.85z"/>
		</g>
		<g>
			<path class="st9" d="M466.38,296.15c-1.87,1.08-4.27,0.44-5.35-1.43c-1.08-1.87-0.44-4.27,1.43-5.35
				c1.87-1.08,4.27-0.44,5.35,1.43S468.25,295.07,466.38,296.15z"/>
		</g>
		<g>
			<path class="st9" d="M434.01,260.92c-1.08,1.87-3.47,2.51-5.35,1.43c-1.87-1.08-2.51-3.47-1.43-5.35
				c1.08-1.87,3.47-2.51,5.35-1.43C434.45,256.66,435.1,259.05,434.01,260.92z"/>
		</g>
		<g>
			
				<rect x="357.47" y="299.67" transform="matrix(0.4687 -0.8834 0.8834 0.4687 -94.1982 491.59)" class="st9" width="8.16" height="48.86"/>
		</g>
		<g>
			
				<rect x="381.23" y="316.3" transform="matrix(0.8757 -0.4828 0.4828 0.8757 -102.2307 241.4798)" class="st9" width="73.45" height="6.05"/>
		</g>
		<g>
			<path class="st7" d="M403.05,338.93c0,10.27-8.33,18.6-18.6,18.6c-10.27,0-18.6-8.33-18.6-18.6c0-10.27,8.33-18.6,18.6-18.6
				C394.73,320.34,403.05,328.66,403.05,338.93z"/>
		</g>
		<g>
			<path class="st7" d="M335.51,206.78c-1.03-2.18-2.26-4.31-3.7-6.35c-13.38-18.91-39.56-23.39-58.47-10.01
				c-18.91,13.38-23.39,39.56-10.01,58.47c1.44,2.04,3.05,3.9,4.76,5.6L335.51,206.78z"/>
		</g>
	</g>
	<g>
		<g>
			<path class="st2" d="M145.85,274.96l30.27-93.05c1.82-5.6,7.21-9.24,13.08-8.85l93.78,6.24l-16.87,16.23l-62.73,7.29l-8.48,60.13
				L145.85,274.96z"/>
		</g>
		<g>
			<defs>
				<path id="SVGID_2_" d="M169.79,260.2l-37.94-76.4c-0.49-13.76-1.11-34.73-1.11-53.47c0-9-6.1-11.1-11.95-9.97
					c-18.08,3.48-54.16,14.28-64.16,17.32c-0.98,0.3-1.12,1.63-0.22,2.12l16.45,9.03c0.2,0.11,0.43,0.16,0.65,0.14l33.79-2.83
					c0.73-0.06,1.33,0.55,1.25,1.28c-0.31,2.71-1.33,9.63-2.39,16.94c-0.5,0.26-1,0.54-1.49,0.85l-48.85,30.61
					c-1.15,0.72-2.19,1.54-3.12,2.43c-8.4-2.03-16.21-3.93-18.82-4.72c-0.7-0.21-1.02-1.01-0.68-1.65l16.01-29.89
					c0.11-0.2,0.15-0.43,0.13-0.65l-1.76-18.68c-0.1-1.02-1.37-1.42-2.04-0.64c-6.76,7.98-31,36.8-41.37,52.01
					c-3.36,4.92-3.85,11.35,4.41,14.92c19.89,8.6,42.21,19.15,53.96,24.79l46.81,63.28L169.79,260.2z"/>
			</defs>
			<use xlink:href="#SVGID_2_"  style="overflow:visible;fill:#A4B8EA;"/>
			<clipPath id="SVGID_3_">
				<use xlink:href="#SVGID_2_"  style="overflow:visible;"/>
			</clipPath>
			<g class="st10">
				<g>
					<g>
						
							<rect x="50.67" y="126.15" transform="matrix(0.8721 -0.4892 0.4892 0.8721 -57.5739 44.9049)" class="st1" width="12.92" height="12.92"/>
					</g>
					<g>
						
							<rect x="68.26" y="131.09" transform="matrix(0.8721 -0.4892 0.4892 0.8721 -57.7455 54.1458)" class="st1" width="12.92" height="12.92"/>
					</g>
					<g>
						
							<rect x="73.21" y="113.5" transform="matrix(0.8721 -0.4892 0.4892 0.8721 -48.5045 54.3174)" class="st1" width="12.92" height="12.92"/>
					</g>
					<g>
						
							<rect x="90.81" y="118.45" transform="matrix(0.8721 -0.4892 0.4892 0.8721 -48.6762 63.5587)" class="st1" width="12.92" height="12.92"/>
					</g>
					<g>
						
							<rect x="95.75" y="100.85" transform="matrix(0.8721 -0.4892 0.4892 0.8721 -39.4351 63.7299)" class="st1" width="12.92" height="12.92"/>
					</g>
					<g>
						
							<rect x="113.35" y="105.8" transform="matrix(0.8722 -0.4892 0.4892 0.8722 -39.6052 72.9652)" class="st1" width="12.92" height="12.92"/>
					</g>
				</g>
				<g>
					<g>
						
							<rect x="63.31" y="148.69" transform="matrix(0.8721 -0.4892 0.4892 0.8721 -66.9857 53.9732)" class="st1" width="12.92" height="12.92"/>
					</g>
					<g>
						
							<rect x="80.91" y="153.64" transform="matrix(0.8721 -0.4893 0.4893 0.8721 -67.159 63.2169)" class="st1" width="12.92" height="12.92"/>
					</g>
					<g>
						
							<rect x="85.86" y="136.04" transform="matrix(0.8721 -0.4893 0.4893 0.8721 -57.9179 63.3884)" class="st1" width="12.92" height="12.92"/>
					</g>
					<g>
						
							<rect x="103.45" y="140.99" transform="matrix(0.8721 -0.4893 0.4893 0.8721 -58.0893 72.6296)" class="st1" width="12.92" height="12.92"/>
					</g>
					<g>
						
							<rect x="108.4" y="123.4" transform="matrix(0.8722 -0.4892 0.4892 0.8722 -48.8454 72.7931)" class="st1" width="12.92" height="12.92"/>
					</g>
					<g>
						
							<rect x="126" y="128.35" transform="matrix(0.8722 -0.4892 0.4892 0.8722 -49.0178 82.0357)" class="st1" width="12.92" height="12.92"/>
					</g>
				</g>
				<g>
					<g>
						
							<rect x="-16.96" y="164.08" transform="matrix(0.8721 -0.4893 0.4893 0.8721 -84.7853 16.6688)" class="st1" width="12.92" height="12.92"/>
					</g>
					<g>
						
							<rect x="0.63" y="169.03" transform="matrix(0.8721 -0.4892 0.4892 0.8721 -84.9523 25.9073)" class="st1" width="12.92" height="12.92"/>
					</g>
					<g>
						
							<rect x="5.58" y="151.44" transform="matrix(0.8721 -0.4892 0.4892 0.8721 -75.7129 26.0798)" class="st1" width="12.92" height="12.92"/>
					</g>
					<g>
						
							<rect x="23.17" y="156.39" transform="matrix(0.8721 -0.4892 0.4892 0.8721 -75.8833 35.3199)" class="st1" width="12.92" height="12.92"/>
					</g>
					<g>
						
							<rect x="28.12" y="138.79" transform="matrix(0.8722 -0.4892 0.4892 0.8722 -66.6413 35.4905)" class="st1" width="12.92" height="12.92"/>
					</g>
					<g>
						
							<rect x="45.72" y="143.74" transform="matrix(0.8722 -0.4892 0.4892 0.8722 -66.8111 44.729)" class="st1" width="12.92" height="12.92"/>
					</g>
				</g>
				<g>
					<g>
						
							<rect x="-4.32" y="186.63" transform="matrix(0.8721 -0.4893 0.4893 0.8721 -94.1964 25.7376)" class="st1" width="12.92" height="12.92"/>
					</g>
					<g>
						
							<rect x="13.28" y="191.58" transform="matrix(0.8721 -0.4892 0.4892 0.8721 -94.365 34.9768)" class="st1" width="12.92" height="12.92"/>
					</g>
					<g>
						
							<rect x="18.23" y="173.98" transform="matrix(0.8721 -0.4893 0.4893 0.8721 -85.1269 35.1504)" class="st1" width="12.92" height="12.92"/>
					</g>
					<g>
						
							<rect x="35.82" y="178.93" transform="matrix(0.8721 -0.4892 0.4892 0.8721 -85.2958 44.3892)" class="st1" width="12.92" height="12.92"/>
					</g>
					<g>
						
							<rect x="40.77" y="161.34" transform="matrix(0.8721 -0.4892 0.4892 0.8721 -76.0551 44.561)" class="st1" width="12.92" height="12.92"/>
					</g>
					<g>
						
							<rect x="58.36" y="166.28" transform="matrix(0.8721 -0.4893 0.4893 0.8721 -76.2286 53.8042)" class="st1" width="12.92" height="12.92"/>
					</g>
				</g>
				<g>
					<g>
						
							<rect x="76.1" y="171.48" transform="matrix(0.8721 -0.4893 0.4893 0.8721 -76.5048 63.1461)" class="st1" width="12.92" height="12.92"/>
					</g>
					<g>
						
							<rect x="93.69" y="176.43" transform="matrix(0.8722 -0.4892 0.4892 0.8722 -76.6723 72.3809)" class="st1" width="12.92" height="12.92"/>
					</g>
					<g>
						
							<rect x="98.64" y="158.84" transform="matrix(0.8721 -0.4892 0.4892 0.8721 -67.4335 72.5556)" class="st1" width="12.92" height="12.92"/>
					</g>
					<g>
						
							<rect x="116.24" y="163.79" transform="matrix(0.8721 -0.4893 0.4893 0.8721 -67.6065 81.7996)" class="st1" width="12.92" height="12.92"/>
					</g>
					<g>
						
							<rect x="121.19" y="146.19" transform="matrix(0.8721 -0.4893 0.4893 0.8721 -58.3654 81.9714)" class="st1" width="12.92" height="12.92"/>
					</g>
					<g>
						
							<rect x="138.78" y="151.14" transform="matrix(0.8721 -0.4893 0.4893 0.8721 -58.537 91.2126)" class="st1" width="12.92" height="12.92"/>
					</g>
				</g>
				<g>
					<g>
						
							<rect x="88.75" y="194.03" transform="matrix(0.8722 -0.4892 0.4892 0.8722 -85.9128 72.2092)" class="st1" width="12.92" height="12.92"/>
					</g>
					<g>
						
							<rect x="106.34" y="198.98" transform="matrix(0.8722 -0.4892 0.4892 0.8722 -86.0832 81.4477)" class="st1" width="12.92" height="12.92"/>
					</g>
					<g>
						
							<rect x="111.29" y="181.38" transform="matrix(0.8721 -0.4892 0.4892 0.8721 -76.8459 81.6249)" class="st1" width="12.92" height="12.92"/>
					</g>
					<g>
						
							<rect x="128.88" y="186.33" transform="matrix(0.8721 -0.4892 0.4892 0.8721 -77.0182 90.8675)" class="st1" width="12.92" height="12.92"/>
					</g>
					<g>
						
							<rect x="133.83" y="168.74" transform="matrix(0.8721 -0.4893 0.4893 0.8721 -67.7781 91.0412)" class="st1" width="12.92" height="12.92"/>
					</g>
					<g>
						
							<rect x="151.43" y="173.68" transform="matrix(0.8721 -0.4893 0.4893 0.8721 -67.9505 100.2846)" class="st1" width="12.92" height="12.92"/>
					</g>
				</g>
				<g>
					<g>
						
							<rect x="8.47" y="209.42" transform="matrix(0.8721 -0.4892 0.4892 0.8721 -103.7101 34.9057)" class="st1" width="12.92" height="12.92"/>
					</g>
					<g>
						
							<rect x="26.06" y="214.37" transform="matrix(0.8722 -0.4892 0.4892 0.8722 -103.8771 44.1429)" class="st1" width="12.92" height="12.92"/>
					</g>
					<g>
						
							<rect x="31.01" y="196.78" transform="matrix(0.8721 -0.4893 0.4893 0.8721 -94.6441 44.3208)" class="st1" width="12.92" height="12.92"/>
					</g>
					<g>
						
							<rect x="48.61" y="201.72" transform="matrix(0.8721 -0.4893 0.4893 0.8721 -94.8159 53.5622)" class="st1" width="12.92" height="12.92"/>
					</g>
					<g>
						
							<rect x="53.56" y="184.13" transform="matrix(0.8721 -0.4893 0.4893 0.8721 -85.5744 53.7334)" class="st1" width="12.92" height="12.92"/>
					</g>
					<g>
						
							<rect x="71.15" y="189.08" transform="matrix(0.8721 -0.4893 0.4893 0.8721 -85.746 62.9746)" class="st1" width="12.92" height="12.92"/>
					</g>
				</g>
				<g>
					<g>
						
							<rect x="21.12" y="231.97" transform="matrix(0.8722 -0.4892 0.4892 0.8722 -113.1209 43.9738)" class="st1" width="12.92" height="12.92"/>
					</g>
					<g>
						
							<rect x="38.71" y="236.91" transform="matrix(0.8721 -0.4892 0.4892 0.8721 -113.2963 53.2176)" class="st1" width="12.92" height="12.92"/>
					</g>
					<g>
						
							<rect x="43.66" y="219.32" transform="matrix(0.8722 -0.4892 0.4892 0.8722 -104.0519 53.3861)" class="st1" width="12.92" height="12.92"/>
					</g>
					<g>
						
							<rect x="61.25" y="224.27" transform="matrix(0.8721 -0.4892 0.4892 0.8721 -104.2266 62.6299)" class="st1" width="12.92" height="12.92"/>
					</g>
					<g>
						
							<rect x="66.2" y="206.67" transform="matrix(0.8721 -0.4892 0.4892 0.8721 -94.9853 62.8011)" class="st1" width="12.92" height="12.92"/>
					</g>
					<g>
						
							<rect x="83.8" y="211.62" transform="matrix(0.8721 -0.4892 0.4892 0.8721 -95.1571 72.0424)" class="st1" width="12.92" height="12.92"/>
					</g>
				</g>
			</g>
			<g class="st10">
				<g>
					<g>
						
							<rect x="101.31" y="216.43" transform="matrix(0.8721 -0.4892 0.4892 0.8721 -95.2709 81.2276)" class="st1" width="12.92" height="12.92"/>
					</g>
					<g>
						
							<rect x="118.91" y="221.38" transform="matrix(0.8721 -0.4892 0.4892 0.8721 -95.4425 90.4686)" class="st1" width="12.92" height="12.92"/>
					</g>
					<g>
						
							<rect x="123.86" y="203.79" transform="matrix(0.8721 -0.4892 0.4892 0.8721 -86.2014 90.6402)" class="st1" width="12.92" height="12.92"/>
					</g>
					<g>
						
							<rect x="141.45" y="208.73" transform="matrix(0.8722 -0.4892 0.4892 0.8722 -86.3688 99.8726)" class="st1" width="12.92" height="12.92"/>
					</g>
					<g>
						
							<rect x="146.4" y="191.14" transform="matrix(0.8722 -0.4892 0.4892 0.8722 -77.1287 100.0448)" class="st1" width="12.92" height="12.92"/>
					</g>
					<g>
						
							<rect x="164" y="196.09" transform="matrix(0.8721 -0.4892 0.4892 0.8721 -77.3034 109.2932)" class="st1" width="12.92" height="12.92"/>
					</g>
				</g>
				<g>
					<g>
						
							<rect x="113.96" y="238.98" transform="matrix(0.8721 -0.4893 0.4893 0.8721 -104.685 90.2993)" class="st1" width="12.92" height="12.92"/>
					</g>
					<g>
						
							<rect x="131.56" y="243.92" transform="matrix(0.8721 -0.4893 0.4893 0.8721 -104.8565 99.5406)" class="st1" width="12.92" height="12.92"/>
					</g>
					<g>
						
							<rect x="136.5" y="226.33" transform="matrix(0.8721 -0.4892 0.4892 0.8721 -95.6129 99.7077)" class="st1" width="12.92" height="12.92"/>
					</g>
					<g>
						
							<rect x="154.1" y="231.28" transform="matrix(0.8722 -0.4892 0.4892 0.8722 -95.7819 108.9434)" class="st1" width="12.92" height="12.92"/>
					</g>
					<g>
						
							<rect x="159.05" y="213.68" transform="matrix(0.8722 -0.4892 0.4892 0.8722 -86.5406 109.113)" class="st1" width="12.92" height="12.92"/>
					</g>
					<g>
						
							<rect x="176.64" y="218.63" transform="matrix(0.8721 -0.4893 0.4893 0.8721 -86.7172 118.3659)" class="st1" width="12.92" height="12.92"/>
					</g>
				</g>
				<g>
					<g>
						
							<rect x="33.68" y="254.37" transform="matrix(0.8721 -0.4892 0.4892 0.8721 -122.4796 52.9904)" class="st1" width="12.92" height="12.92"/>
					</g>
					<g>
						
							<rect x="51.28" y="259.32" transform="matrix(0.8721 -0.4893 0.4893 0.8721 -122.6528 62.2329)" class="st1" width="12.92" height="12.92"/>
					</g>
					<g>
						
							<rect x="56.23" y="241.72" transform="matrix(0.8721 -0.4892 0.4892 0.8721 -113.4101 62.403)" class="st1" width="12.92" height="12.92"/>
					</g>
					<g>
						
							<rect x="73.82" y="246.67" transform="matrix(0.8721 -0.4892 0.4892 0.8721 -113.5798 71.642)" class="st1" width="12.92" height="12.92"/>
					</g>
					<g>
						
							<rect x="78.77" y="229.08" transform="matrix(0.8721 -0.4892 0.4892 0.8721 -104.3402 71.815)" class="st1" width="12.92" height="12.92"/>
					</g>
					<g>
						
							<rect x="96.37" y="234.03" transform="matrix(0.8721 -0.4893 0.4893 0.8721 -104.5137 81.0585)" class="st1" width="12.92" height="12.92"/>
					</g>
				</g>
				<g>
					<g>
						
							<rect x="46.33" y="276.91" transform="matrix(0.8721 -0.4893 0.4893 0.8721 -131.8935 62.061)" class="st1" width="12.92" height="12.92"/>
					</g>
					<g>
						
							<rect x="63.92" y="281.86" transform="matrix(0.8722 -0.4892 0.4892 0.8722 -132.0575 71.2951)" class="st1" width="12.92" height="12.92"/>
					</g>
					<g>
						
							<rect x="68.87" y="264.27" transform="matrix(0.8721 -0.4892 0.4892 0.8721 -122.8207 71.4704)" class="st1" width="12.92" height="12.92"/>
					</g>
					<g>
						
							<rect x="86.47" y="269.22" transform="matrix(0.8721 -0.4893 0.4893 0.8721 -122.9961 80.7156)" class="st1" width="12.92" height="12.92"/>
					</g>
					<g>
						
							<rect x="91.42" y="251.62" transform="matrix(0.8721 -0.4893 0.4893 0.8721 -113.7546 80.8867)" class="st1" width="12.92" height="12.92"/>
					</g>
					<g>
						
							<rect x="109.01" y="256.57" transform="matrix(0.8721 -0.4893 0.4893 0.8721 -113.9261 90.1279)" class="st1" width="12.92" height="12.92"/>
					</g>
				</g>
				<g>
					<g>
						
							<rect x="126.75" y="261.77" transform="matrix(0.8722 -0.4892 0.4892 0.8722 -114.1961 99.4608)" class="st1" width="12.92" height="12.92"/>
					</g>
					<g>
						
							<rect x="144.34" y="266.72" transform="matrix(0.8721 -0.4893 0.4893 0.8721 -114.3738 108.7109)" class="st1" width="12.92" height="12.92"/>
					</g>
					<g>
						
							<rect x="149.29" y="249.12" transform="matrix(0.8721 -0.4893 0.4893 0.8721 -105.1325 108.8825)" class="st1" width="12.92" height="12.92"/>
					</g>
					<g>
						
							<rect x="166.89" y="254.07" transform="matrix(0.8721 -0.4893 0.4893 0.8721 -105.3041 118.1236)" class="st1" width="12.92" height="12.92"/>
					</g>
					<g>
						
							<rect x="171.83" y="236.48" transform="matrix(0.8721 -0.4893 0.4893 0.8721 -96.0627 118.2946)" class="st1" width="12.92" height="12.92"/>
					</g>
					<g>
						
							<rect x="189.43" y="241.43" transform="matrix(0.8722 -0.4892 0.4892 0.8722 -96.2301 127.5257)" class="st1" width="12.92" height="12.92"/>
					</g>
				</g>
				<g>
					<g>
						
							<rect x="59.12" y="299.71" transform="matrix(0.8721 -0.4893 0.4893 0.8721 -141.4111 71.2317)" class="st1" width="12.92" height="12.92"/>
					</g>
					<g>
						
							<rect x="76.71" y="304.66" transform="matrix(0.8722 -0.4892 0.4892 0.8722 -141.5762 80.4665)" class="st1" width="12.92" height="12.92"/>
					</g>
					<g>
						
							<rect x="81.66" y="287.06" transform="matrix(0.8721 -0.4893 0.4893 0.8721 -132.3416 80.6444)" class="st1" width="12.92" height="12.92"/>
					</g>
					<g>
						
							<rect x="99.25" y="292.01" transform="matrix(0.8721 -0.4892 0.4892 0.8721 -132.511 89.8832)" class="st1" width="12.92" height="12.92"/>
					</g>
					<g>
						
							<rect x="104.2" y="274.42" transform="matrix(0.8721 -0.4893 0.4893 0.8721 -123.2722 90.0575)" class="st1" width="12.92" height="12.92"/>
					</g>
					<g>
						
							<rect x="121.8" y="279.37" transform="matrix(0.8722 -0.4892 0.4892 0.8722 -123.4366 99.2891)" class="st1" width="12.92" height="12.92"/>
					</g>
				</g>
			</g>
		</g>
		<g>
			<g>
				<path class="st11" d="M82.91,188.86c-11.62,5.42-14.38-0.52-15.5-2.3l-7.54-12.03c-1.71-2.72,2.5-5.04,4.92-6.55l7.78-4.88
					c2.42-1.51,7.86-1.85,9.57,0.87l9.01,13.85C92.25,179.58,94.46,183.47,82.91,188.86z"/>
			</g>
		</g>
		<g>
			<defs>
				<path id="SVGID_4_" d="M85.8,154.8c3.5,12.53-6.35,16.45-18.89,19.96c-12.53,3.5-25.53-3.82-29.03-16.35
					c-3.5-12.53,3.82-25.53,16.35-29.03C66.77,125.87,82.3,142.27,85.8,154.8z"/>
			</defs>
			<use xlink:href="#SVGID_4_"  style="overflow:visible;fill:#FFB3B6;"/>
			<clipPath id="SVGID_5_">
				<use xlink:href="#SVGID_4_"  style="overflow:visible;"/>
			</clipPath>
			<g class="st12">
				<g>
					<g>
						<path class="st13" d="M49.65,145.98c0,0,4.42,7.05,3.45,7.66c-0.97,0.61-5.53,1.44-6.07,6.52c-0.54,5.08,4.51,6.65,8.13,5.4
							c3.62-1.25,6.61,8.39-1.84,11.65c-8.45,3.26-22.25-12.81-22.62-22.05c-0.38-9.24,7.3-24.55,11.98-26.81
							c4.68-2.26,43.27-4.8,43.27-4.8L49.65,145.98z"/>
					</g>
				</g>
			</g>
		</g>
		<g>
			<path class="st14" d="M292.44,172.39l4.39,13.35l10.24-3.37l-8.91-27.09c-0.59-1.79-4.81-1.08-5.16,0.77L292.44,172.39z"/>
		</g>
		<g>
			<path class="st9" d="M107.37,297.01l62.43-36.82l52.24-57.08l70.4-30.72l4.39,13.35l-56.04,42.17c0,0-33.28,78.88-68.05,90.42
				C137.96,329.89,107.37,297.01,107.37,297.01z"/>
		</g>
	</g>
	<g>
		<path class="st0" d="M90.53,453.72c0-6.67,5.4-12.07,12.07-12.07c6.67,0,12.07,5.4,12.07,12.07c0,6.67-5.4,12.07-12.07,12.07
			C95.94,465.79,90.53,460.39,90.53,453.72z"/>
	</g>
	<g>
		<path class="st0" d="M141.43,453.72c0-6.67,5.4-12.07,12.07-12.07c6.67,0,12.07,5.4,12.07,12.07c0,6.67-5.41,12.07-12.07,12.07
			C146.84,465.79,141.43,460.39,141.43,453.72z"/>
	</g>
	<g>
		<path class="st0" d="M192.33,453.72c0-6.67,5.4-12.07,12.07-12.07c6.67,0,12.07,5.4,12.07,12.07c0,6.67-5.4,12.07-12.07,12.07
			C197.74,465.79,192.33,460.39,192.33,453.72z"/>
	</g>
	<g>
		<path class="st1" d="M185.97,124.84c0,1.53-1.24,2.77-2.77,2.77c-1.53,0-2.77-1.24-2.77-2.77c0-1.53,1.24-2.77,2.77-2.77
			C184.73,122.06,185.97,123.3,185.97,124.84z"/>
	</g>
	<g>
		<path class="st1" d="M277,88.29c0,1.53-1.24,2.77-2.77,2.77c-1.53,0-2.77-1.24-2.77-2.77c0-1.53,1.24-2.77,2.77-2.77
			C275.76,85.52,277,86.76,277,88.29z"/>
	</g>
	<g>
		<path class="st1" d="M366.56,124.18c0,1.53-1.24,2.77-2.77,2.77c-1.53,0-2.77-1.24-2.77-2.77c0-1.53,1.24-2.77,2.77-2.77
			C365.32,121.41,366.56,122.65,366.56,124.18z"/>
	</g>
</g>
</svg>
